<svg width="26" height="21" viewBox="0 0 26 21" fill="none" xmlns="http://www.w3.org/2000/svg">
<path d="M23.2172 20.07H3.01928C1.7384 20.07 0.687042 19.0154 0.687042 17.7307V2.7221C0.687042 1.43735 1.7384 0.382812 3.01928 0.382812H23.2172C24.4981 0.382812 25.5494 1.43735 25.5494 2.7221V17.7307C25.5568 19.0229 24.5055 20.07 23.2172 20.07Z" fill="#F6C859"/>
<path d="M10.2603 17.4479C10.1567 17.4479 10.053 17.3885 10.0012 17.2919C9.92713 17.1508 9.98637 16.9726 10.127 16.9058C10.5417 16.6904 11.1118 16.2894 11.4375 15.5913C11.8522 14.7076 11.7485 13.7496 11.5708 13.6679C11.5264 13.6456 11.3487 13.7347 11.245 13.7942C10.9711 13.9353 10.6009 14.1283 10.1641 13.9724C9.73463 13.8239 9.52733 13.4451 9.43107 13.2595C8.77953 12.0638 8.57962 8.94477 9.26819 7.39267C9.49771 6.88025 9.80867 6.57577 10.1937 6.48666C10.5861 6.39754 10.9045 6.56092 11.1636 6.69459C11.3783 6.80599 11.482 6.85055 11.5486 6.81341C11.8151 6.65004 11.8077 5.66233 11.4375 4.87515C11.1118 4.17707 10.5417 3.77605 10.127 3.56069C9.98637 3.48642 9.92713 3.31562 10.0012 3.17452C10.0752 3.03342 10.2455 2.97401 10.3862 3.04827C10.8822 3.30077 11.556 3.78348 11.9558 4.62265C12.3482 5.4544 12.5333 6.88768 11.8448 7.30355C11.4968 7.51149 11.1636 7.34068 10.8971 7.20701C10.6971 7.10304 10.5046 7.0065 10.3195 7.05106C10.0678 7.11047 9.89012 7.40009 9.78646 7.63774C9.18674 8.98933 9.35703 11.9376 9.92714 12.9921C10.0234 13.1703 10.1419 13.3634 10.3418 13.4377C10.5343 13.5045 10.7194 13.4228 10.9785 13.2892C11.2302 13.1629 11.5116 13.0144 11.8151 13.1629C12.4593 13.4748 12.4149 14.871 11.9484 15.8587C11.5486 16.6978 10.8748 17.1806 10.3788 17.4331C10.3492 17.4331 10.3047 17.4479 10.2603 17.4479Z" fill="#7D662D"/>
<path d="M9.39405 7.91324H4.2113C4.05582 7.91324 3.92255 7.78699 3.92255 7.62361C3.92255 7.46023 4.04841 7.33398 4.2113 7.33398H9.39405C9.54953 7.33398 9.6828 7.46023 9.6828 7.62361C9.6828 7.78699 9.55693 7.91324 9.39405 7.91324Z" fill="#7D662D"/>
<path d="M9.39405 13.1115H4.2113C4.05582 13.1115 3.92255 12.9852 3.92255 12.8219C3.92255 12.6659 4.04841 12.5322 4.2113 12.5322H9.39405C9.54953 12.5322 9.6828 12.6585 9.6828 12.8219C9.6828 12.9852 9.55693 13.1115 9.39405 13.1115Z" fill="#7D662D"/>
<path d="M16.3093 17.4484C16.2649 17.4484 16.2205 17.441 16.1761 17.4187C15.68 17.1662 15.0062 16.6835 14.6064 15.8443C14.14 14.8566 14.0956 13.4679 14.7397 13.1486C15.0433 13 15.3246 13.1486 15.5763 13.2748C15.8355 13.4085 16.0206 13.4902 16.2131 13.4233C16.4278 13.3491 16.5537 13.1189 16.6277 12.9778C17.2052 11.9232 17.3755 8.9824 16.7684 7.62338C16.6647 7.39317 16.487 7.09611 16.2353 7.0367C16.0798 6.99957 15.9836 6.84362 16.0206 6.68767C16.0576 6.53171 16.2131 6.43517 16.3686 6.4723C16.7536 6.56142 17.0645 6.8659 17.2941 7.38574C17.9826 8.93041 17.7827 12.0495 17.1312 13.2525C17.0349 13.4382 16.8202 13.8169 16.3982 13.9655C15.9613 14.114 15.5911 13.9283 15.3172 13.7872C15.2135 13.7352 15.0359 13.6461 14.9914 13.661C14.8211 13.7427 14.7101 14.7007 15.1247 15.5844C15.4505 16.2825 16.0206 16.6835 16.4352 16.8989C16.5759 16.9731 16.6351 17.1439 16.5611 17.285C16.5092 17.389 16.413 17.4484 16.3093 17.4484Z" fill="#7D662D"/>
<path d="M15.1543 6.76212C15.0358 6.76212 14.9248 6.68786 14.8803 6.56161C14.2658 4.70503 15.7096 3.27175 16.176 3.03411C16.3167 2.95985 16.4944 3.01926 16.561 3.16036C16.6351 3.30146 16.5758 3.47969 16.4352 3.54653C16.2279 3.65049 14.9026 4.79415 15.4282 6.37595C15.4801 6.52448 15.3986 6.68786 15.2431 6.73984C15.2135 6.7547 15.1839 6.76212 15.1543 6.76212Z" fill="#7D662D"/>
<path d="M22.3509 7.91324H17.1682C17.0127 7.91324 16.8794 7.78699 16.8794 7.62361C16.8794 7.46023 17.0053 7.33398 17.1682 7.33398H22.3509C22.5064 7.33398 22.6397 7.46023 22.6397 7.62361C22.6397 7.78699 22.5138 7.91324 22.3509 7.91324Z" fill="#7D662D"/>
<path d="M22.3509 13.1115H17.1682C17.0127 13.1115 16.8794 12.9852 16.8794 12.8219C16.8794 12.6659 17.0053 12.5322 17.1682 12.5322H22.3509C22.5064 12.5322 22.6397 12.6585 22.6397 12.8219C22.6397 12.9852 22.5138 13.1115 22.3509 13.1115Z" fill="#7D662D"/>
</svg>
