<svg width="49" height="48" viewBox="0 0 49 48" fill="none" xmlns="http://www.w3.org/2000/svg">
<path d="M34.4136 19.7536L34.4136 19.7536L34.4195 19.7475C35.1836 18.9571 35.1921 17.705 34.4136 16.9264C33.6383 16.1512 32.3617 16.1512 31.5864 16.9264L21.66 26.8529L17.4136 22.6064C16.6383 21.8312 15.3617 21.8312 14.5864 22.6064C13.8112 23.3817 13.8112 24.6583 14.5864 25.4336L20.2464 31.0936C20.6191 31.4663 21.1259 31.68 21.66 31.68C22.1941 31.68 22.7009 31.4663 23.0736 31.0936L34.4136 19.7536ZM5 24C5 13.2561 13.7561 4.5 24.5 4.5C35.2439 4.5 44 13.2561 44 24C44 34.7439 35.2439 43.5 24.5 43.5C13.7561 43.5 5 34.7439 5 24Z" fill="#20BF55" stroke="#20BF55"/>
</svg>
