<svg width="512" height="488" viewBox="0 0 512 488" fill="none" xmlns="http://www.w3.org/2000/svg">
<rect width="512" height="488" rx="8" fill="white"/>
<rect x="0.5" y="0.5" width="511" height="487" rx="7.5" stroke="#767680" stroke-opacity="0.12"/>
<path d="M56.9929 45.652H52.2116C52.0753 44.8679 51.8239 44.1733 51.4574 43.5682C51.0909 42.9545 50.6349 42.4347 50.0895 42.0085C49.544 41.5824 48.9219 41.2628 48.223 41.0497C47.5327 40.8281 46.7869 40.7173 45.9858 40.7173C44.5625 40.7173 43.3011 41.0753 42.2017 41.7912C41.1023 42.4986 40.2415 43.5384 39.6193 44.9105C38.9972 46.2741 38.6861 47.9403 38.6861 49.9091C38.6861 51.9119 38.9972 53.5994 39.6193 54.9716C40.25 56.3352 41.1108 57.3665 42.2017 58.0653C43.3011 58.7557 44.5582 59.1009 45.973 59.1009C46.7571 59.1009 47.4901 58.9986 48.1719 58.794C48.8622 58.581 49.4801 58.2699 50.0256 57.8608C50.5795 57.4517 51.044 56.9489 51.419 56.3523C51.8026 55.7557 52.0668 55.0739 52.2116 54.3068L56.9929 54.3324C56.8139 55.5767 56.4261 56.7443 55.8295 57.8352C55.2415 58.9261 54.4702 59.8892 53.5156 60.7244C52.5611 61.5511 51.4446 62.1989 50.1662 62.6676C48.8878 63.1278 47.4688 63.358 45.9091 63.358C43.608 63.358 41.554 62.8253 39.7472 61.7599C37.9403 60.6946 36.517 59.1562 35.4773 57.1449C34.4375 55.1335 33.9176 52.7216 33.9176 49.9091C33.9176 47.0881 34.4418 44.6761 35.4901 42.6733C36.5384 40.6619 37.9659 39.1236 39.7727 38.0582C41.5795 36.9929 43.625 36.4602 45.9091 36.4602C47.3665 36.4602 48.7216 36.6648 49.9744 37.0739C51.2273 37.483 52.3438 38.0838 53.3239 38.8764C54.304 39.6605 55.1094 40.6236 55.7401 41.7656C56.3793 42.8991 56.7969 44.1946 56.9929 45.652ZM66.7823 63.3963C65.538 63.3963 64.4173 63.1747 63.4201 62.7315C62.4315 62.2798 61.6474 61.6151 61.0678 60.7372C60.4968 59.8594 60.2113 58.777 60.2113 57.4901C60.2113 56.3821 60.4158 55.4659 60.8249 54.7415C61.234 54.017 61.7923 53.4375 62.4996 53.0028C63.207 52.5682 64.0039 52.2401 64.8903 52.0185C65.7852 51.7884 66.7099 51.6222 67.6644 51.5199C68.815 51.4006 69.7482 51.294 70.4641 51.2003C71.18 51.098 71.6999 50.9446 72.0238 50.7401C72.3562 50.527 72.5224 50.1989 72.5224 49.7557V49.679C72.5224 48.7159 72.2369 47.9702 71.6658 47.4418C71.0948 46.9134 70.2724 46.6491 69.1985 46.6491C68.065 46.6491 67.1658 46.8963 66.5011 47.3906C65.8448 47.8849 65.4016 48.4687 65.1715 49.142L60.8505 48.5284C61.1914 47.3352 61.7539 46.3381 62.538 45.5369C63.3221 44.7273 64.2809 44.1222 65.4144 43.7216C66.5479 43.3125 67.8008 43.108 69.1729 43.108C70.119 43.108 71.0607 43.2188 71.9982 43.4403C72.9357 43.6619 73.7923 44.0284 74.5678 44.5398C75.3434 45.0426 75.9656 45.7287 76.4343 46.598C76.9116 47.4673 77.1502 48.554 77.1502 49.858V63H72.7014V60.3026H72.5479C72.2667 60.848 71.8704 61.3594 71.359 61.8366C70.8562 62.3054 70.2212 62.6847 69.4542 62.9744C68.6957 63.2557 67.805 63.3963 66.7823 63.3963ZM67.984 59.9957C68.913 59.9957 69.7184 59.8125 70.4002 59.446C71.082 59.071 71.6062 58.5767 71.9727 57.9631C72.3477 57.3494 72.5352 56.6804 72.5352 55.956V53.642C72.3903 53.7614 72.1431 53.8722 71.7937 53.9744C71.4528 54.0767 71.0692 54.1662 70.6431 54.2429C70.217 54.3196 69.7951 54.3878 69.3775 54.4474C68.9599 54.5071 68.5977 54.5582 68.2908 54.6009C67.6005 54.6946 66.9826 54.848 66.4371 55.0611C65.8917 55.2741 65.4613 55.5724 65.146 55.956C64.8306 56.331 64.6729 56.8168 64.6729 57.4134C64.6729 58.2656 64.984 58.9091 65.6062 59.3438C66.2283 59.7784 67.021 59.9957 67.984 59.9957ZM81.8036 63V43.3636H86.2908V46.6364H86.4954C86.8533 45.5028 87.467 44.6293 88.3363 44.0156C89.2141 43.3935 90.2156 43.0824 91.3406 43.0824C91.5962 43.0824 91.8817 43.0952 92.1971 43.1207C92.521 43.1378 92.7894 43.1676 93.0025 43.2102V47.4673C92.8065 47.3991 92.4954 47.3395 92.0692 47.2884C91.6516 47.2287 91.2468 47.1989 90.8548 47.1989C90.011 47.1989 89.2525 47.3821 88.5792 47.7486C87.9144 48.1065 87.3903 48.6051 87.0067 49.2443C86.6232 49.8835 86.4315 50.6207 86.4315 51.456V63H81.8036ZM102.555 63.3452C101.013 63.3452 99.6321 62.9489 98.4134 62.1562C97.1946 61.3636 96.2315 60.2131 95.5241 58.7045C94.8168 57.196 94.4631 55.3636 94.4631 53.2074C94.4631 51.0256 94.821 49.1847 95.5369 47.6847C96.2614 46.1761 97.2372 45.0384 98.4645 44.2713C99.6918 43.4957 101.06 43.108 102.568 43.108C103.719 43.108 104.665 43.304 105.406 43.696C106.148 44.0795 106.736 44.544 107.17 45.0895C107.605 45.6264 107.942 46.1335 108.18 46.6108H108.372V36.8182H113.013V63H108.462V59.9062H108.18C107.942 60.3835 107.597 60.8906 107.145 61.4276C106.693 61.956 106.097 62.4077 105.355 62.7827C104.614 63.1577 103.68 63.3452 102.555 63.3452ZM103.847 59.5483C104.827 59.5483 105.662 59.2841 106.352 58.7557C107.043 58.2187 107.567 57.473 107.925 56.5185C108.283 55.5639 108.462 54.4517 108.462 53.1818C108.462 51.9119 108.283 50.8082 107.925 49.8707C107.575 48.9332 107.055 48.2045 106.365 47.6847C105.683 47.1648 104.844 46.9048 103.847 46.9048C102.815 46.9048 101.955 47.1733 101.264 47.7102C100.574 48.2472 100.054 48.9886 99.7045 49.9347C99.3551 50.8807 99.1804 51.9631 99.1804 53.1818C99.1804 54.4091 99.3551 55.5043 99.7045 56.4673C100.063 57.4219 100.587 58.1761 101.277 58.7301C101.976 59.2756 102.832 59.5483 103.847 59.5483ZM133.464 48.554L129.245 49.0142C129.126 48.5881 128.917 48.1875 128.619 47.8125C128.329 47.4375 127.937 47.1349 127.443 46.9048C126.949 46.6747 126.343 46.5597 125.627 46.5597C124.664 46.5597 123.855 46.7685 123.199 47.1861C122.551 47.6037 122.231 48.1449 122.24 48.8097C122.231 49.3807 122.44 49.8452 122.866 50.2031C123.301 50.5611 124.017 50.8551 125.014 51.0852L128.363 51.8011C130.221 52.2017 131.602 52.8366 132.505 53.706C133.417 54.5753 133.877 55.7131 133.886 57.1193C133.877 58.3551 133.515 59.446 132.799 60.392C132.092 61.3295 131.108 62.0625 129.846 62.5909C128.585 63.1193 127.136 63.3835 125.5 63.3835C123.096 63.3835 121.162 62.8807 119.696 61.875C118.23 60.8608 117.356 59.4503 117.075 57.6435L121.588 57.2088C121.792 58.0952 122.227 58.7642 122.892 59.2159C123.556 59.6676 124.422 59.8935 125.487 59.8935C126.586 59.8935 127.468 59.6676 128.133 59.2159C128.806 58.7642 129.143 58.206 129.143 57.5412C129.143 56.9787 128.926 56.5142 128.491 56.1477C128.065 55.7812 127.4 55.5 126.497 55.304L123.147 54.6009C121.264 54.2088 119.87 53.5483 118.967 52.6193C118.064 51.6818 117.616 50.4972 117.625 49.0653C117.616 47.8551 117.944 46.8068 118.609 45.9205C119.282 45.0256 120.216 44.3352 121.409 43.8494C122.61 43.3551 123.995 43.108 125.564 43.108C127.865 43.108 129.676 43.598 130.997 44.5781C132.326 45.5582 133.149 46.8835 133.464 48.554Z" fill="#06121B"/>
<rect x="444.5" y="32.5" width="35" height="35" rx="7.5" stroke="#E8E9EB"/>
<path d="M470 51H463V58H461V51H454V49H461V42H463V49H470V51Z" fill="black"/>
<path d="M448 214.222V406.777C448 419.163 437.711 429.214 425.03 429.214H86.9705C74.2893 429.225 64 419.174 64 406.788V214.222C64 201.836 74.2893 191.785 86.9705 191.785H425.03C429.565 191.785 433.807 193.075 437.372 195.312C443.78 199.279 448 206.266 448 214.222Z" fill="url(#paint0_linear_887_7918)"/>
<path d="M102.912 292.213V294.108L100.159 293.987L101.761 296.147L100.035 297.15L98.6702 294.725L97.305 297.15L95.6127 296.147L97.1922 293.987L94.4619 294.108V292.213L97.1922 292.356L95.6127 290.163L97.305 289.16L98.6702 291.585L100.035 289.16L101.761 290.163L100.159 292.356L102.912 292.213Z" fill="white"/>
<path d="M117.117 292.213V294.108L114.364 293.987L115.967 296.147L114.24 297.15L112.875 294.725L111.51 297.15L109.818 296.147L111.397 293.987L108.667 294.108V292.213L111.397 292.356L109.818 290.163L111.51 289.16L112.875 291.585L114.24 289.16L115.967 290.163L114.364 292.356L117.117 292.213Z" fill="white"/>
<path d="M131.321 292.213V294.108L128.569 293.987L130.171 296.147L128.444 297.15L127.079 294.725L125.714 297.15L124.022 296.147L125.601 293.987L122.871 294.108V292.213L125.601 292.356L124.022 290.163L125.714 289.16L127.079 291.585L128.444 289.16L130.171 290.163L128.569 292.356L131.321 292.213Z" fill="white"/>
<path d="M145.526 292.213V294.108L142.773 293.987L144.375 296.147L142.649 297.15L141.283 294.725L139.918 297.15L138.226 296.147L139.805 293.987L137.075 294.108V292.213L139.805 292.356L138.226 290.163L139.918 289.16L141.283 291.585L142.649 289.16L144.375 290.163L142.773 292.356L145.526 292.213Z" fill="white"/>
<path d="M169.579 292.213V294.108L166.826 293.987L168.428 296.147L166.702 297.15L165.337 294.725L163.972 297.15L162.28 296.147L163.859 293.987L161.129 294.108V292.213L163.859 292.356L162.28 290.163L163.972 289.16L165.337 291.585L166.702 289.16L168.428 290.163L166.826 292.356L169.579 292.213Z" fill="white"/>
<path d="M183.782 292.213V294.108L181.03 293.987L182.632 296.147L180.905 297.15L179.54 294.725L178.175 297.15L176.483 296.147L178.062 293.987L175.332 294.108V292.213L178.062 292.356L176.483 290.163L178.175 289.16L179.54 291.585L180.905 289.16L182.632 290.163L181.03 292.356L183.782 292.213Z" fill="white"/>
<path d="M197.999 292.213V294.108L195.246 293.987L196.848 296.147L195.122 297.15L193.757 294.725L192.392 297.15L190.7 296.147L192.279 293.987L189.549 294.108V292.213L192.279 292.356L190.7 290.163L192.392 289.16L193.757 291.585L195.122 289.16L196.848 290.163L195.246 292.356L197.999 292.213Z" fill="white"/>
<path d="M212.202 292.213V294.108L209.449 293.987L211.052 296.147L209.325 297.15L207.96 294.725L206.595 297.15L204.903 296.147L206.482 293.987L203.752 294.108V292.213L206.482 292.356L204.903 290.163L206.595 289.16L207.96 291.585L209.325 289.16L211.052 290.163L209.449 292.356L212.202 292.213Z" fill="white"/>
<path d="M236.256 292.213V294.108L233.503 293.987L235.105 296.147L233.379 297.15L232.014 294.725L230.649 297.15L228.956 296.147L230.536 293.987L227.806 294.108V292.213L230.536 292.356L228.956 290.163L230.649 289.16L232.014 291.585L233.379 289.16L235.105 290.163L233.503 292.356L236.256 292.213Z" fill="white"/>
<path d="M250.461 292.213V294.108L247.708 293.987L249.31 296.147L247.584 297.15L246.219 294.725L244.854 297.15L243.162 296.147L244.741 293.987L242.011 294.108V292.213L244.741 292.356L243.162 290.163L244.854 289.16L246.219 291.585L247.584 289.16L249.31 290.163L247.708 292.356L250.461 292.213Z" fill="white"/>
<path d="M264.664 292.213V294.108L261.911 293.987L263.513 296.147L261.787 297.15L260.422 294.725L259.057 297.15L257.365 296.147L258.944 293.987L256.214 294.108V292.213L258.944 292.356L257.365 290.163L259.057 289.16L260.422 291.585L261.787 289.16L263.513 290.163L261.911 292.356L264.664 292.213Z" fill="white"/>
<path d="M278.869 292.213V294.108L276.116 293.987L277.718 296.147L275.992 297.15L274.627 294.725L273.262 297.15L271.57 296.147L273.149 293.987L270.419 294.108V292.213L273.149 292.356L271.57 290.163L273.262 289.16L274.627 291.585L275.992 289.16L277.718 290.163L276.116 292.356L278.869 292.213Z" fill="white"/>
<path d="M293.807 310.264V308.016L301.287 300.555C303.284 298.604 304.288 296.929 304.288 295.53C304.288 294.362 303.927 293.458 303.193 292.808C302.471 292.158 301.58 291.827 300.531 291.827C298.534 291.827 297.078 292.753 296.165 294.604L293.807 293.249C294.472 291.904 295.397 290.89 296.582 290.196C297.767 289.502 299.075 289.16 300.508 289.16C302.28 289.16 303.825 289.733 305.145 290.879C306.454 292.025 307.12 293.557 307.12 295.497C307.12 297.591 305.856 299.872 303.34 302.34L297.936 307.608H307.526V310.275H293.807V310.264Z" fill="white"/>
<path d="M320.207 298.028C321.82 298.326 323.152 299.009 324.178 300.078C325.205 301.147 325.724 302.492 325.724 304.134C325.724 306.15 325.013 307.737 323.603 308.894C322.193 310.062 320.478 310.635 318.458 310.635C316.845 310.635 315.412 310.272 314.16 309.556C312.907 308.839 312.016 307.792 311.497 306.437L313.855 305.081C314.476 306.999 316.021 307.947 318.458 307.947C319.767 307.947 320.839 307.616 321.674 306.944C322.497 306.272 322.915 305.335 322.915 304.134C322.915 302.932 322.497 301.985 321.674 301.312C320.85 300.629 319.778 300.288 318.458 300.288H317.736L316.619 298.602L321.527 292.122H312.106V289.543H324.833L324.821 291.956L320.207 298.028Z" fill="white"/>
<path d="M346.664 303.748V306.316H344.092V310.25H341.271V306.316H330.463V303.748L338.067 289.543H341.091L333.487 303.748H341.271V297.885H344.092V303.748H346.664Z" fill="white"/>
<path d="M357.743 297.621C359.74 297.621 361.433 298.194 362.82 299.351C364.208 300.508 364.896 302.095 364.896 304.134C364.896 306.15 364.186 307.737 362.775 308.894C361.365 310.062 359.65 310.635 357.631 310.635C356.017 310.635 354.573 310.261 353.298 309.5C352.023 308.74 351.132 307.638 350.636 306.205L353.028 304.872C353.31 305.875 353.851 306.646 354.663 307.164C355.476 307.682 356.457 307.947 357.631 307.947C358.962 307.947 360.045 307.616 360.869 306.944C361.692 306.272 362.11 305.335 362.11 304.134C362.11 302.932 361.692 301.985 360.869 301.312C360.045 300.629 358.985 300.288 357.687 300.288H351.696L352.452 289.543H364.084V292.122H355.025L354.652 297.621H357.743Z" fill="white"/>
<path d="M96.2447 366.83C95.0037 366.83 93.9883 366.433 93.1759 365.629C92.3749 364.835 91.9688 363.844 91.9688 362.687C91.9688 361.529 92.3749 360.538 93.1759 359.744C93.977 358.951 95.0037 358.543 96.2447 358.543C96.9893 358.543 97.6775 358.719 98.3093 359.072C98.9411 359.425 99.4263 359.898 99.776 360.483L98.8283 361.022C98.5914 360.582 98.2416 360.229 97.7791 359.965C97.3165 359.7 96.7975 359.568 96.2447 359.568C95.297 359.568 94.5298 359.865 93.9318 360.46C93.3339 361.056 93.0406 361.794 93.0406 362.687C93.0406 363.568 93.3339 364.306 93.9318 364.902C94.5298 365.497 95.297 365.794 96.2447 365.794C96.8088 365.794 97.3165 365.662 97.7791 365.397C98.2416 365.133 98.5914 364.791 98.8283 364.351L99.776 364.88C99.4375 365.475 98.9411 365.949 98.3206 366.301C97.6888 366.654 97.0006 366.83 96.2447 366.83Z" fill="white"/>
<path d="M105.71 360.978H106.726V366.686H105.71V365.706C105.203 366.455 104.469 366.841 103.499 366.841C102.687 366.841 101.987 366.554 101.412 365.97C100.836 365.386 100.543 364.681 100.543 363.843C100.543 363.006 100.836 362.3 101.412 361.716C101.987 361.132 102.687 360.846 103.499 360.846C104.469 360.846 105.203 361.22 105.71 361.981V360.978ZM103.634 365.871C104.221 365.871 104.717 365.673 105.124 365.287C105.53 364.901 105.721 364.405 105.721 363.832C105.721 363.259 105.518 362.774 105.124 362.378C104.729 361.981 104.232 361.793 103.634 361.793C103.048 361.793 102.562 361.992 102.168 362.378C101.773 362.774 101.57 363.259 101.57 363.832C101.57 364.416 101.773 364.901 102.168 365.287C102.562 365.684 103.048 365.871 103.634 365.871Z" fill="white"/>
<path d="M109.287 361.935C109.625 361.23 110.223 360.877 111.115 360.877V361.913C110.618 361.891 110.189 362.023 109.828 362.299C109.467 362.585 109.287 363.037 109.287 363.654V366.685H108.271V360.976H109.287V361.935Z" fill="white"/>
<path d="M116.631 358.694H117.646V366.684H116.631V365.703C116.123 366.453 115.39 366.838 114.42 366.838C113.607 366.838 112.908 366.552 112.333 365.968C111.757 365.384 111.464 364.678 111.464 363.841C111.464 363.003 111.757 362.298 112.333 361.714C112.908 361.13 113.607 360.843 114.42 360.843C115.39 360.843 116.123 361.218 116.631 361.978V358.694ZM114.544 365.868C115.131 365.868 115.627 365.67 116.033 365.284C116.439 364.899 116.631 364.403 116.631 363.83C116.631 363.257 116.428 362.772 116.033 362.375C115.638 361.978 115.142 361.791 114.544 361.791C113.957 361.791 113.472 361.989 113.077 362.375C112.682 362.772 112.479 363.257 112.479 363.83C112.479 364.414 112.682 364.899 113.077 365.284C113.472 365.681 113.969 365.868 114.544 365.868Z" fill="white"/>
<path d="M127.27 358.694H128.342V366.684H127.27V363.091H123.299V366.684H122.216V358.694H123.299V362.089H127.27V358.694Z" fill="white"/>
<path d="M134.931 365.968C134.333 366.541 133.6 366.838 132.743 366.838C131.885 366.838 131.163 366.552 130.565 365.968C129.967 365.384 129.674 364.678 129.674 363.83C129.674 362.981 129.967 362.276 130.565 361.692C131.163 361.119 131.885 360.821 132.743 360.821C133.6 360.821 134.333 361.108 134.931 361.692C135.529 362.276 135.834 362.981 135.834 363.83C135.823 364.678 135.529 365.384 134.931 365.968ZM132.743 365.857C133.329 365.857 133.814 365.659 134.221 365.273C134.615 364.888 134.819 364.403 134.819 363.819C134.819 363.246 134.615 362.761 134.221 362.364C133.826 361.978 133.329 361.78 132.743 361.78C132.167 361.78 131.682 361.978 131.287 362.364C130.892 362.75 130.689 363.235 130.689 363.819C130.689 364.403 130.892 364.877 131.287 365.273C131.682 365.67 132.167 365.857 132.743 365.857Z" fill="white"/>
<path d="M137.029 366.686V358.354H138.045V366.686H137.029Z" fill="white"/>
<path d="M144.442 358.694H145.457V366.684H144.442V365.703C143.934 366.453 143.201 366.838 142.23 366.838C141.418 366.838 140.719 366.552 140.143 365.968C139.568 365.384 139.274 364.678 139.274 363.841C139.274 363.003 139.568 362.298 140.143 361.714C140.719 361.13 141.418 360.843 142.23 360.843C143.201 360.843 143.934 361.218 144.442 361.978V358.694ZM142.354 365.868C142.941 365.868 143.438 365.67 143.844 365.284C144.25 364.899 144.442 364.403 144.442 363.83C144.442 363.257 144.239 362.772 143.844 362.375C143.449 361.978 142.952 361.791 142.354 361.791C141.768 361.791 141.283 361.989 140.888 362.375C140.493 362.772 140.29 363.257 140.29 363.83C140.29 364.414 140.493 364.899 140.888 365.284C141.283 365.681 141.779 365.868 142.354 365.868Z" fill="white"/>
<path d="M147.714 364.28C147.816 364.787 148.053 365.184 148.436 365.47C148.809 365.746 149.282 365.889 149.835 365.889C150.602 365.889 151.167 365.613 151.516 365.051L152.385 365.525C151.821 366.385 150.963 366.815 149.813 366.815C148.888 366.815 148.132 366.528 147.556 365.966C146.981 365.404 146.688 364.677 146.688 363.817C146.688 362.958 146.97 362.241 147.545 361.668C148.109 361.095 148.854 360.809 149.756 360.809C150.614 360.809 151.313 361.106 151.855 361.69C152.396 362.285 152.667 362.991 152.667 363.817C152.667 363.96 152.656 364.115 152.633 364.258H147.714V364.28ZM149.734 361.756C149.192 361.756 148.741 361.911 148.38 362.208C148.019 362.506 147.804 362.913 147.714 363.409H151.618C151.528 362.869 151.313 362.462 150.963 362.175C150.614 361.9 150.196 361.756 149.734 361.756Z" fill="white"/>
<path d="M154.833 361.935C155.171 361.23 155.769 360.877 156.66 360.877V361.913C156.164 361.891 155.735 362.023 155.374 362.299C155.013 362.585 154.833 363.037 154.833 363.654V366.685H153.817V360.976H154.833V361.935Z" fill="white"/>
<path d="M163.476 360.833C164.164 360.833 164.705 361.042 165.123 361.472C165.54 361.891 165.743 362.464 165.743 363.191V366.696H164.728V363.246C164.728 362.784 164.604 362.42 164.344 362.166C164.085 361.913 163.735 361.781 163.284 361.781C162.776 361.781 162.37 361.935 162.054 362.244C161.738 362.552 161.592 363.026 161.592 363.665V366.696H160.576V360.987H161.592V361.814C161.998 361.153 162.63 360.833 163.476 360.833Z" fill="white"/>
<path d="M171.992 360.978H173.008V366.686H171.992V365.706C171.485 366.455 170.751 366.841 169.781 366.841C168.969 366.841 168.269 366.554 167.694 365.97C167.119 365.386 166.825 364.681 166.825 363.843C166.825 363.006 167.119 362.3 167.694 361.716C168.269 361.132 168.969 360.846 169.781 360.846C170.751 360.846 171.485 361.22 171.992 361.981V360.978ZM169.917 365.871C170.503 365.871 171 365.673 171.406 365.287C171.812 364.901 172.004 364.405 172.004 363.832C172.004 363.259 171.801 362.774 171.406 362.378C171.011 361.981 170.514 361.793 169.917 361.793C169.33 361.793 168.845 361.992 168.45 362.378C168.055 362.774 167.852 363.259 167.852 363.832C167.852 364.416 168.055 364.901 168.45 365.287C168.833 365.684 169.33 365.871 169.917 365.871Z" fill="white"/>
<path d="M180.861 360.833C181.515 360.833 182.046 361.042 182.452 361.45C182.858 361.869 183.061 362.431 183.061 363.136V366.685H182.046V363.169C182.046 362.728 181.933 362.387 181.696 362.144C181.459 361.902 181.154 361.781 180.759 361.781C180.319 361.781 179.97 361.924 179.71 362.211C179.451 362.497 179.315 362.927 179.315 363.522V366.696H178.3V363.18C178.3 362.739 178.187 362.398 177.961 362.155C177.736 361.913 177.442 361.792 177.059 361.792C176.63 361.792 176.269 361.935 175.987 362.222C175.705 362.508 175.558 362.949 175.558 363.522V366.696H174.543V360.987H175.558V361.748C175.953 361.142 176.54 360.833 177.296 360.833C178.086 360.833 178.661 361.153 179.011 361.803C179.439 361.153 180.049 360.833 180.861 360.833Z" fill="white"/>
<path d="M185.182 364.28C185.283 364.787 185.52 365.184 185.904 365.47C186.276 365.746 186.75 365.889 187.303 365.889C188.07 365.889 188.634 365.613 188.984 365.051L189.853 365.525C189.289 366.385 188.431 366.815 187.28 366.815C186.355 366.815 185.599 366.528 185.024 365.966C184.449 365.404 184.155 364.677 184.155 363.817C184.155 362.958 184.437 362.241 185.013 361.668C185.577 361.095 186.321 360.809 187.224 360.809C188.081 360.809 188.781 361.106 189.323 361.69C189.864 362.285 190.135 362.991 190.135 363.817C190.135 363.96 190.124 364.115 190.101 364.258H185.182V364.28ZM187.213 361.756C186.671 361.756 186.22 361.911 185.859 362.208C185.498 362.506 185.283 362.913 185.193 363.409H189.097C189.007 362.869 188.792 362.462 188.443 362.175C188.081 361.9 187.675 361.756 187.213 361.756Z" fill="white"/>
<path d="M100.645 378.17H102.303V390.391H100.96L94.5296 381.256V390.391H92.8711V378.17H94.1573L100.645 387.35V378.17Z" fill="white"/>
<path d="M112.367 389.286C111.453 390.167 110.336 390.608 109.027 390.608C107.719 390.608 106.602 390.167 105.699 389.286C104.785 388.404 104.334 387.313 104.334 386.024C104.334 384.734 104.785 383.643 105.699 382.762C106.613 381.88 107.719 381.439 109.027 381.439C110.336 381.439 111.453 381.88 112.367 382.762C113.281 383.643 113.743 384.734 113.743 386.024C113.743 387.313 113.292 388.404 112.367 389.286ZM109.027 389.132C109.919 389.132 110.675 388.834 111.284 388.239C111.893 387.644 112.198 386.905 112.198 386.024C112.198 385.142 111.893 384.404 111.284 383.809C110.675 383.214 109.93 382.916 109.027 382.916C108.147 382.916 107.403 383.214 106.793 383.809C106.184 384.404 105.88 385.142 105.88 386.024C105.88 386.905 106.184 387.644 106.793 388.239C107.403 388.834 108.147 389.132 109.027 389.132Z" fill="white"/>
<path d="M125.239 381.433C126.243 381.433 127.056 381.753 127.665 382.381C128.285 383.02 128.59 383.869 128.59 384.96V390.393H127.033V385.015C127.033 384.343 126.852 383.814 126.503 383.439C126.142 383.064 125.668 382.877 125.07 382.877C124.404 382.877 123.874 383.097 123.468 383.527C123.073 383.968 122.87 384.629 122.87 385.522V390.371H121.313V384.993C121.313 384.321 121.144 383.792 120.805 383.417C120.467 383.042 120.004 382.855 119.418 382.855C118.763 382.855 118.222 383.075 117.782 383.516C117.353 383.957 117.127 384.618 117.127 385.511V390.36H115.57V381.632H117.127V382.8C117.736 381.874 118.628 381.4 119.79 381.4C120.997 381.4 121.866 381.896 122.419 382.888C123.05 381.929 123.987 381.433 125.239 381.433Z" fill="white"/>
<path d="M138.17 381.664H139.726V390.392H138.17V388.893C137.391 390.05 136.263 390.623 134.785 390.623C133.533 390.623 132.472 390.183 131.581 389.29C130.701 388.397 130.261 387.317 130.261 386.028C130.261 384.739 130.701 383.659 131.581 382.766C132.461 381.873 133.533 381.433 134.785 381.433C136.263 381.433 137.391 382.006 138.17 383.163V381.664ZM134.988 389.147C135.891 389.147 136.646 388.849 137.256 388.243C137.865 387.637 138.17 386.899 138.17 386.017C138.17 385.135 137.865 384.386 137.256 383.791C136.646 383.196 135.891 382.887 134.988 382.887C134.097 382.887 133.341 383.185 132.732 383.791C132.122 384.386 131.818 385.135 131.818 386.017C131.818 386.899 132.122 387.648 132.732 388.243C133.341 388.849 134.085 389.147 134.988 389.147Z" fill="white"/>
<path d="M146.529 381.433C147.578 381.433 148.413 381.752 149.045 382.402C149.677 383.053 149.993 383.923 149.993 385.025V390.381H148.436V385.102C148.436 384.397 148.244 383.846 147.849 383.449C147.454 383.064 146.913 382.865 146.225 382.865C145.446 382.865 144.826 383.097 144.352 383.571C143.878 384.044 143.641 384.761 143.641 385.741V390.37H142.084V381.642H143.641V382.898C144.261 381.929 145.232 381.433 146.529 381.433Z" fill="white"/>
<path d="M168.496 378.169V390.391H166.849V380.836L162.753 387.492L162.55 387.481L158.444 380.825V390.38H156.785V378.158H158.658L162.663 384.649L166.634 378.158H168.496V378.169Z" fill="white"/>
<path d="M178.423 381.664H179.98V390.392H178.423V388.893C177.645 390.05 176.517 390.623 175.039 390.623C173.786 390.623 172.726 390.183 171.835 389.29C170.955 388.397 170.515 387.317 170.515 386.028C170.515 384.739 170.955 383.659 171.835 382.766C172.715 381.873 173.786 381.433 175.039 381.433C176.517 381.433 177.645 382.006 178.423 383.163V381.664ZM175.242 389.147C176.144 389.147 176.9 388.849 177.51 388.243C178.119 387.637 178.423 386.899 178.423 386.017C178.423 385.135 178.119 384.386 177.51 383.791C176.9 383.196 176.144 382.887 175.242 382.887C174.351 382.887 173.595 383.185 172.985 383.791C172.376 384.386 172.072 385.135 172.072 386.017C172.072 386.899 172.376 387.648 172.985 388.243C173.595 388.849 174.339 389.147 175.242 389.147Z" fill="white"/>
<path d="M186.784 381.433C187.833 381.433 188.668 381.752 189.3 382.402C189.932 383.053 190.248 383.923 190.248 385.025V390.381H188.691V385.102C188.691 384.397 188.499 383.846 188.104 383.449C187.709 383.064 187.168 382.865 186.479 382.865C185.701 382.865 185.08 383.097 184.607 383.571C184.133 384.044 183.896 384.761 183.896 385.741V390.37H182.339V381.642H183.896V382.898C184.516 381.929 185.487 381.433 186.784 381.433Z" fill="white"/>
<path d="M194.106 388.937H198.856V390.391H191.985V389.366L196.555 383.107H192.177V381.652H198.687V382.655L194.106 388.937Z" fill="white"/>
<path d="M207.735 389.286C206.821 390.167 205.704 390.608 204.396 390.608C203.087 390.608 201.97 390.167 201.067 389.286C200.153 388.404 199.702 387.313 199.702 386.024C199.702 384.734 200.153 383.643 201.067 382.762C201.981 381.88 203.087 381.439 204.396 381.439C205.704 381.439 206.821 381.88 207.735 382.762C208.649 383.643 209.111 384.734 209.111 386.024C209.111 387.313 208.649 388.404 207.735 389.286ZM204.396 389.132C205.287 389.132 206.043 388.834 206.652 388.239C207.261 387.644 207.566 386.905 207.566 386.024C207.566 385.142 207.261 384.404 206.652 383.809C206.043 383.214 205.298 382.916 204.396 382.916C203.516 382.916 202.771 383.214 202.162 383.809C201.552 384.404 201.248 385.142 201.248 386.024C201.248 386.905 201.552 387.644 202.162 388.239C202.771 388.834 203.516 389.132 204.396 389.132Z" fill="white"/>
<path d="M218.499 389.286C217.585 390.167 216.468 390.608 215.159 390.608C213.85 390.608 212.734 390.167 211.831 389.286C210.917 388.404 210.466 387.313 210.466 386.024C210.466 384.734 210.917 383.643 211.831 382.762C212.745 381.88 213.85 381.439 215.159 381.439C216.468 381.439 217.585 381.88 218.499 382.762C219.413 383.643 219.875 384.734 219.875 386.024C219.875 387.313 219.413 388.404 218.499 389.286ZM215.148 389.132C216.039 389.132 216.795 388.834 217.404 388.239C218.014 387.644 218.318 386.905 218.318 386.024C218.318 385.142 218.014 384.404 217.404 383.809C216.795 383.214 216.05 382.916 215.148 382.916C214.268 382.916 213.523 383.214 212.914 383.809C212.305 384.404 212 385.142 212 386.024C212 386.905 212.305 387.644 212.914 388.239C213.523 388.834 214.268 389.132 215.148 389.132Z" fill="white"/>
<path d="M223.271 383.128C223.779 382.048 224.715 381.508 226.058 381.508V383.095C225.29 383.062 224.636 383.26 224.094 383.69C223.542 384.12 223.271 384.814 223.271 385.773V390.401H221.714V381.673H223.271V383.128Z" fill="white"/>
<path d="M344.576 365.685H348.378V366.688H343.493V358.698H348.322V359.701H344.588V362.159H348.04V363.15H344.588V365.685H344.576Z" fill="white"/>
<path d="M354.651 366.686H353.455L351.808 364.526L350.161 366.686H348.965L351.199 363.744L349.089 360.978H350.296L351.797 362.961L353.308 360.978H354.504L352.395 363.744L354.651 366.686Z" fill="white"/>
<path d="M358.825 360.839C359.649 360.839 360.337 361.125 360.913 361.709C361.488 362.294 361.781 362.999 361.781 363.836C361.781 364.674 361.488 365.379 360.913 365.963C360.337 366.547 359.638 366.834 358.825 366.834C357.855 366.834 357.122 366.459 356.614 365.699V368.961H355.599V360.971H356.614V361.952C357.122 361.214 357.855 360.839 358.825 360.839ZM358.701 365.875C359.288 365.875 359.773 365.677 360.168 365.291C360.563 364.905 360.766 364.409 360.766 363.836C360.766 363.263 360.563 362.778 360.168 362.382C359.773 361.985 359.277 361.798 358.701 361.798C358.103 361.798 357.618 361.996 357.212 362.382C356.817 362.778 356.614 363.263 356.614 363.836C356.614 364.42 356.817 364.905 357.212 365.291C357.607 365.688 358.103 365.875 358.701 365.875Z" fill="white"/>
<path d="M363.508 359.945C363.316 359.945 363.147 359.879 363.012 359.746C362.876 359.614 362.809 359.46 362.809 359.284C362.809 359.096 362.876 358.942 363.012 358.81C363.147 358.677 363.305 358.611 363.508 358.611C363.7 358.611 363.858 358.677 363.982 358.81C364.117 358.942 364.185 359.096 364.185 359.284C364.185 359.471 364.117 359.625 363.982 359.746C363.858 359.879 363.7 359.945 363.508 359.945ZM363 366.689V360.981H364.016V366.689H363Z" fill="white"/>
<path d="M366.589 361.94C366.927 361.234 367.525 360.882 368.416 360.882V361.918C367.92 361.896 367.491 362.028 367.13 362.303C366.769 362.59 366.589 363.042 366.589 363.659V366.689H365.573V360.981H366.589V361.94Z" fill="white"/>
<path d="M373.605 360.978H374.688L372.307 367.039C372.059 367.689 371.709 368.174 371.258 368.515C370.807 368.857 370.299 369 369.712 368.967V368.041C370.423 368.097 370.953 367.711 371.281 366.873L371.393 366.664L368.844 360.978H369.927L371.879 365.353L373.605 360.978Z" fill="white"/>
<path d="M381.762 358.701C382.879 358.701 383.804 359.087 384.538 359.859C385.271 360.63 385.643 361.578 385.643 362.691C385.643 363.804 385.271 364.751 384.538 365.523C383.804 366.294 382.879 366.68 381.762 366.68H378.569V358.69H381.762V358.701ZM381.762 365.688C382.597 365.688 383.274 365.402 383.804 364.829C384.335 364.256 384.594 363.55 384.594 362.691C384.594 361.831 384.335 361.126 383.804 360.553C383.274 359.98 382.597 359.693 381.762 359.693H379.664V365.677H381.762V365.688Z" fill="white"/>
<path d="M391.702 360.979H392.718V366.687H391.702V365.707C391.195 366.456 390.461 366.842 389.491 366.842C388.679 366.842 387.979 366.555 387.404 365.971C386.828 365.387 386.535 364.682 386.535 363.844C386.535 363.007 386.828 362.301 387.404 361.717C387.979 361.133 388.679 360.847 389.491 360.847C390.461 360.847 391.195 361.221 391.702 361.982V360.979ZM389.615 365.872C390.202 365.872 390.698 365.674 391.104 365.288C391.511 364.902 391.702 364.406 391.702 363.833C391.702 363.26 391.499 362.775 391.104 362.378C390.71 361.982 390.213 361.794 389.615 361.794C389.028 361.794 388.543 361.993 388.148 362.378C387.754 362.775 387.551 363.26 387.551 363.833C387.551 364.417 387.754 364.902 388.148 365.288C388.543 365.685 389.028 365.872 389.615 365.872Z" fill="white"/>
<path d="M397.433 361.939H395.876V365.036C395.876 365.323 395.932 365.521 396.045 365.631C396.158 365.752 396.327 365.808 396.564 365.819C396.801 365.819 397.083 365.819 397.433 365.797V366.689C396.541 366.799 395.898 366.733 395.481 366.48C395.063 366.226 394.86 365.741 394.86 365.036V361.939H393.698V360.981H394.86V359.68L395.876 359.383V360.981H397.433V361.939Z" fill="white"/>
<path d="M399.058 364.285C399.159 364.792 399.396 365.188 399.78 365.475C400.152 365.751 400.626 365.894 401.179 365.894C401.946 365.894 402.51 365.618 402.86 365.056L403.729 365.53C403.165 366.39 402.307 366.819 401.156 366.819C400.231 366.819 399.475 366.533 398.9 365.971C398.325 365.409 398.031 364.682 398.031 363.822C398.031 362.962 398.313 362.246 398.889 361.673C399.453 361.1 400.197 360.813 401.1 360.813C401.957 360.813 402.657 361.111 403.198 361.695C403.74 362.29 404.011 362.995 404.011 363.822C404.011 363.965 404 364.12 403.977 364.263H399.058V364.285ZM401.077 361.761C400.536 361.761 400.085 361.915 399.724 362.213C399.363 362.511 399.148 362.918 399.058 363.414H402.962C402.871 362.874 402.657 362.467 402.307 362.18C401.957 361.904 401.551 361.761 401.077 361.761Z" fill="white"/>
<path d="M351.807 388.89C350.961 390.047 349.777 390.62 348.254 390.62C346.73 390.62 345.546 390.047 344.7 388.89C343.854 387.733 343.425 386.201 343.425 384.284C343.425 382.366 343.854 380.824 344.7 379.677C345.546 378.531 346.73 377.947 348.254 377.947C349.777 377.947 350.961 378.52 351.807 379.677C352.654 380.835 353.071 382.366 353.071 384.284C353.071 386.201 352.654 387.733 351.807 388.89ZM345.907 387.788C346.46 388.615 347.238 389.034 348.254 389.034C349.269 389.034 350.047 388.615 350.6 387.788C351.153 386.962 351.435 385.794 351.435 384.284C351.435 382.774 351.153 381.595 350.6 380.768C350.047 379.942 349.258 379.523 348.254 379.523C347.238 379.523 346.46 379.942 345.907 380.768C345.354 381.595 345.083 382.774 345.083 384.295C345.083 385.794 345.354 386.962 345.907 387.788Z" fill="white"/>
<path d="M354.289 390.391V389.068L358.7 384.671C359.885 383.514 360.472 382.533 360.472 381.707C360.472 381.024 360.257 380.484 359.829 380.098C359.4 379.712 358.87 379.525 358.26 379.525C357.076 379.525 356.218 380.076 355.688 381.167L354.289 380.362C354.684 379.569 355.225 378.974 355.925 378.566C356.624 378.158 357.392 377.96 358.238 377.96C359.287 377.96 360.201 378.302 360.968 378.974C361.747 379.646 362.13 380.561 362.13 381.696C362.13 382.93 361.386 384.274 359.896 385.729L356.703 388.837H362.356V390.413H354.289V390.391Z" fill="white"/>
<path d="M364.68 392.109L363.755 392.131L370.908 376.438L371.833 376.416L364.68 392.109Z" fill="white"/>
<path d="M378.151 383.169C379.11 383.346 379.888 383.742 380.498 384.371C381.107 384.999 381.412 385.792 381.412 386.762C381.412 387.952 380.994 388.889 380.159 389.572C379.324 390.255 378.309 390.597 377.124 390.597C376.165 390.597 375.319 390.388 374.586 389.958C373.841 389.528 373.322 388.922 373.018 388.117L374.417 387.313C374.789 388.437 375.691 389.01 377.136 389.01C377.914 389.01 378.546 388.812 379.031 388.415C379.516 388.018 379.764 387.467 379.764 386.762C379.764 386.057 379.516 385.495 379.031 385.098C378.546 384.701 377.914 384.492 377.136 384.492H376.707L376.041 383.5L378.941 379.676H373.379V378.155H380.881L380.87 379.577L378.151 383.169Z" fill="white"/>
<path d="M391.262 388.89C390.415 390.047 389.231 390.62 387.708 390.62C386.185 390.62 385 390.047 384.154 388.89C383.308 387.733 382.879 386.201 382.879 384.284C382.879 382.366 383.308 380.824 384.154 379.677C385 378.531 386.185 377.947 387.708 377.947C389.231 377.947 390.415 378.52 391.262 379.677C392.108 380.835 392.536 382.366 392.536 384.284C392.525 386.201 392.108 387.733 391.262 388.89ZM385.361 387.788C385.914 388.615 386.692 389.034 387.708 389.034C388.723 389.034 389.502 388.615 390.054 387.788C390.607 386.962 390.889 385.794 390.889 384.284C390.889 382.774 390.607 381.595 390.054 380.768C389.502 379.942 388.712 379.523 387.708 379.523C386.692 379.523 385.914 379.942 385.361 380.768C384.808 381.595 384.537 382.774 384.537 384.295C384.537 385.794 384.808 386.962 385.361 387.788Z" fill="white"/>
<path d="M416.49 228.318H412.687C411.503 228.318 410.611 228.638 410.104 229.773L402.793 245.962H407.96C407.96 245.962 408.818 243.791 409.009 243.317H415.305C415.463 243.934 415.903 245.962 415.903 245.962H420.472L416.49 228.318ZM410.431 239.713C410.826 238.688 412.36 234.765 412.36 234.765C412.36 234.765 412.789 233.729 413.026 233.09L413.353 234.611C413.353 234.611 414.312 238.81 414.504 239.713H410.431Z" fill="white"/>
<path d="M396.238 233.207C396.227 234.034 397.287 234.585 399.013 235.4C401.845 236.657 403.165 238.188 403.143 240.194C403.109 243.853 399.747 246.222 394.568 246.222C392.368 246.2 390.236 245.759 389.085 245.285L389.784 241.329L390.416 241.616C392.03 242.266 393.079 242.541 395.053 242.541C396.463 242.541 397.975 242.001 397.987 240.822C397.998 240.04 397.355 239.489 395.437 238.618C393.564 237.781 391.093 236.37 391.116 233.836C391.138 230.408 394.568 228.006 399.431 228.006C401.337 228.006 402.872 228.392 403.853 228.744L403.188 232.568L402.748 232.37C401.834 232.006 400.672 231.665 399.058 231.687C397.14 231.687 396.238 232.48 396.238 233.207Z" fill="white"/>
<path d="M389.085 228.303L385.994 245.946H381.086L384.166 228.303H389.085Z" fill="white"/>
<path d="M371.406 237.388C369.77 233.311 365.844 229.917 359.898 228.506L359.966 228.143H367.604C368.642 228.176 369.466 228.506 369.759 229.575L371.406 237.388Z" fill="white"/>
<path d="M382.169 228.318L374.407 245.929H369.206L364.795 231.228C367.965 233.211 370.662 236.352 371.609 238.534L372.128 240.352L376.957 228.318H382.169Z" fill="white"/>
<path d="M128.331 254.217H97.5529C95.6011 254.217 93.999 252.652 93.999 250.746V228.474C93.999 226.568 95.6011 225.003 97.5529 225.003H128.331C130.282 225.003 131.885 226.568 131.885 228.474V250.746C131.896 252.663 130.294 254.217 128.331 254.217Z" fill="#F6C859"/>
<path d="M108.587 250.319C108.429 250.319 108.271 250.231 108.192 250.088C108.08 249.878 108.17 249.614 108.384 249.515C109.016 249.195 109.885 248.6 110.381 247.564C111.013 246.253 110.855 244.831 110.584 244.71C110.516 244.677 110.246 244.809 110.088 244.897C109.67 245.107 109.106 245.393 108.441 245.162C107.786 244.941 107.47 244.379 107.324 244.104C106.331 242.329 106.026 237.701 107.075 235.398C107.425 234.637 107.899 234.186 108.486 234.053C109.084 233.921 109.569 234.164 109.964 234.362C110.291 234.527 110.449 234.593 110.55 234.538C110.956 234.296 110.945 232.83 110.381 231.662C109.885 230.626 109.016 230.031 108.384 229.711C108.17 229.601 108.08 229.348 108.192 229.138C108.305 228.929 108.565 228.841 108.779 228.951C109.535 229.326 110.562 230.042 111.171 231.287C111.769 232.522 112.051 234.648 111.002 235.266C110.471 235.574 109.964 235.321 109.558 235.122C109.253 234.968 108.96 234.825 108.677 234.891C108.294 234.979 108.023 235.409 107.865 235.761C106.951 237.767 107.211 242.142 108.08 243.707C108.226 243.971 108.407 244.258 108.711 244.368C109.005 244.467 109.287 244.346 109.682 244.148C110.065 243.96 110.494 243.74 110.956 243.96C111.938 244.423 111.87 246.495 111.16 247.961C110.55 249.206 109.524 249.922 108.768 250.297C108.723 250.297 108.655 250.319 108.587 250.319Z" fill="#7D662D"/>
<path d="M107.267 236.172H99.3697C99.1328 236.172 98.9297 235.985 98.9297 235.742C98.9297 235.5 99.1215 235.312 99.3697 235.312H107.267C107.504 235.312 107.707 235.5 107.707 235.742C107.707 235.985 107.515 236.172 107.267 236.172Z" fill="#7D662D"/>
<path d="M107.267 243.888H99.3697C99.1328 243.888 98.9297 243.701 98.9297 243.458C98.9297 243.227 99.1215 243.028 99.3697 243.028H107.267C107.504 243.028 107.707 243.216 107.707 243.458C107.707 243.701 107.515 243.888 107.267 243.888Z" fill="#7D662D"/>
<path d="M117.805 250.326C117.737 250.326 117.669 250.315 117.602 250.282C116.846 249.907 115.819 249.191 115.21 247.946C114.499 246.48 114.431 244.419 115.413 243.945C115.876 243.725 116.304 243.945 116.688 244.133C117.083 244.331 117.365 244.452 117.658 244.353C117.985 244.243 118.177 243.901 118.29 243.692C119.17 242.127 119.429 237.763 118.504 235.746C118.346 235.405 118.076 234.964 117.692 234.876C117.455 234.821 117.308 234.589 117.365 234.358C117.421 234.126 117.658 233.983 117.895 234.038C118.482 234.17 118.956 234.622 119.305 235.394C120.355 237.686 120.05 242.314 119.057 244.1C118.91 244.375 118.583 244.937 117.94 245.157C117.275 245.378 116.71 245.102 116.293 244.893C116.135 244.816 115.864 244.684 115.797 244.706C115.537 244.827 115.368 246.248 116 247.56C116.496 248.596 117.365 249.191 117.997 249.51C118.211 249.621 118.301 249.874 118.188 250.083C118.109 250.238 117.963 250.326 117.805 250.326Z" fill="#7D662D"/>
<path d="M116.045 234.465C115.865 234.465 115.695 234.354 115.628 234.167C114.691 231.412 116.891 229.285 117.602 228.932C117.817 228.822 118.087 228.91 118.189 229.12C118.302 229.329 118.211 229.594 117.997 229.693C117.681 229.847 115.662 231.544 116.463 233.892C116.542 234.112 116.418 234.354 116.181 234.432C116.135 234.454 116.09 234.465 116.045 234.465Z" fill="#7D662D"/>
<path d="M127.011 236.172H119.114C118.877 236.172 118.674 235.985 118.674 235.742C118.674 235.5 118.866 235.312 119.114 235.312H127.011C127.248 235.312 127.451 235.5 127.451 235.742C127.451 235.985 127.26 236.172 127.011 236.172Z" fill="#7D662D"/>
<path d="M127.011 243.888H119.114C118.877 243.888 118.674 243.701 118.674 243.458C118.674 243.227 118.866 243.028 119.114 243.028H127.011C127.248 243.028 127.451 243.216 127.451 243.458C127.451 243.701 127.26 243.888 127.011 243.888Z" fill="#7D662D"/>
<path d="M480 126.176V350.824C480 365.275 467.996 377 453.201 377H58.7989C44.0042 377.013 32 365.287 32 350.836V126.176C32 111.725 44.0042 100 58.7989 100H453.201C458.492 100 463.442 101.504 467.601 104.114C475.077 108.743 480 116.894 480 126.176Z" fill="url(#paint1_linear_887_7918)"/>
<path d="M77.3978 217.166V219.377L74.1861 219.236L76.0552 221.756L74.0414 222.926L72.4487 220.097L70.856 222.926L68.8816 221.756L70.7244 219.236L67.5391 219.377V217.166L70.7244 217.333L68.8816 214.774L70.856 213.604L72.4487 216.433L74.0414 213.604L76.0552 214.774L74.1861 217.333L77.3978 217.166Z" fill="white"/>
<path d="M93.9701 217.166V219.377L90.7584 219.236L92.6275 221.756L90.6136 222.926L89.021 220.097L87.4283 222.926L85.4539 221.756L87.2967 219.236L84.1113 219.377V217.166L87.2967 217.333L85.4539 214.774L87.4283 213.604L89.021 216.433L90.6136 213.604L92.6275 214.774L90.7584 217.333L93.9701 217.166Z" fill="white"/>
<path d="M110.541 217.166V219.377L107.33 219.236L109.199 221.756L107.185 222.926L105.592 220.097L104 222.926L102.025 221.756L103.868 219.236L100.683 219.377V217.166L103.868 217.333L102.025 214.774L104 213.604L105.592 216.433L107.185 213.604L109.199 214.774L107.33 217.333L110.541 217.166Z" fill="white"/>
<path d="M127.113 217.166V219.377L123.901 219.236L125.77 221.756L123.756 222.926L122.164 220.097L120.571 222.926L118.596 221.756L120.439 219.236L117.254 219.377V217.166L120.439 217.333L118.596 214.774L120.571 213.604L122.164 216.433L123.756 213.604L125.77 214.774L123.901 217.333L127.113 217.166Z" fill="white"/>
<path d="M155.175 217.166V219.377L151.963 219.236L153.833 221.756L151.819 222.926L150.226 220.097L148.633 222.926L146.659 221.756L148.502 219.236L145.316 219.377V217.166L148.502 217.333L146.659 214.774L148.633 213.604L150.226 216.433L151.819 213.604L153.833 214.774L151.963 217.333L155.175 217.166Z" fill="white"/>
<path d="M171.746 217.166V219.377L168.535 219.236L170.404 221.756L168.39 222.926L166.797 220.097L165.205 222.926L163.23 221.756L165.073 219.236L161.888 219.377V217.166L165.073 217.333L163.23 214.774L165.205 213.604L166.797 216.433L168.39 213.604L170.404 214.774L168.535 217.333L171.746 217.166Z" fill="white"/>
<path d="M188.331 217.166V219.377L185.12 219.236L186.989 221.756L184.975 222.926L183.382 220.097L181.79 222.926L179.815 221.756L181.658 219.236L178.473 219.377V217.166L181.658 217.333L179.815 214.774L181.79 213.604L183.382 216.433L184.975 213.604L186.989 214.774L185.12 217.333L188.331 217.166Z" fill="white"/>
<path d="M204.904 217.166V219.377L201.692 219.236L203.561 221.756L201.547 222.926L199.955 220.097L198.362 222.926L196.387 221.756L198.23 219.236L195.045 219.377V217.166L198.23 217.333L196.387 214.774L198.362 213.604L199.955 216.433L201.547 213.604L203.561 214.774L201.692 217.333L204.904 217.166Z" fill="white"/>
<path d="M232.966 217.166V219.377L229.755 219.236L231.624 221.756L229.61 222.926L228.017 220.097L226.424 222.926L224.45 221.756L226.293 219.236L223.107 219.377V217.166L226.293 217.333L224.45 214.774L226.424 213.604L228.017 216.433L229.61 213.604L231.624 214.774L229.755 217.333L232.966 217.166Z" fill="white"/>
<path d="M249.538 217.166V219.377L246.327 219.236L248.196 221.756L246.182 222.926L244.589 220.097L242.997 222.926L241.022 221.756L242.865 219.236L239.68 219.377V217.166L242.865 217.333L241.022 214.774L242.997 213.604L244.589 216.433L246.182 213.604L248.196 214.774L246.327 217.333L249.538 217.166Z" fill="white"/>
<path d="M266.109 217.166V219.377L262.897 219.236L264.766 221.756L262.752 222.926L261.16 220.097L259.567 222.926L257.593 221.756L259.435 219.236L256.25 219.377V217.166L259.435 217.333L257.593 214.774L259.567 213.604L261.16 216.433L262.752 213.604L264.766 214.774L262.897 217.333L266.109 217.166Z" fill="white"/>
<path d="M282.681 217.166V219.377L279.469 219.236L281.338 221.756L279.325 222.926L277.732 220.097L276.139 222.926L274.165 221.756L276.008 219.236L272.822 219.377V217.166L276.008 217.333L274.165 214.774L276.139 213.604L277.732 216.433L279.325 213.604L281.338 214.774L279.469 217.333L282.681 217.166Z" fill="white"/>
<path d="M300.107 238.225V235.602L308.834 226.898C311.164 224.623 312.335 222.669 312.335 221.036C312.335 219.673 311.914 218.619 311.059 217.86C310.216 217.102 309.176 216.716 307.952 216.716C305.623 216.716 303.925 217.796 302.858 219.956L300.107 218.374C300.884 216.806 301.963 215.623 303.345 214.813C304.727 214.003 306.254 213.604 307.926 213.604C309.992 213.604 311.796 214.273 313.336 215.61C314.863 216.947 315.639 218.734 315.639 220.997C315.639 223.44 314.165 226.101 311.23 228.981L304.925 235.127H316.113V238.238H300.107V238.225Z" fill="white"/>
<path d="M330.908 223.951C332.79 224.299 334.343 225.096 335.541 226.343C336.739 227.59 337.344 229.159 337.344 231.074C337.344 233.427 336.515 235.278 334.87 236.628C333.224 237.991 331.223 238.66 328.867 238.66C326.985 238.66 325.313 238.235 323.852 237.4C322.391 236.564 321.352 235.343 320.746 233.761L323.497 232.18C324.221 234.417 326.024 235.523 328.867 235.523C330.394 235.523 331.645 235.137 332.619 234.353C333.58 233.568 334.067 232.476 334.067 231.074C334.067 229.673 333.58 228.567 332.619 227.783C331.658 226.986 330.407 226.587 328.867 226.587H328.025L326.722 224.62L332.448 217.06H321.457V214.052H336.304L336.291 216.867L330.908 223.951Z" fill="white"/>
<path d="M361.774 230.624V233.62H358.773V238.21H355.483V233.62H342.873V230.624L351.745 214.052H355.272L346.401 230.624H355.483V223.784H358.773V230.624H361.774Z" fill="white"/>
<path d="M374.701 223.476C377.03 223.476 379.005 224.144 380.624 225.494C382.243 226.844 383.046 228.696 383.046 231.074C383.046 233.427 382.216 235.278 380.571 236.628C378.926 237.991 376.925 238.66 374.569 238.66C372.687 238.66 371.002 238.223 369.515 237.335C368.027 236.448 366.987 235.163 366.408 233.491L369.199 231.936C369.528 233.106 370.16 234.006 371.107 234.61C372.055 235.214 373.2 235.523 374.569 235.523C376.122 235.523 377.386 235.137 378.347 234.353C379.307 233.568 379.795 232.476 379.795 231.074C379.795 229.673 379.307 228.567 378.347 227.783C377.386 226.986 376.148 226.587 374.635 226.587H367.645L368.527 214.052H382.098V217.06H371.528L371.094 223.476H374.701Z" fill="white"/>
<path d="M69.6195 304.22C68.1716 304.22 66.987 303.757 66.0393 302.819C65.1047 301.893 64.6309 300.736 64.6309 299.386C64.6309 298.036 65.1047 296.879 66.0393 295.953C66.9738 295.027 68.1716 294.552 69.6195 294.552C70.4882 294.552 71.2911 294.757 72.0282 295.169C72.7653 295.58 73.3313 296.133 73.7393 296.815L72.6337 297.445C72.3573 296.93 71.9492 296.519 71.4096 296.21C70.8699 295.902 70.2644 295.747 69.6195 295.747C68.5138 295.747 67.6188 296.095 66.9211 296.789C66.2235 297.483 65.8813 298.345 65.8813 299.386C65.8813 300.414 66.2235 301.276 66.9211 301.97C67.6188 302.664 68.5138 303.012 69.6195 303.012C70.2776 303.012 70.8699 302.857 71.4096 302.549C71.9492 302.24 72.3573 301.842 72.6337 301.327L73.7393 301.944C73.3445 302.639 72.7653 303.192 72.0414 303.603C71.3043 304.014 70.5013 304.22 69.6195 304.22Z" fill="white"/>
<path d="M80.6622 297.393H81.8469V304.052H80.6622V302.908C80.0699 303.782 79.2143 304.232 78.0824 304.232C77.1347 304.232 76.3186 303.898 75.6473 303.217C74.976 302.535 74.6338 301.712 74.6338 300.735C74.6338 299.758 74.976 298.935 75.6473 298.254C76.3186 297.573 77.1347 297.238 78.0824 297.238C79.2143 297.238 80.0699 297.675 80.6622 298.563V297.393ZM78.2403 303.101C78.9248 303.101 79.5039 302.87 79.9778 302.42C80.4516 301.97 80.6754 301.391 80.6754 300.722C80.6754 300.054 80.4385 299.488 79.9778 299.025C79.5171 298.563 78.9379 298.344 78.2403 298.344C77.5559 298.344 76.9899 298.575 76.5292 299.025C76.0685 299.488 75.8316 300.054 75.8316 300.722C75.8316 301.404 76.0685 301.97 76.5292 302.42C76.9899 302.882 77.5559 303.101 78.2403 303.101Z" fill="white"/>
<path d="M84.835 298.509C85.2299 297.686 85.9275 297.274 86.9673 297.274V298.483C86.3882 298.457 85.888 298.612 85.4668 298.933C85.0456 299.267 84.835 299.794 84.835 300.514V304.05H83.6504V297.39H84.835V298.509Z" fill="white"/>
<path d="M93.4034 294.729H94.5881V304.05H93.4034V302.905C92.8111 303.78 91.9556 304.23 90.8236 304.23C89.8759 304.23 89.0598 303.895 88.3885 303.214C87.7172 302.533 87.375 301.71 87.375 300.733C87.375 299.756 87.7172 298.933 88.3885 298.251C89.0598 297.57 89.8759 297.236 90.8236 297.236C91.9556 297.236 92.8111 297.673 93.4034 298.56V294.729ZM90.9684 303.098C91.6528 303.098 92.232 302.867 92.7058 302.417C93.1797 301.967 93.4034 301.388 93.4034 300.72C93.4034 300.051 93.1665 299.486 92.7058 299.023C92.2451 298.56 91.666 298.341 90.9684 298.341C90.2839 298.341 89.7179 298.573 89.2572 299.023C88.7966 299.486 88.5596 300.051 88.5596 300.72C88.5596 301.401 88.7966 301.967 89.2572 302.417C89.7179 302.88 90.2971 303.098 90.9684 303.098Z" fill="white"/>
<path d="M105.817 294.729H107.067V304.05H105.817V299.858H101.184V304.05H99.9199V294.729H101.184V298.688H105.817V294.729Z" fill="white"/>
<path d="M114.755 303.214C114.057 303.883 113.202 304.23 112.201 304.23C111.201 304.23 110.359 303.895 109.661 303.214C108.963 302.533 108.621 301.71 108.621 300.72C108.621 299.73 108.963 298.907 109.661 298.226C110.359 297.557 111.201 297.21 112.201 297.21C113.202 297.21 114.057 297.544 114.755 298.226C115.452 298.907 115.808 299.73 115.808 300.72C115.795 301.71 115.452 302.533 114.755 303.214ZM112.201 303.086C112.886 303.086 113.452 302.854 113.926 302.404C114.386 301.954 114.623 301.388 114.623 300.707C114.623 300.038 114.386 299.473 113.926 299.01C113.465 298.56 112.886 298.328 112.201 298.328C111.53 298.328 110.964 298.56 110.503 299.01C110.043 299.46 109.806 300.026 109.806 300.707C109.806 301.388 110.043 301.941 110.503 302.404C110.964 302.867 111.53 303.086 112.201 303.086Z" fill="white"/>
<path d="M117.201 304.052V294.332H118.386V304.052H117.201Z" fill="white"/>
<path d="M125.849 294.729H127.033V304.05H125.849V302.905C125.256 303.78 124.401 304.23 123.269 304.23C122.321 304.23 121.505 303.895 120.834 303.214C120.163 302.533 119.82 301.71 119.82 300.733C119.82 299.756 120.163 298.933 120.834 298.251C121.505 297.57 122.321 297.236 123.269 297.236C124.401 297.236 125.256 297.673 125.849 298.56V294.729ZM123.414 303.098C124.098 303.098 124.677 302.867 125.151 302.417C125.625 301.967 125.849 301.388 125.849 300.72C125.849 300.051 125.612 299.486 125.151 299.023C124.69 298.56 124.111 298.341 123.414 298.341C122.729 298.341 122.163 298.573 121.703 299.023C121.242 299.486 121.005 300.051 121.005 300.72C121.005 301.401 121.242 301.967 121.703 302.417C122.163 302.88 122.742 303.098 123.414 303.098Z" fill="white"/>
<path d="M129.667 301.245C129.785 301.837 130.061 302.299 130.509 302.634C130.943 302.955 131.496 303.122 132.141 303.122C133.036 303.122 133.694 302.801 134.102 302.145L135.116 302.698C134.458 303.701 133.457 304.202 132.115 304.202C131.035 304.202 130.154 303.868 129.482 303.212C128.811 302.557 128.469 301.708 128.469 300.705C128.469 299.702 128.798 298.867 129.469 298.198C130.127 297.53 130.996 297.195 132.049 297.195C133.049 297.195 133.865 297.542 134.497 298.224C135.129 298.918 135.445 299.741 135.445 300.705C135.445 300.872 135.432 301.052 135.405 301.22H129.667V301.245ZM132.023 298.301C131.391 298.301 130.864 298.481 130.443 298.828C130.022 299.175 129.772 299.651 129.667 300.23H134.221C134.115 299.6 133.865 299.124 133.457 298.79C133.049 298.468 132.562 298.301 132.023 298.301Z" fill="white"/>
<path d="M137.972 298.509C138.367 297.686 139.064 297.274 140.104 297.274V298.483C139.525 298.457 139.025 298.612 138.604 298.933C138.182 299.267 137.972 299.794 137.972 300.514V304.05H136.787V297.39H137.972V298.509Z" fill="white"/>
<path d="M148.055 297.224C148.858 297.224 149.489 297.468 149.976 297.969C150.463 298.458 150.7 299.126 150.7 299.975V304.063H149.516V300.039C149.516 299.499 149.371 299.075 149.068 298.779C148.765 298.484 148.357 298.329 147.831 298.329C147.239 298.329 146.765 298.509 146.396 298.869C146.028 299.229 145.857 299.782 145.857 300.528V304.063H144.672V297.404H145.857V298.368C146.33 297.596 147.067 297.224 148.055 297.224Z" fill="white"/>
<path d="M157.992 297.393H159.177V304.052H157.992V302.908C157.4 303.782 156.544 304.232 155.412 304.232C154.465 304.232 153.649 303.898 152.977 303.217C152.306 302.535 151.964 301.712 151.964 300.735C151.964 299.758 152.306 298.935 152.977 298.254C153.649 297.573 154.465 297.238 155.412 297.238C156.544 297.238 157.4 297.675 157.992 298.563V297.393ZM155.57 303.101C156.255 303.101 156.834 302.87 157.308 302.42C157.782 301.97 158.005 301.391 158.005 300.722C158.005 300.054 157.769 299.488 157.308 299.025C156.847 298.563 156.268 298.344 155.57 298.344C154.886 298.344 154.32 298.575 153.859 299.025C153.399 299.488 153.162 300.054 153.162 300.722C153.162 301.404 153.399 301.97 153.859 302.42C154.307 302.882 154.886 303.101 155.57 303.101Z" fill="white"/>
<path d="M168.338 297.224C169.101 297.224 169.72 297.468 170.194 297.944C170.668 298.432 170.905 299.088 170.905 299.911V304.051H169.72V299.949C169.72 299.435 169.588 299.036 169.312 298.754C169.035 298.471 168.68 298.329 168.219 298.329C167.706 298.329 167.298 298.496 166.995 298.831C166.692 299.165 166.535 299.666 166.535 300.361V304.063H165.35V299.962C165.35 299.448 165.218 299.049 164.955 298.766C164.692 298.484 164.35 298.342 163.902 298.342C163.402 298.342 162.981 298.509 162.652 298.844C162.323 299.178 162.151 299.692 162.151 300.361V304.063H160.967V297.404H162.151V298.291C162.612 297.584 163.297 297.224 164.178 297.224C165.1 297.224 165.771 297.596 166.179 298.355C166.679 297.596 167.39 297.224 168.338 297.224Z" fill="white"/>
<path d="M173.379 301.245C173.498 301.837 173.774 302.299 174.222 302.634C174.656 302.955 175.209 303.122 175.854 303.122C176.749 303.122 177.407 302.801 177.815 302.145L178.829 302.698C178.171 303.701 177.17 304.202 175.828 304.202C174.748 304.202 173.866 303.868 173.195 303.212C172.524 302.557 172.182 301.708 172.182 300.705C172.182 299.702 172.511 298.867 173.182 298.198C173.84 297.53 174.709 297.195 175.762 297.195C176.762 297.195 177.578 297.542 178.21 298.224C178.842 298.918 179.158 299.741 179.158 300.705C179.158 300.872 179.145 301.052 179.118 301.22H173.379V301.245ZM175.749 298.301C175.117 298.301 174.59 298.481 174.169 298.828C173.748 299.175 173.498 299.651 173.393 300.23H177.947C177.842 299.6 177.591 299.124 177.183 298.79C176.762 298.468 176.288 298.301 175.749 298.301Z" fill="white"/>
<path d="M74.7526 317.45H76.6875V331.708H75.1211L67.6185 321.05V331.708H65.6836V317.45H67.1841L74.7526 328.16V317.45Z" fill="white"/>
<path d="M88.4284 330.419C87.3622 331.447 86.0591 331.962 84.5323 331.962C83.0054 331.962 81.7023 331.447 80.6493 330.419C79.5831 329.39 79.0566 328.117 79.0566 326.613C79.0566 325.109 79.5831 323.836 80.6493 322.807C81.7155 321.779 83.0054 321.265 84.5323 321.265C86.0591 321.265 87.3622 321.779 88.4284 322.807C89.4945 323.836 90.0342 325.109 90.0342 326.613C90.0342 328.117 89.5077 329.39 88.4284 330.419ZM84.5323 330.239C85.5721 330.239 86.454 329.892 87.1648 329.197C87.8755 328.503 88.2309 327.642 88.2309 326.613C88.2309 325.585 87.8755 324.723 87.1648 324.029C86.454 323.335 85.5853 322.987 84.5323 322.987C83.5056 322.987 82.6369 323.335 81.9261 324.029C81.2153 324.723 80.8599 325.585 80.8599 326.613C80.8599 327.642 81.2153 328.503 81.9261 329.197C82.6369 329.892 83.5056 330.239 84.5323 330.239Z" fill="white"/>
<path d="M103.446 321.257C104.618 321.257 105.565 321.63 106.276 322.363C107 323.109 107.356 324.099 107.356 325.371V331.71H105.539V325.436C105.539 324.652 105.329 324.034 104.921 323.597C104.499 323.16 103.946 322.942 103.249 322.942C102.472 322.942 101.854 323.199 101.38 323.7C100.919 324.214 100.682 324.986 100.682 326.027V331.684H98.8657V325.41C98.8657 324.626 98.6683 324.009 98.2734 323.572C97.8786 323.134 97.3389 322.916 96.6544 322.916C95.891 322.916 95.2592 323.173 94.7459 323.687C94.2457 324.202 93.9824 324.973 93.9824 326.014V331.671H92.166V321.489H93.9824V322.852C94.6932 321.772 95.7331 321.219 97.0888 321.219C98.4972 321.219 99.5107 321.797 100.156 322.954C100.893 321.836 101.985 321.257 103.446 321.257Z" fill="white"/>
<path d="M118.532 321.527H120.348V331.709H118.532V329.961C117.623 331.311 116.307 331.979 114.583 331.979C113.122 331.979 111.885 331.465 110.845 330.424C109.818 329.382 109.305 328.122 109.305 326.618C109.305 325.114 109.818 323.854 110.845 322.813C111.871 321.771 113.122 321.257 114.583 321.257C116.307 321.257 117.623 321.925 118.532 323.275V321.527ZM114.82 330.257C115.873 330.257 116.755 329.909 117.465 329.202C118.176 328.495 118.532 327.634 118.532 326.605C118.532 325.577 118.176 324.702 117.465 324.008C116.755 323.314 115.873 322.954 114.82 322.954C113.78 322.954 112.898 323.301 112.187 324.008C111.477 324.702 111.121 325.577 111.121 326.605C111.121 327.634 111.477 328.508 112.187 329.202C112.898 329.909 113.767 330.257 114.82 330.257Z" fill="white"/>
<path d="M128.285 321.257C129.509 321.257 130.483 321.63 131.22 322.388C131.957 323.147 132.326 324.162 132.326 325.448V331.697H130.509V325.538C130.509 324.715 130.285 324.072 129.825 323.61C129.364 323.16 128.732 322.928 127.929 322.928C127.021 322.928 126.297 323.198 125.744 323.751C125.191 324.304 124.915 325.14 124.915 326.284V331.684H123.099V321.501H124.915V322.967C125.639 321.835 126.771 321.257 128.285 321.257Z" fill="white"/>
<path d="M153.913 317.449V331.708H151.991V320.561L147.213 328.326L146.976 328.313L142.185 320.548V331.695H140.25V317.437H142.435L147.108 325.009L151.741 317.437H153.913V317.449Z" fill="white"/>
<path d="M165.495 321.527H167.311V331.709H165.495V329.961C164.586 331.311 163.27 331.979 161.546 331.979C160.085 331.979 158.847 331.465 157.808 330.424C156.781 329.382 156.268 328.122 156.268 326.618C156.268 325.114 156.781 323.854 157.808 322.813C158.834 321.771 160.085 321.257 161.546 321.257C163.27 321.257 164.586 321.925 165.495 323.275V321.527ZM161.783 330.257C162.836 330.257 163.718 329.909 164.428 329.202C165.139 328.495 165.495 327.634 165.495 326.605C165.495 325.577 165.139 324.702 164.428 324.008C163.718 323.314 162.836 322.954 161.783 322.954C160.743 322.954 159.861 323.301 159.15 324.008C158.439 324.702 158.084 325.577 158.084 326.605C158.084 327.634 158.439 328.508 159.15 329.202C159.861 329.909 160.73 330.257 161.783 330.257Z" fill="white"/>
<path d="M175.249 321.257C176.473 321.257 177.447 321.63 178.184 322.388C178.921 323.147 179.289 324.162 179.289 325.448V331.697H177.473V325.538C177.473 324.715 177.249 324.072 176.789 323.61C176.328 323.16 175.696 322.928 174.893 322.928C173.985 322.928 173.261 323.198 172.708 323.751C172.155 324.304 171.879 325.14 171.879 326.284V331.684H170.062V321.501H171.879V322.967C172.603 321.835 173.735 321.257 175.249 321.257Z" fill="white"/>
<path d="M183.791 330.011H189.332V331.708H181.316V330.512L186.647 323.21H181.54V321.513H189.135V322.683L183.791 330.011Z" fill="white"/>
<path d="M199.692 330.419C198.626 331.447 197.323 331.962 195.796 331.962C194.269 331.962 192.966 331.447 191.913 330.419C190.847 329.39 190.32 328.117 190.32 326.613C190.32 325.109 190.847 323.836 191.913 322.807C192.979 321.779 194.269 321.265 195.796 321.265C197.323 321.265 198.626 321.779 199.692 322.807C200.758 323.836 201.298 325.109 201.298 326.613C201.298 328.117 200.758 329.39 199.692 330.419ZM195.796 330.239C196.836 330.239 197.718 329.892 198.428 329.197C199.139 328.503 199.495 327.642 199.495 326.613C199.495 325.585 199.139 324.723 198.428 324.029C197.718 323.335 196.849 322.987 195.796 322.987C194.769 322.987 193.901 323.335 193.19 324.029C192.479 324.723 192.124 325.585 192.124 326.613C192.124 327.642 192.479 328.503 193.19 329.197C193.901 329.892 194.769 330.239 195.796 330.239Z" fill="white"/>
<path d="M212.249 330.419C211.183 331.447 209.879 331.962 208.353 331.962C206.826 331.962 205.523 331.447 204.47 330.419C203.403 329.39 202.877 328.117 202.877 326.613C202.877 325.109 203.403 323.836 204.47 322.807C205.536 321.779 206.826 321.265 208.353 321.265C209.879 321.265 211.183 321.779 212.249 322.807C213.315 323.836 213.855 325.109 213.855 326.613C213.855 328.117 213.315 329.39 212.249 330.419ZM208.339 330.239C209.379 330.239 210.261 329.892 210.972 329.197C211.683 328.503 212.038 327.642 212.038 326.613C212.038 325.585 211.683 324.723 210.972 324.029C210.261 323.335 209.392 322.987 208.339 322.987C207.313 322.987 206.444 323.335 205.733 324.029C205.022 324.723 204.667 325.585 204.667 326.613C204.667 327.642 205.022 328.503 205.733 329.197C206.444 329.892 207.313 330.239 208.339 330.239Z" fill="white"/>
<path d="M217.816 323.235C218.409 321.975 219.501 321.345 221.068 321.345V323.196C220.173 323.158 219.409 323.389 218.777 323.89C218.132 324.392 217.816 325.202 217.816 326.32V331.72H216V321.538H217.816V323.235Z" fill="white"/>
<path d="M359.34 302.885H363.776V304.055H358.076V294.733H363.71V295.903H359.353V298.77H363.381V299.928H359.353V302.885H359.34Z" fill="white"/>
<path d="M371.093 304.052H369.698L367.776 301.532L365.854 304.052H364.459L367.065 300.62L364.604 297.393H366.012L367.763 299.707L369.527 297.393H370.922L368.46 300.62L371.093 304.052Z" fill="white"/>
<path d="M375.964 297.23C376.925 297.23 377.728 297.565 378.399 298.246C379.07 298.928 379.412 299.75 379.412 300.728C379.412 301.705 379.07 302.527 378.399 303.209C377.728 303.89 376.911 304.225 375.964 304.225C374.832 304.225 373.976 303.787 373.384 302.9V306.706H372.199V297.385H373.384V298.529C373.976 297.668 374.832 297.23 375.964 297.23ZM375.819 303.106C376.503 303.106 377.069 302.875 377.53 302.425C377.991 301.975 378.228 301.396 378.228 300.728C378.228 300.059 377.991 299.493 377.53 299.03C377.069 298.568 376.49 298.349 375.819 298.349C375.121 298.349 374.555 298.58 374.081 299.03C373.621 299.493 373.384 300.059 373.384 300.728C373.384 301.409 373.621 301.975 374.081 302.425C374.542 302.887 375.121 303.106 375.819 303.106Z" fill="white"/>
<path d="M381.426 296.188C381.203 296.188 381.005 296.11 380.847 295.956C380.689 295.802 380.61 295.622 380.61 295.416C380.61 295.198 380.689 295.018 380.847 294.863C381.005 294.709 381.189 294.632 381.426 294.632C381.65 294.632 381.834 294.709 381.979 294.863C382.137 295.018 382.216 295.198 382.216 295.416C382.216 295.635 382.137 295.815 381.979 295.956C381.834 296.11 381.65 296.188 381.426 296.188ZM380.834 304.056V297.396H382.019V304.056H380.834Z" fill="white"/>
<path d="M385.021 298.515C385.415 297.693 386.113 297.281 387.153 297.281V298.49C386.574 298.464 386.074 298.618 385.652 298.94C385.231 299.274 385.021 299.801 385.021 300.521V304.057H383.836V297.397H385.021V298.515Z" fill="white"/>
<path d="M393.207 297.393H394.471L391.693 304.464C391.404 305.222 390.996 305.788 390.469 306.187C389.943 306.585 389.35 306.752 388.666 306.714V305.634C389.495 305.698 390.114 305.248 390.495 304.271L390.627 304.027L387.652 297.393H388.916L391.193 302.497L393.207 297.393Z" fill="white"/>
<path d="M402.723 294.737C404.026 294.737 405.105 295.187 405.961 296.087C406.817 296.987 407.251 298.093 407.251 299.392C407.251 300.69 406.817 301.796 405.961 302.696C405.105 303.596 404.026 304.046 402.723 304.046H398.998V294.725H402.723V294.737ZM402.723 302.889C403.697 302.889 404.487 302.554 405.105 301.886C405.724 301.217 406.027 300.394 406.027 299.392C406.027 298.389 405.724 297.566 405.105 296.897C404.487 296.229 403.697 295.895 402.723 295.895H400.275V302.876H402.723V302.889Z" fill="white"/>
<path d="M414.319 297.394H415.504V304.053H414.319V302.909C413.727 303.783 412.872 304.233 411.74 304.233C410.792 304.233 409.976 303.899 409.305 303.218C408.633 302.536 408.291 301.713 408.291 300.736C408.291 299.759 408.633 298.936 409.305 298.255C409.976 297.574 410.792 297.239 411.74 297.239C412.872 297.239 413.727 297.676 414.319 298.564V297.394ZM411.884 303.102C412.569 303.102 413.148 302.871 413.622 302.421C414.096 301.971 414.319 301.392 414.319 300.723C414.319 300.055 414.083 299.489 413.622 299.026C413.161 298.564 412.582 298.345 411.884 298.345C411.2 298.345 410.634 298.576 410.173 299.026C409.713 299.489 409.476 300.055 409.476 300.723C409.476 301.405 409.713 301.971 410.173 302.421C410.634 302.883 411.2 303.102 411.884 303.102Z" fill="white"/>
<path d="M421.005 298.515H419.189V302.128C419.189 302.462 419.255 302.693 419.386 302.822C419.518 302.963 419.715 303.028 419.992 303.041C420.268 303.041 420.597 303.041 421.005 303.015V304.056C419.965 304.185 419.215 304.108 418.728 303.812C418.241 303.516 418.004 302.951 418.004 302.128V298.515H416.648V297.396H418.004V295.879L419.189 295.532V297.396H421.005V298.515Z" fill="white"/>
<path d="M422.901 301.251C423.019 301.842 423.296 302.305 423.743 302.64C424.178 302.961 424.73 303.128 425.375 303.128C426.27 303.128 426.929 302.807 427.337 302.151L428.35 302.704C427.692 303.707 426.692 304.208 425.349 304.208C424.27 304.208 423.388 303.874 422.717 303.218C422.045 302.562 421.703 301.714 421.703 300.711C421.703 299.708 422.032 298.873 422.703 298.204C423.362 297.535 424.23 297.201 425.283 297.201C426.284 297.201 427.1 297.548 427.732 298.23C428.363 298.924 428.679 299.747 428.679 300.711C428.679 300.878 428.666 301.058 428.64 301.225H422.901V301.251ZM425.257 298.307C424.625 298.307 424.099 298.487 423.678 298.834C423.256 299.181 423.006 299.657 422.901 300.235H427.455C427.35 299.605 427.1 299.13 426.692 298.795C426.284 298.474 425.81 298.307 425.257 298.307Z" fill="white"/>
<path d="M367.776 329.956C366.789 331.306 365.407 331.975 363.63 331.975C361.853 331.975 360.471 331.306 359.483 329.956C358.496 328.606 357.996 326.819 357.996 324.582C357.996 322.345 358.496 320.545 359.483 319.208C360.471 317.871 361.853 317.189 363.63 317.189C365.407 317.189 366.789 317.858 367.776 319.208C368.763 320.558 369.25 322.345 369.25 324.582C369.25 326.819 368.763 328.606 367.776 329.956ZM360.892 328.671C361.537 329.635 362.445 330.123 363.63 330.123C364.814 330.123 365.723 329.635 366.367 328.671C367.012 327.706 367.342 326.344 367.342 324.582C367.342 322.821 367.012 321.445 366.367 320.481C365.723 319.517 364.801 319.028 363.63 319.028C362.445 319.028 361.537 319.517 360.892 320.481C360.247 321.445 359.931 322.821 359.931 324.595C359.931 326.344 360.247 327.706 360.892 328.671Z" fill="white"/>
<path d="M370.672 331.707V330.164L375.818 325.034C377.2 323.684 377.885 322.54 377.885 321.575C377.885 320.778 377.635 320.148 377.135 319.698C376.635 319.248 376.016 319.03 375.305 319.03C373.923 319.03 372.923 319.673 372.304 320.945L370.672 320.007C371.133 319.081 371.764 318.387 372.58 317.911C373.397 317.436 374.292 317.204 375.279 317.204C376.503 317.204 377.569 317.603 378.464 318.387C379.372 319.171 379.82 320.238 379.82 321.563C379.82 323.003 378.951 324.571 377.214 326.268L373.489 329.894H380.083V331.732H370.672V331.707Z" fill="white"/>
<path d="M382.794 333.711L381.715 333.737L390.06 315.429L391.139 315.403L382.794 333.711Z" fill="white"/>
<path d="M398.51 323.282C399.629 323.488 400.537 323.951 401.248 324.684C401.959 325.417 402.314 326.342 402.314 327.474C402.314 328.862 401.827 329.955 400.853 330.752C399.879 331.549 398.695 331.948 397.313 331.948C396.194 331.948 395.207 331.704 394.351 331.202C393.482 330.701 392.877 329.994 392.521 329.055L394.154 328.117C394.588 329.428 395.641 330.097 397.326 330.097C398.234 330.097 398.971 329.865 399.537 329.402C400.103 328.939 400.393 328.297 400.393 327.474C400.393 326.651 400.103 325.995 399.537 325.532C398.971 325.07 398.234 324.825 397.326 324.825H396.826L396.049 323.668L399.432 319.207H392.943V317.433H401.696L401.683 319.091L398.51 323.282Z" fill="white"/>
<path d="M413.805 329.956C412.818 331.306 411.436 331.975 409.659 331.975C407.882 331.975 406.5 331.306 405.513 329.956C404.526 328.606 404.025 326.819 404.025 324.582C404.025 322.345 404.526 320.545 405.513 319.208C406.5 317.871 407.882 317.189 409.659 317.189C411.436 317.189 412.818 317.858 413.805 319.208C414.792 320.558 415.293 322.345 415.293 324.582C415.279 326.819 414.792 328.606 413.805 329.956ZM406.921 328.671C407.566 329.635 408.474 330.123 409.659 330.123C410.844 330.123 411.752 329.635 412.397 328.671C413.042 327.706 413.371 326.344 413.371 324.582C413.371 322.821 413.042 321.445 412.397 320.481C411.752 319.517 410.83 319.028 409.659 319.028C408.474 319.028 407.566 319.517 406.921 320.481C406.276 321.445 405.96 322.821 405.96 324.595C405.96 326.344 406.276 327.706 406.921 328.671Z" fill="white"/>
<path d="M443.238 142.624H438.802C437.42 142.624 436.38 142.997 435.788 144.321L427.259 163.208H433.287C433.287 163.208 434.288 160.675 434.511 160.122H441.856C442.04 160.842 442.554 163.208 442.554 163.208H447.884L443.238 142.624ZM436.17 155.918C436.63 154.722 438.421 150.145 438.421 150.145C438.421 150.145 438.921 148.937 439.197 148.191L439.579 149.965C439.579 149.965 440.698 154.864 440.922 155.918H436.17Z" fill="white"/>
<path d="M419.611 148.328C419.598 149.292 420.835 149.935 422.849 150.887C426.152 152.352 427.692 154.139 427.666 156.479C427.627 160.748 423.704 163.512 417.663 163.512C415.096 163.486 412.608 162.972 411.266 162.419L412.082 157.804L412.819 158.138C414.701 158.896 415.925 159.218 418.229 159.218C419.874 159.218 421.638 158.588 421.651 157.212C421.664 156.299 420.914 155.657 418.676 154.641C416.491 153.664 413.609 152.018 413.635 149.061C413.661 145.063 417.663 142.26 423.336 142.26C425.56 142.26 427.35 142.71 428.495 143.121L427.719 147.582L427.205 147.351C426.139 146.927 424.784 146.528 422.901 146.554C420.664 146.554 419.611 147.48 419.611 148.328Z" fill="white"/>
<path d="M411.266 142.605L407.659 163.189H401.934L405.527 142.605H411.266Z" fill="white"/>
<path d="M390.641 153.206C388.732 148.449 384.151 144.489 377.215 142.843L377.294 142.419H386.205C387.416 142.458 388.377 142.843 388.719 144.09L390.641 153.206Z" fill="white"/>
<path d="M403.198 142.624L394.142 163.169H388.074L382.928 146.018C386.626 148.332 389.772 151.997 390.878 154.542L391.483 156.664L397.117 142.624H403.198Z" fill="white"/>
<path d="M107.053 172.837H71.1452C68.8681 172.837 66.999 171.012 66.999 168.787V142.804C66.999 140.58 68.8681 138.754 71.1452 138.754H107.053C109.33 138.754 111.199 140.58 111.199 142.804V168.787C111.212 171.024 109.343 172.837 107.053 172.837Z" fill="#F6C859"/>
<path d="M84.0178 168.291C83.8335 168.291 83.6492 168.188 83.5571 168.021C83.4255 167.776 83.5308 167.468 83.7809 167.352C84.518 166.979 85.5315 166.285 86.1106 165.076C86.8477 163.547 86.6635 161.888 86.3476 161.747C86.2686 161.708 85.9527 161.862 85.7684 161.965C85.2814 162.209 84.6233 162.544 83.8467 162.274C83.0833 162.017 82.7147 161.361 82.5436 161.039C81.3853 158.97 81.0299 153.57 82.254 150.883C82.6621 149.995 83.2149 149.468 83.8993 149.314C84.5969 149.16 85.1629 149.443 85.6236 149.674C86.0053 149.867 86.1896 149.944 86.3081 149.88C86.7819 149.597 86.7688 147.887 86.1106 146.524C85.5315 145.316 84.518 144.621 83.7809 144.248C83.5308 144.12 83.4255 143.824 83.5571 143.58C83.6887 143.336 83.9915 143.233 84.2416 143.361C85.1234 143.798 86.3212 144.634 87.032 146.087C87.7296 147.527 88.0587 150.008 86.8346 150.728C86.2159 151.088 85.6236 150.793 85.1498 150.561C84.7944 150.381 84.4522 150.214 84.1231 150.291C83.6756 150.394 83.3597 150.895 83.1754 151.307C82.1092 153.647 82.412 158.751 83.4255 160.577C83.5966 160.885 83.8072 161.219 84.1626 161.348C84.5048 161.464 84.8339 161.322 85.2946 161.091C85.7421 160.872 86.2423 160.615 86.7819 160.872C87.9271 161.412 87.8481 163.829 87.0188 165.539C86.3081 166.992 85.1103 167.828 84.2284 168.265C84.1757 168.265 84.0968 168.291 84.0178 168.291Z" fill="#7D662D"/>
<path d="M82.4781 151.786H73.2643C72.9879 151.786 72.751 151.567 72.751 151.285C72.751 151.002 72.9747 150.783 73.2643 150.783H82.4781C82.7545 150.783 82.9914 151.002 82.9914 151.285C82.9914 151.567 82.7677 151.786 82.4781 151.786Z" fill="#7D662D"/>
<path d="M82.4781 160.787H73.2643C72.9879 160.787 72.751 160.568 72.751 160.286C72.751 160.016 72.9747 159.784 73.2643 159.784H82.4781C82.7545 159.784 82.9914 160.003 82.9914 160.286C82.9914 160.568 82.7677 160.787 82.4781 160.787Z" fill="#7D662D"/>
<path d="M94.7716 168.297C94.6926 168.297 94.6136 168.285 94.5347 168.246C93.6528 167.809 92.455 166.973 91.7442 165.52C90.915 163.81 90.836 161.406 91.9811 160.853C92.5208 160.596 93.021 160.853 93.4685 161.072C93.9292 161.303 94.2583 161.445 94.6005 161.329C94.9822 161.2 95.206 160.802 95.3376 160.558C96.3643 158.732 96.667 153.641 95.5877 151.288C95.4034 150.889 95.0875 150.375 94.64 150.272C94.3636 150.208 94.1924 149.938 94.2583 149.668C94.3241 149.398 94.6005 149.231 94.8769 149.295C95.5613 149.449 96.1142 149.976 96.5222 150.876C97.7463 153.551 97.3909 158.95 96.2326 161.033C96.0615 161.355 95.6798 162.01 94.9295 162.268C94.153 162.525 93.4948 162.203 93.0078 161.959C92.8235 161.869 92.5076 161.715 92.4287 161.74C92.1259 161.882 91.9285 163.54 92.6656 165.07C93.2447 166.279 94.2583 166.973 94.9954 167.346C95.2454 167.475 95.3507 167.77 95.2191 168.015C95.127 168.195 94.9559 168.297 94.7716 168.297Z" fill="#7D662D"/>
<path d="M92.7183 149.793C92.5077 149.793 92.3103 149.664 92.2313 149.446C91.1388 146.232 93.7055 143.75 94.5347 143.339C94.7848 143.21 95.1007 143.313 95.2192 143.557C95.3508 143.802 95.2455 144.11 94.9954 144.226C94.6269 144.406 92.2708 146.386 93.2053 149.124C93.2974 149.382 93.1527 149.664 92.8762 149.754C92.8236 149.78 92.7709 149.793 92.7183 149.793Z" fill="#7D662D"/>
<path d="M105.512 151.786H96.2985C96.0221 151.786 95.7852 151.567 95.7852 151.285C95.7852 151.002 96.0089 150.783 96.2985 150.783H105.512C105.789 150.783 106.026 151.002 106.026 151.285C106.026 151.567 105.802 151.786 105.512 151.786Z" fill="#7D662D"/>
<path d="M105.512 160.787H96.2985C96.0221 160.787 95.7852 160.568 95.7852 160.286C95.7852 160.016 96.0089 159.784 96.2985 159.784H105.512C105.789 159.784 106.026 160.003 106.026 160.286C106.026 160.568 105.802 160.787 105.512 160.787Z" fill="#7D662D"/>
<defs>
<linearGradient id="paint0_linear_887_7918" x1="186.37" y1="485.266" x2="276.037" y2="249.395" gradientUnits="userSpaceOnUse">
<stop stop-color="#A7765E"/>
<stop offset="1" stop-color="#081C97"/>
</linearGradient>
<linearGradient id="paint1_linear_887_7918" x1="174.765" y1="442.394" x2="279.376" y2="167.211" gradientUnits="userSpaceOnUse">
<stop stop-color="#592F1A"/>
<stop offset="1" stop-color="#191C2E"/>
</linearGradient>
</defs>
</svg>
