<svg width="10" height="16" viewBox="0 0 10 16" fill="none" xmlns="http://www.w3.org/2000/svg">
<path d="M4.76859 6.32239C6.07909 6.32239 7.18967 6.70856 8.10036 7.48832C9.01104 8.26809 9.4627 9.33748 9.4627 10.7113C9.4627 12.0704 8.99625 13.1398 8.07076 13.9195C7.14527 14.7067 6.01987 15.0929 4.69457 15.0929C3.63581 15.0929 2.68811 14.8404 1.85146 14.328C1.01482 13.8155 0.429899 13.0729 0.104126 12.1075L1.67375 11.2089C1.85885 11.8847 2.21425 12.4045 2.74733 12.7536C3.28042 13.1026 3.92456 13.2809 4.69457 13.2809C5.56823 13.2809 6.27901 13.0581 6.81949 12.6051C7.35998 12.152 7.63393 11.5208 7.63393 10.7113C7.63393 9.90188 7.35998 9.26322 6.81949 8.81021C6.27901 8.34978 5.58303 8.11956 4.73158 8.11956H0.800097L1.29616 0.878906H8.92962V2.61666H2.98426L2.73992 6.32239H4.76859Z" fill="white"/>
</svg>
