<svg width="648" height="600" viewBox="0 0 648 600" fill="none" xmlns="http://www.w3.org/2000/svg">
<g clip-path="url(#clip0_478_5046)">
<rect x="0.5" width="647" height="600" rx="16" fill="#ECBDA6"/>
<path d="M630.922 267.809C630.915 267.802 630.908 267.696 630.902 267.495C630.896 267.264 630.889 266.974 630.88 266.611C630.868 265.799 630.852 264.668 630.831 263.216C630.804 260.239 630.766 255.959 630.719 250.561L630.922 250.764C616.036 250.793 592.362 250.84 565.731 250.894C565.878 250.746 565.396 251.225 566.059 250.561V250.565V250.575V250.592V250.627V250.697V250.836V251.113V251.668V252.774C566.059 253.509 566.059 254.244 566.059 254.974C566.059 256.436 566.058 257.887 566.058 259.326C566.056 262.205 566.054 265.036 566.052 267.81L565.728 267.486C584.292 267.545 600.537 267.597 612.187 267.633C617.991 267.672 622.647 267.704 625.901 267.725C627.483 267.744 628.721 267.758 629.608 267.768C630.008 267.776 630.327 267.784 630.579 267.79C630.798 267.794 630.915 267.802 630.922 267.809C630.928 267.815 630.827 267.822 630.62 267.83C630.379 267.835 630.073 267.842 629.69 267.851C628.821 267.862 627.604 267.876 626.052 267.894C622.817 267.916 618.185 267.948 612.414 267.987C600.706 268.024 584.382 268.075 565.728 268.134L565.404 268.135V267.81C565.402 265.036 565.4 262.205 565.398 259.326C565.398 257.887 565.397 256.436 565.397 254.974C565.397 254.244 565.397 253.509 565.397 252.774V251.668V251.113V250.836V250.697V250.627V250.592V250.575V250.565V250.561C566.062 249.897 565.583 250.378 565.733 250.229C592.364 250.283 616.038 250.33 630.924 250.359H631.128L631.127 250.561C631.078 256.01 631.041 260.33 631.015 263.337C630.994 264.768 630.978 265.886 630.966 266.686C630.956 267.034 630.95 267.313 630.944 267.535C630.935 267.723 630.928 267.815 630.922 267.809Z" fill="#E0E0E0"/>
<path d="M639.762 250.561C639.754 250.553 639.746 250.442 639.736 250.233C639.73 249.985 639.72 249.685 639.711 249.319C639.696 248.471 639.676 247.317 639.652 245.861C639.621 242.836 639.577 238.566 639.523 233.314L639.762 233.553C629.614 233.577 615.809 233.61 600.594 233.647C600.295 233.943 600.994 233.242 600.923 233.316V233.32V233.329V233.346V233.383V233.454V233.596V233.88V234.445V235.574C600.923 236.323 600.923 237.069 600.922 237.81C600.921 239.292 600.921 240.757 600.919 242.2C600.915 245.085 600.911 247.883 600.907 250.563L600.591 250.247C611.899 250.307 621.634 250.359 628.612 250.397C632.053 250.434 634.81 250.462 636.774 250.484C637.69 250.5 638.42 250.513 638.975 250.524C639.479 250.535 639.748 250.548 639.762 250.561C639.775 250.575 639.531 250.587 639.05 250.6C638.513 250.61 637.804 250.623 636.914 250.641C634.969 250.662 632.235 250.691 628.823 250.728C621.792 250.765 611.984 250.817 600.59 250.878L600.273 250.879V250.561C600.269 247.881 600.265 245.084 600.261 242.199C600.26 240.755 600.26 239.291 600.259 237.809C600.259 237.068 600.259 236.321 600.257 235.572V234.444V233.878V233.594V233.452V233.381V233.345V233.328V233.318V233.314C600.185 233.384 600.887 232.683 600.592 232.981C615.808 233.017 629.613 233.05 639.76 233.074L640.002 233.076L639.999 233.314C639.945 238.627 639.901 242.948 639.87 246.007C639.845 247.441 639.825 248.576 639.811 249.412C639.794 250.182 639.778 250.578 639.762 250.561Z" fill="#E0E0E0"/>
<path d="M143.606 84.6118H78.4111V101.859H143.606V84.6118Z" fill="#EBEBEB"/>
<path d="M116.038 120.025C116.032 120.018 116.025 119.913 116.018 119.712C116.013 119.481 116.006 119.19 115.997 118.827C115.985 118.015 115.969 116.884 115.949 115.433C115.922 112.455 115.884 108.176 115.837 102.778L116.04 102.98C101.154 103.01 77.4798 103.057 50.8487 103.11C50.9961 102.963 50.5137 103.441 51.177 102.779V102.783V102.793V102.81V102.845V102.915V103.054V103.331V103.886V104.992C51.177 105.727 51.177 106.462 51.177 107.192C51.177 108.654 51.1756 110.105 51.1756 111.544C51.1743 114.423 51.1716 117.254 51.1703 120.028L50.846 119.704C69.4104 119.763 85.6538 119.813 97.3051 119.851C103.109 119.89 107.765 119.922 111.019 119.943C112.601 119.962 113.839 119.976 114.726 119.986C115.126 119.996 115.445 120.002 115.697 120.008C115.915 120.01 116.03 120.017 116.038 120.025C116.045 120.032 115.943 120.039 115.737 120.047C115.496 120.052 115.19 120.059 114.807 120.067C113.937 120.077 112.722 120.091 111.169 120.11C107.934 120.131 103.302 120.163 97.5303 120.202C85.8227 120.24 69.4988 120.29 50.8447 120.349L50.5204 120.351V120.025C50.519 117.251 50.5164 114.42 50.515 111.542C50.515 110.102 50.5137 108.651 50.5137 107.189C50.5137 106.459 50.5137 105.725 50.5137 104.989V103.884V103.329V103.051V102.912V102.842V102.807V102.79V102.781V102.777C51.1783 102.112 50.6999 102.592 50.85 102.444C77.4812 102.498 101.155 102.545 116.041 102.574H116.245L116.243 102.777C116.195 108.225 116.158 112.545 116.132 115.552C116.111 116.983 116.095 118.101 116.083 118.901C116.075 119.249 116.066 119.528 116.061 119.75C116.052 119.939 116.045 120.032 116.038 120.025Z" fill="#E0E0E0"/>
<path d="M190.153 337.786H124.958V355.033H190.153V337.786Z" fill="#EBEBEB"/>
<path d="M162.585 373.201C162.578 373.194 162.571 373.088 162.565 372.887C162.559 372.657 162.553 372.366 162.543 372.003C162.531 371.191 162.515 370.06 162.494 368.609C162.467 365.631 162.429 361.351 162.382 355.954L162.585 356.156C147.699 356.186 124.025 356.233 97.3937 356.286C97.5411 356.139 97.0587 356.617 97.722 355.955V355.959V355.969V355.986V356.021V356.091V356.23V356.507V357.062V358.168C97.722 358.903 97.722 359.636 97.722 360.368C97.722 361.83 97.7207 363.281 97.7207 364.72C97.7193 367.598 97.7167 370.43 97.7153 373.204L97.391 372.879C115.955 372.938 132.2 372.991 143.85 373.027C149.654 373.066 154.31 373.098 157.564 373.119C159.146 373.138 160.384 373.151 161.272 373.162C161.671 373.172 161.99 373.178 162.242 373.184C162.463 373.186 162.578 373.193 162.585 373.201C162.591 373.208 162.49 373.214 162.283 373.222C162.042 373.228 161.737 373.235 161.353 373.244C160.484 373.255 159.268 373.268 157.715 373.287C154.48 373.308 149.848 373.34 144.077 373.379C132.369 373.417 116.045 373.468 97.391 373.527L97.0668 373.528V373.202C97.0654 370.429 97.0627 367.597 97.0614 364.719C97.0614 363.28 97.0601 361.828 97.0601 360.367C97.0601 359.636 97.0601 358.902 97.0601 358.166V357.061V356.506V356.229V356.089V356.02V355.985V355.967V355.958V355.954C97.7247 355.289 97.2463 355.769 97.3964 355.622C124.028 355.675 147.701 355.722 162.587 355.752H162.791L162.79 355.954C162.742 361.402 162.704 365.723 162.679 368.729C162.657 370.161 162.641 371.278 162.629 372.078C162.621 372.427 162.613 372.705 162.607 372.928C162.598 373.115 162.591 373.208 162.585 373.201Z" fill="#E0E0E0"/>
<path d="M626.508 432.288H561.312V449.535H626.508V432.288Z" fill="#EBEBEB"/>
<path d="M598.94 467.702C598.933 467.695 598.926 467.589 598.92 467.388C598.914 467.158 598.908 466.867 598.898 466.504C598.886 465.692 598.87 464.561 598.85 463.109C598.823 460.132 598.786 455.852 598.739 450.454L598.941 450.657C584.055 450.686 560.381 450.733 533.75 450.787C533.897 450.639 533.415 451.118 534.078 450.456V450.46V450.469V450.487V450.521V450.591V450.73V451.008V451.563V452.668C534.078 453.404 534.078 454.137 534.078 454.868C534.078 456.33 534.077 457.782 534.077 459.221C534.076 462.099 534.073 464.93 534.072 467.704L533.747 467.38C552.312 467.439 568.557 467.49 580.207 467.527C586.01 467.566 590.667 467.598 593.92 467.62C595.503 467.639 596.741 467.652 597.628 467.663C598.027 467.672 598.346 467.679 598.598 467.684C598.816 467.687 598.932 467.694 598.94 467.702C598.946 467.708 598.845 467.715 598.638 467.723C598.397 467.728 598.091 467.735 597.708 467.744C596.839 467.755 595.622 467.769 594.07 467.787C590.835 467.809 586.203 467.841 580.432 467.88C568.724 467.917 552.4 467.968 533.746 468.027L533.422 468.028V467.703C533.42 464.929 533.418 462.098 533.416 459.219C533.416 457.78 533.415 456.329 533.415 454.867C533.415 454.137 533.415 453.402 533.415 452.667V451.561V451.006V450.729V450.59V450.52V450.485V450.468V450.458V450.454C534.08 449.79 533.601 450.269 533.751 450.122C560.383 450.176 584.056 450.223 598.942 450.252H599.146L599.145 450.454C599.096 455.903 599.059 460.223 599.034 463.23C599.012 464.661 598.996 465.779 598.984 466.579C598.976 466.927 598.968 467.206 598.963 467.428C598.953 467.616 598.946 467.708 598.94 467.702Z" fill="#E0E0E0"/>
<path d="M347.43 20.1029C347.423 20.0962 347.417 19.9903 347.41 19.7893C347.404 19.5589 347.398 19.2681 347.388 18.9049C347.376 18.0929 347.36 16.962 347.339 15.5107C347.312 12.5333 347.274 8.25329 347.228 2.85577L347.43 3.05811C332.544 3.08759 308.87 3.13449 282.239 3.18809C282.386 3.04069 281.904 3.51907 282.567 2.85577V2.85979V2.86917V2.88659V2.92143V2.99111V3.13047V3.40785V3.96261V5.06811C282.567 5.80377 282.567 6.53809 282.567 7.26839C282.567 8.73033 282.566 10.1816 282.566 11.6207C282.565 14.499 282.562 17.3304 282.561 20.1042L282.236 19.78C300.801 19.8389 317.045 19.8912 328.695 19.9274C334.499 19.9662 339.155 19.9984 342.409 20.0198C343.991 20.0386 345.23 20.052 346.117 20.0627C346.516 20.0708 346.835 20.0788 347.087 20.0828C347.307 20.0895 347.423 20.0962 347.43 20.1029C347.437 20.1096 347.335 20.1163 347.128 20.1243C346.887 20.1297 346.582 20.1364 346.198 20.1458C345.329 20.1565 344.113 20.1699 342.56 20.1887C339.326 20.2101 334.693 20.2423 328.922 20.2811C317.214 20.3186 300.89 20.3696 282.236 20.4285L281.912 20.4299V20.1042C281.911 17.3304 281.908 14.499 281.907 11.6207C281.907 10.1816 281.905 8.73033 281.905 7.26839C281.905 6.53809 281.905 5.80377 281.905 5.06811V3.96261V3.40785V3.13047V2.99111V2.92143V2.88659V2.86917V2.85979V2.85577C282.57 2.19113 282.092 2.67085 282.242 2.52345C308.873 2.57705 332.547 2.62395 347.433 2.65343H347.636L347.635 2.85577C347.587 8.30421 347.549 12.6257 347.524 15.6313C347.502 17.0625 347.486 18.18 347.474 18.98C347.465 19.3284 347.458 19.6071 347.453 19.8296C347.443 20.0185 347.437 20.1096 347.43 20.1029Z" fill="#E0E0E0"/>
<path d="M356.269 2.85555C356.261 2.84751 356.253 2.73629 356.243 2.52725C356.237 2.27935 356.227 1.97919 356.218 1.61337C356.203 0.76515 356.183 -0.388587 356.159 -1.84517C356.128 -4.86955 356.084 -9.14013 356.03 -14.3916L356.269 -14.1531C346.121 -14.1289 332.316 -14.0954 317.101 -14.0593C316.802 -13.7631 317.501 -14.4639 317.43 -14.3902V-14.3862V-14.3768V-14.3594V-14.3232V-14.2522V-14.1102V-13.8261V-13.2606V-12.1337C317.43 -11.3833 317.43 -10.6382 317.429 -9.89723C317.427 -8.41519 317.427 -6.95057 317.426 -5.50739C317.422 -2.62237 317.418 0.175552 317.414 2.85555L317.098 2.53931C328.406 2.59961 338.141 2.65187 345.119 2.68939C348.56 2.72691 351.317 2.75505 353.281 2.77649C354.197 2.79257 354.927 2.80597 355.482 2.81669C355.987 2.83009 356.257 2.84349 356.269 2.85555C356.282 2.86895 356.038 2.88101 355.557 2.89441C355.02 2.90379 354.311 2.91719 353.421 2.93461C351.476 2.95605 348.742 2.98553 345.332 3.02171C338.301 3.05923 328.492 3.11149 317.098 3.17179L316.782 3.17313V2.85555C316.778 0.175552 316.774 -2.62237 316.77 -5.50739C316.768 -6.95057 316.768 -8.41519 316.767 -9.89723C316.767 -10.6382 316.767 -11.3846 316.766 -12.1337V-13.2606V-13.8261V-14.1102V-14.2522V-14.3232V-14.3594V-14.3768V-14.3862V-14.3902C316.693 -14.3206 317.395 -15.0214 317.101 -14.7239C332.316 -14.6877 346.121 -14.6542 356.269 -14.6301H356.51L356.507 -14.3916C356.454 -9.07849 356.409 -4.75833 356.379 -1.69911C356.353 -0.26531 356.333 0.86967 356.32 1.70583C356.302 2.47633 356.286 2.87297 356.269 2.85555Z" fill="#E0E0E0"/>
<path d="M111.69 516.368C111.683 516.361 111.677 516.255 111.67 516.054C111.665 515.824 111.658 515.533 111.649 515.17C111.637 514.358 111.621 513.227 111.599 511.776C111.572 508.798 111.535 504.518 111.488 499.121L111.69 499.323C96.8041 499.352 73.1304 499.399 46.4992 499.453C46.6466 499.305 46.1642 499.784 46.8275 499.121V499.125V499.134V499.151V499.186V499.256V499.394V499.671V500.226V501.332C46.8275 502.067 46.8275 502.802 46.8275 503.532C46.8275 504.994 46.8261 506.445 46.8261 507.884C46.8248 510.762 46.8221 513.594 46.8208 516.368L46.4965 516.043C65.0609 516.102 81.3057 516.155 92.9556 516.191C98.7592 516.23 103.416 516.262 106.669 516.283C108.252 516.302 109.49 516.315 110.377 516.326C110.776 516.334 111.095 516.342 111.347 516.348C111.567 516.354 111.682 516.361 111.69 516.368C111.697 516.374 111.595 516.381 111.389 516.389C111.147 516.394 110.842 516.401 110.459 516.411C109.589 516.421 108.372 516.435 106.821 516.453C103.586 516.475 98.9535 516.507 93.1821 516.546C81.4745 516.583 65.1507 516.634 46.4965 516.693L46.1722 516.695V516.369C46.1709 513.595 46.1682 510.764 46.1669 507.886C46.1669 506.446 46.1655 504.995 46.1655 503.533C46.1655 502.803 46.1655 502.069 46.1655 501.333V500.227V499.673V499.395V499.257V499.188V499.153V499.135V499.126V499.122C46.8302 498.457 46.3518 498.937 46.5019 498.79C73.133 498.843 96.8068 498.89 111.693 498.92H111.897L111.895 499.122C111.847 504.57 111.809 508.89 111.784 511.897C111.763 513.329 111.746 514.446 111.734 515.246C111.726 515.594 111.718 515.873 111.713 516.096C111.704 516.282 111.697 516.374 111.69 516.368Z" fill="#E0E0E0"/>
<path d="M120.529 499.12C120.521 499.112 120.513 499.001 120.503 498.792C120.497 498.544 120.487 498.244 120.478 497.878C120.463 497.03 120.443 495.876 120.419 494.42C120.388 491.395 120.344 487.125 120.29 481.873L120.529 482.112C110.381 482.136 96.5763 482.169 81.3606 482.206C81.0618 482.502 81.7613 481.801 81.6903 481.875V481.879V481.888V481.905V481.94V482.011V482.153V482.436V483.002V484.129C81.6903 484.879 81.6903 485.624 81.6889 486.365C81.6876 487.847 81.6863 489.312 81.6863 490.755C81.6822 493.64 81.6782 496.438 81.6742 499.118L81.358 498.802C92.6662 498.862 102.401 498.914 109.379 498.952C112.82 498.988 115.578 499.017 117.541 499.039C118.457 499.055 119.188 499.068 119.742 499.079C120.247 499.095 120.515 499.108 120.529 499.12C120.542 499.134 120.298 499.146 119.817 499.159C119.28 499.169 118.571 499.182 117.681 499.2C115.736 499.221 113.002 499.25 109.59 499.287C102.559 499.324 92.7506 499.376 81.3566 499.437L81.0404 499.438V499.12C81.0364 496.44 81.0323 493.643 81.0283 490.758C81.027 489.314 81.027 487.85 81.0256 486.368C81.0256 485.627 81.0256 484.88 81.0243 484.131V483.004V482.439V482.156V482.014V481.943V481.908V481.891V481.881V481.877C80.9519 481.947 81.6541 481.246 81.3593 481.544C96.575 481.58 110.38 481.613 120.528 481.637H120.769L120.766 481.876C120.712 487.189 120.668 491.509 120.637 494.568C120.612 496.002 120.592 497.137 120.578 497.973C120.562 498.741 120.546 499.138 120.529 499.12Z" fill="#E0E0E0"/>
<path d="M607.324 20.127H542.129V37.3741H607.324V20.127Z" fill="#EBEBEB"/>
<path d="M579.756 55.5404C579.749 55.5337 579.743 55.4278 579.736 55.2268C579.731 54.9964 579.724 54.7056 579.715 54.3425C579.702 53.5304 579.686 52.3994 579.666 50.9482C579.64 47.9707 579.602 43.6908 579.555 38.2933L579.757 38.4956C564.871 38.5251 541.198 38.572 514.566 38.6256C514.714 38.4782 514.231 38.9566 514.895 38.2946V38.2986V38.308V38.3254V38.3603V38.43V38.5693V38.8467V39.4015V40.507C514.895 41.2426 514.895 41.9769 514.895 42.7072C514.895 44.1692 514.893 45.6204 514.893 47.0595C514.892 49.9379 514.889 52.7693 514.888 55.5431L514.564 55.2188C533.128 55.2778 549.373 55.33 561.023 55.3662C566.826 55.4051 571.483 55.4372 574.736 55.4587C576.319 55.4774 577.557 55.4908 578.444 55.5015C578.844 55.5109 579.162 55.5176 579.414 55.523C579.633 55.527 579.748 55.5337 579.756 55.5404C579.763 55.5471 579.661 55.5538 579.455 55.5618C579.213 55.5672 578.908 55.5739 578.525 55.5833C577.655 55.594 576.44 55.6074 574.887 55.6262C571.652 55.6476 567.019 55.6798 561.248 55.7186C549.54 55.7562 533.217 55.8071 514.562 55.866L514.238 55.8674V55.5417C514.237 52.7679 514.234 49.9365 514.233 47.0582C514.233 45.619 514.231 44.1678 514.231 42.7059C514.231 41.9756 514.231 41.2413 514.231 40.5056V39.4001V38.844V38.5666V38.4286V38.3589V38.3241V38.3067V38.2973V38.2933C514.896 37.6286 514.418 38.1083 514.568 37.9609C541.199 38.0145 564.873 38.0614 579.759 38.0909H579.962L579.961 38.2933C579.913 43.7417 579.875 48.0619 579.85 51.0688C579.828 52.5 579.812 53.6175 579.8 54.4175C579.792 54.7659 579.784 55.0446 579.779 55.267C579.769 55.4546 579.763 55.5471 579.756 55.5404Z" fill="#E0E0E0"/>
<path d="M651.024 591.252C651.024 591.445 514.225 591.601 345.515 591.601C176.746 591.601 39.9761 591.444 39.9761 591.252C39.9761 591.059 176.746 590.904 345.515 590.904C514.225 590.904 651.024 591.059 651.024 591.252Z" fill="#263238"/>
<path d="M328.033 50.1304L265.337 282.962V591.252H547.142V51.4597L328.033 50.1304Z" fill="#E0E0E0"/>
<path d="M274.862 288.566L323.11 101.301L349.8 136.204L314.897 273.25L274.862 288.566Z" fill="#E0E0E0"/>
<path d="M323.11 101.301H455.997L449.592 136.066L349.8 136.204L323.11 101.301Z" fill="#E0E0E0"/>
<g opacity="0.3">
<path d="M274.862 288.566L323.11 101.301L349.8 136.204L314.897 273.25L274.862 288.566Z" fill="black"/>
</g>
<g opacity="0.3">
<path d="M323.11 101.301H455.997L449.592 136.066L349.8 136.204L323.11 101.301Z" fill="black"/>
</g>
<path d="M314.897 273.25H424.894L449.592 136.066L349.8 136.204L314.897 273.25Z" fill="#E0E0E0"/>
<path d="M274.862 288.566H424.966V273.25H314.897L274.862 288.566Z" fill="#E0E0E0"/>
<path d="M286.245 561.905C286.245 561.905 287.063 561.886 288.625 561.876C290.198 561.87 292.514 561.859 295.542 561.847C301.614 561.831 310.534 561.808 321.986 561.779C344.869 561.745 377.853 561.696 418.314 561.635L418.044 561.906C418.022 501.732 417.995 423.572 417.965 338.426V338.409L418.313 338.757C371.547 338.748 326.893 338.74 286.244 338.732L286.568 338.407C286.504 403.912 286.449 459.743 286.41 499.214C286.372 518.964 286.343 534.618 286.322 545.349C286.304 550.71 286.291 554.837 286.281 557.639C286.273 559.03 286.267 560.089 286.261 560.814C286.259 561.531 286.245 561.905 286.245 561.905C286.245 561.905 286.232 561.556 286.226 560.854C286.222 560.137 286.216 559.091 286.208 557.716C286.198 554.929 286.185 550.823 286.167 545.49C286.147 534.776 286.118 519.147 286.079 499.428C286.04 459.905 285.985 403.999 285.921 338.407V338.083H286.245C326.893 338.075 371.548 338.067 418.314 338.058H418.663V338.407V338.425C418.633 423.571 418.605 501.729 418.584 561.905V562.175H418.313C377.782 562.115 344.74 562.065 321.817 562.032C310.392 562.002 301.493 561.98 295.435 561.964C292.428 561.95 290.129 561.941 288.567 561.934C287.024 561.925 286.245 561.905 286.245 561.905Z" fill="#263238"/>
<g opacity="0.3">
<path d="M438.397 591.252V273.25L478.731 51.0444L547.142 51.4598V591.252H438.397Z" fill="black"/>
</g>
<path d="M333.304 90.002L339.318 67.2676H461.266L455.394 90.002H333.304Z" fill="#F89261"/>
<path d="M274.862 288.566C274.862 288.566 275.094 288.448 275.562 288.255C276.06 288.054 276.752 287.777 277.639 287.419C279.503 286.687 282.189 285.633 285.624 284.286C292.588 281.591 302.574 277.728 314.8 272.998L314.633 273.184C319.413 254.55 325.589 230.477 332.311 204.273C338.861 178.962 344.896 155.645 349.645 137.294L349.691 137.527C341.593 126.519 334.959 117.498 330.325 111.198C328.05 108.073 326.266 105.625 325.029 103.929C324.444 103.11 323.989 102.475 323.661 102.017C323.356 101.583 323.216 101.347 323.216 101.347C323.216 101.347 323.401 101.549 323.728 101.967C324.071 102.415 324.548 103.035 325.161 103.832C326.424 105.509 328.248 107.927 330.577 111.013C335.256 117.278 341.957 126.251 350.135 137.2L350.215 137.306L350.181 137.434C345.47 155.796 339.484 179.126 332.987 204.45C326.208 230.641 319.981 254.7 315.16 273.324L315.124 273.46L314.993 273.51C302.73 278.148 292.715 281.936 285.731 284.577C282.274 285.866 279.568 286.874 277.694 287.573C276.795 287.899 276.094 288.153 275.589 288.337C275.114 288.499 274.862 288.566 274.862 288.566Z" fill="#263238"/>
<path d="M347.347 182.166C346.942 183.58 339.871 210.472 339.871 210.472H356.439L363.777 182.166H347.347Z" fill="#455A64"/>
<path d="M365.244 179.099H347.366L348.375 175.615H366.253L365.244 179.099Z" fill="#455A64"/>
<path d="M365.886 177.264C365.886 177.457 361.884 177.613 356.947 177.613C352.009 177.613 348.008 177.456 348.008 177.264C348.008 177.071 352.009 176.916 356.947 176.916C361.884 176.916 365.886 177.071 365.886 177.264Z" fill="#263238"/>
<path d="M353.083 221.984H335.205L336.214 218.5H354.092L353.083 221.984Z" fill="#455A64"/>
<path d="M353.725 220.15C353.725 220.343 349.723 220.498 344.786 220.498C339.848 220.498 335.847 220.341 335.847 220.15C335.847 219.957 339.848 219.801 344.786 219.801C349.723 219.801 353.725 219.957 353.725 220.15Z" fill="#263238"/>
<path d="M379.485 263.485H328.033L329.645 254.809H381.099L379.485 263.485Z" fill="#455A64"/>
<path d="M377.754 259.148C377.754 259.341 367.372 259.497 354.566 259.497C341.757 259.497 331.376 259.341 331.376 259.148C331.376 258.955 341.757 258.799 354.566 258.799C367.372 258.798 377.754 258.955 377.754 259.148Z" fill="#263238"/>
<path d="M348.007 192.855H357.874L354.273 187.1L348.007 192.855Z" fill="#263238"/>
<path d="M349.8 192.855C349.782 192.855 346.243 205.589 346.243 205.589H353.184L356.042 192.855H349.8Z" fill="#263238"/>
<path d="M378.208 153.453L358.957 232.258H432.275L446.818 153.801L378.208 153.453Z" fill="#263238"/>
<path d="M386.456 161.249L371.548 223.702L433.841 223.807L445.483 161L386.456 161.249Z" fill="#455A64"/>
<path d="M378.376 153.935C378.503 153.79 380.419 155.353 382.656 157.424C384.893 159.497 386.597 161.289 386.461 161.426C386.326 161.562 384.41 160.001 382.181 157.936C379.953 155.871 378.25 154.08 378.376 153.935Z" fill="#455A64"/>
<path d="M371.185 223.284C371.314 223.413 368.927 225.963 365.5 228.552C362.079 231.153 358.978 232.759 358.889 232.6C358.786 232.424 361.697 230.567 365.079 227.995C368.468 225.436 371.045 223.137 371.185 223.284Z" fill="#455A64"/>
<g opacity="0.1">
<path d="M274.862 288.566H424.966V273.25H314.897L274.862 288.566Z" fill="black"/>
</g>
<path d="M399.418 188.032C399.773 188.204 400.329 188.388 401.086 188.583C401.917 188.791 402.605 189.005 403.148 189.225C403.692 189.445 404.16 189.781 404.551 190.234C404.942 190.687 405.139 191.279 405.139 192.012C405.139 193.234 404.686 194.249 403.782 195.055C402.876 195.862 401.642 196.35 400.078 196.521L399.674 198.521H397.473L397.877 196.521C397.01 196.448 396.199 196.292 395.447 196.054C394.695 195.815 394.075 195.524 393.586 195.183L395.034 192.488C395.682 192.903 396.369 193.218 397.097 193.433C397.823 193.647 398.56 193.753 399.305 193.753C400.003 193.753 400.543 193.652 400.928 193.45C401.312 193.248 401.505 192.97 401.505 192.615C401.505 192.31 401.331 192.071 400.983 191.9C400.634 191.728 400.088 191.545 399.341 191.349C398.51 191.129 397.819 190.903 397.27 190.671C396.72 190.439 396.246 190.093 395.848 189.635C395.451 189.177 395.253 188.57 395.253 187.811C395.253 186.54 395.723 185.498 396.665 184.685C397.606 183.873 398.895 183.4 400.534 183.265L400.918 181.284H403.119L402.715 183.301C404.073 183.447 405.185 183.795 406.052 184.346L404.713 187.023C404.226 186.706 403.677 186.465 403.072 186.298C402.467 186.134 401.847 186.051 401.211 186.051C400.49 186.051 399.924 186.167 399.514 186.399C399.104 186.632 398.894 186.931 398.882 187.298C398.886 187.618 399.063 187.862 399.418 188.032Z" fill="white"/>
<path d="M411.298 188.032C411.653 188.204 412.209 188.388 412.966 188.583C413.797 188.791 414.486 189.005 415.028 189.225C415.572 189.445 416.04 189.781 416.431 190.234C416.823 190.686 417.018 191.279 417.018 192.012C417.018 193.234 416.565 194.249 415.661 195.055C414.755 195.862 413.521 196.35 411.957 196.521L411.552 198.521H409.352L409.756 196.521C408.889 196.448 408.078 196.292 407.326 196.054C406.573 195.815 405.953 195.524 405.465 195.183L406.913 192.488C407.561 192.903 408.248 193.218 408.976 193.433C409.702 193.647 410.439 193.753 411.184 193.753C411.882 193.753 412.422 193.652 412.807 193.45C413.191 193.248 413.384 192.97 413.384 192.615C413.384 192.31 413.21 192.071 412.862 191.9C412.513 191.728 411.967 191.545 411.22 191.349C410.389 191.129 409.698 190.903 409.148 190.671C408.599 190.439 408.125 190.093 407.727 189.635C407.33 189.177 407.132 188.57 407.132 187.811C407.132 186.54 407.602 185.498 408.544 184.685C409.485 183.873 410.774 183.4 412.413 183.265L412.797 181.284H414.998L414.594 183.301C415.952 183.447 417.064 183.795 417.931 184.346L416.592 187.023C416.104 186.706 415.558 186.465 414.951 186.298C414.346 186.134 413.726 186.051 413.089 186.051C412.369 186.051 411.803 186.167 411.393 186.399C410.983 186.632 410.773 186.931 410.761 187.298C410.767 187.618 410.944 187.862 411.298 188.032Z" fill="white"/>
<path d="M423.178 188.032C423.533 188.204 424.09 188.388 424.847 188.583C425.677 188.791 426.366 189.005 426.909 189.225C427.453 189.445 427.921 189.781 428.312 190.234C428.703 190.687 428.9 191.279 428.9 192.012C428.9 193.234 428.447 194.249 427.543 195.055C426.637 195.862 425.403 196.35 423.839 196.521L423.434 198.521H421.234L421.637 196.521C420.769 196.448 419.96 196.292 419.208 196.054C418.455 195.815 417.836 195.524 417.347 195.183L418.795 192.488C419.442 192.903 420.13 193.218 420.857 193.433C421.584 193.647 422.321 193.753 423.066 193.753C423.764 193.753 424.304 193.652 424.689 193.45C425.073 193.248 425.266 192.97 425.266 192.615C425.266 192.31 425.092 192.071 424.743 191.9C424.395 191.728 423.848 191.545 423.102 191.349C422.271 191.129 421.58 190.903 421.03 190.671C420.481 190.439 420.007 190.093 419.609 189.635C419.212 189.177 419.014 188.57 419.014 187.811C419.014 186.54 419.484 185.498 420.426 184.685C421.367 183.873 422.656 183.4 424.295 183.265L424.679 181.284H426.879L426.476 183.301C427.834 183.447 428.946 183.795 429.813 184.346L428.474 187.023C427.986 186.706 427.44 186.465 426.833 186.298C426.228 186.134 425.608 186.051 424.971 186.051C424.25 186.051 423.685 186.167 423.275 186.399C422.865 186.632 422.654 186.931 422.642 187.298C422.648 187.618 422.825 187.862 423.178 188.032Z" fill="white"/>
<path d="M382.929 83.3906H377.465L375.981 85.8843H372.149L380.381 73.0498H383.956L387.055 85.8843H383.444L382.929 83.3906ZM382.378 80.7133L381.518 76.5512L379.061 80.7133H382.378Z" fill="white"/>
<path d="M392.17 75.9281H388.229L388.816 73.0498H400.312L399.724 75.9281H395.8L393.802 85.8843H390.172L392.17 75.9281Z" fill="white"/>
<path d="M416.554 73.0498L414.024 85.8843H410.669L411.989 79.1187L407.715 84.6194H406.121L403.793 79.1187L402.436 85.8843H399.101L401.668 73.0498H404.619L407.626 80.4747L413.457 73.0498H416.554Z" fill="white"/>
<g opacity="0.3">
<path d="M404.714 436.789C404.714 440.2 401.948 442.966 398.536 442.966C395.125 442.966 392.359 440.2 392.359 436.789C392.359 433.377 395.125 430.611 398.536 430.611C401.948 430.611 404.714 433.377 404.714 436.789Z" fill="black"/>
</g>
<path d="M424.894 273.25C424.894 273.443 400.313 273.598 369.998 273.598C339.673 273.598 315.097 273.441 315.097 273.25C315.097 273.058 339.673 272.901 369.998 272.901C400.313 272.901 424.894 273.057 424.894 273.25Z" fill="#263238"/>
<path d="M450.855 136.083C450.855 136.276 428.226 136.432 400.318 136.432C372.401 136.432 349.777 136.275 349.777 136.083C349.777 135.89 372.402 135.735 400.318 135.735C428.225 135.735 450.855 135.892 450.855 136.083Z" fill="#263238"/>
<path d="M322.486 312.221C322.471 312.206 322.458 311.907 322.442 311.343C322.428 310.728 322.411 309.913 322.389 308.886C322.361 306.707 322.321 303.633 322.271 299.774L322.486 299.987C311.976 300.068 295.258 300.122 276.473 300.122C276.627 299.967 276.122 300.47 276.819 299.774V299.776V299.783V299.795V299.821V299.87V299.971V300.172V300.572V301.371V302.96C276.819 304.016 276.817 305.064 276.817 306.102C276.814 308.181 276.813 310.223 276.81 312.22L276.47 311.879C289.547 311.941 300.987 311.996 309.23 312.035C313.304 312.076 316.586 312.108 318.917 312.132C320.015 312.151 320.887 312.166 321.545 312.177C322.148 312.191 322.471 312.206 322.486 312.221C322.5 312.236 322.207 312.25 321.631 312.265C320.992 312.276 320.143 312.291 319.077 312.309C316.763 312.332 313.509 312.366 309.468 312.406C301.164 312.445 289.641 312.5 276.47 312.561L276.13 312.563V312.22C276.128 310.222 276.126 308.181 276.124 306.102C276.124 305.064 276.123 304.016 276.123 302.96V301.371V300.572V300.172V299.971V299.87V299.821V299.795V299.783V299.776V299.774C276.821 299.076 276.319 299.581 276.474 299.424C295.26 299.424 311.976 299.476 322.487 299.559L322.704 299.561L322.701 299.772C322.652 303.685 322.612 306.802 322.584 309.012C322.562 310.019 322.545 310.818 322.531 311.421C322.514 311.962 322.499 312.234 322.486 312.221Z" fill="#263238"/>
<path d="M319.207 305.619C319.207 305.812 310.589 305.967 299.96 305.967C289.329 305.967 280.712 305.811 280.712 305.619C280.712 305.426 289.329 305.271 299.96 305.271C310.588 305.271 319.207 305.426 319.207 305.619Z" fill="#263238"/>
<path d="M268.618 99.6208C260.492 100.091 255.011 98.5916 247.482 94.7257L234.754 99.0312L238.423 86.1658C233.831 80.6812 232.631 74.8669 232.186 67.1767C231.084 48.1567 245.61 31.8462 264.63 30.7448C283.65 29.6433 299.96 44.1689 301.062 63.1888C302.162 82.2088 287.636 98.5193 268.618 99.6208Z" fill="white"/>
<path d="M268.618 99.6207C268.616 99.6087 268.817 99.5752 269.21 99.5202C269.633 99.4653 270.21 99.3916 270.949 99.2964C271.331 99.2442 271.761 99.2093 272.229 99.1289C272.695 99.0244 273.202 98.9119 273.748 98.7886C274.299 98.6653 274.89 98.534 275.52 98.392C276.136 98.1896 276.792 97.9739 277.484 97.7474C278.894 97.3548 280.348 96.6084 281.967 95.8915C282.741 95.456 283.548 95.0031 284.387 94.5314C285.214 94.0396 286.007 93.4259 286.864 92.847C290.176 90.3828 293.566 86.9698 296.188 82.4607C298.76 77.9543 300.622 72.3919 300.796 66.2681C300.766 64.7405 300.835 63.1821 300.591 61.617C300.483 60.8358 300.465 60.0331 300.282 59.2532C300.114 58.4693 299.944 57.6801 299.774 56.8841C298.92 53.7539 297.753 50.5794 295.943 47.6528C294.15 44.7276 291.907 41.9793 289.231 39.578C286.525 37.2089 283.383 35.2391 279.955 33.7704C273.113 30.7528 264.962 30.2516 257.336 32.3366C254.348 33.1835 251.527 34.4512 248.909 35.9962C246.366 37.6457 243.915 39.4373 241.923 41.6496L241.145 42.4429L240.445 43.3019L239.059 45.0144L237.85 46.8395L237.248 47.7466L236.739 48.7034C236.4 49.3399 236.062 49.9751 235.726 50.6062C235.451 51.2668 235.177 51.9248 234.903 52.58C234.299 53.8704 233.999 55.2573 233.565 56.5839C232.111 62.0016 232.326 67.5076 233.018 72.6237C233.389 75.1791 233.981 77.6447 234.93 79.9026C235.867 82.1672 237.164 84.1946 238.64 85.9822L238.737 86.0988L238.695 86.2422C237.367 90.8531 236.137 95.125 234.994 99.0981L234.673 98.7926C239.428 97.202 243.651 95.791 247.415 94.5314L247.497 94.5033L247.573 94.5421C250.659 96.134 253.512 97.391 256.105 98.1628C258.69 98.9628 260.984 99.3045 262.848 99.4773C264.716 99.6422 266.161 99.6207 267.134 99.6274C267.598 99.6194 267.962 99.6127 268.238 99.6073C268.49 99.6073 268.616 99.6114 268.618 99.6207C268.618 99.6207 266.604 99.9182 262.834 99.6971C260.957 99.5578 258.636 99.2469 256.018 98.4697C253.391 97.7206 250.504 96.4811 247.389 94.9066L247.547 94.9187C243.791 96.2037 239.578 97.6456 234.835 99.2683L234.383 99.4224L234.513 98.9614C235.638 94.9843 236.846 90.7044 238.15 86.0881L238.205 86.348C236.689 84.5297 235.349 82.4527 234.381 80.1345C233.398 77.8216 232.787 75.3037 232.403 72.7135C231.689 67.5585 231.451 61.948 232.924 56.4164C233.362 55.063 233.669 53.6493 234.281 52.3321C234.559 51.6635 234.838 50.9921 235.118 50.3181C235.459 49.6736 235.802 49.025 236.147 48.3751L236.665 47.3983L237.276 46.4723C237.685 45.8546 238.095 45.2328 238.507 44.6097L239.919 42.861L240.632 41.9846L241.425 41.1739C243.455 38.9174 245.952 37.0843 248.547 35.4012C251.218 33.8227 254.097 32.5283 257.147 31.664C264.929 29.5334 273.245 30.0533 280.223 33.1406C283.718 34.6428 286.919 36.6581 289.672 39.0782C292.395 41.5317 294.675 44.3377 296.494 47.3232C298.329 50.3101 299.511 53.5475 300.369 56.7367C300.539 57.5474 300.709 58.3514 300.877 59.15C301.06 59.946 301.076 60.7621 301.184 61.5567C301.424 63.1499 301.35 64.7352 301.373 66.2882C301.17 72.5139 299.247 78.1579 296.612 82.7126C293.925 87.2699 290.465 90.703 287.092 93.1646C286.22 93.7421 285.412 94.3545 284.572 94.8436C283.719 95.3113 282.899 95.7602 282.113 96.1917C280.469 96.8978 278.995 97.6308 277.567 98.0074C276.867 98.2258 276.203 98.4321 275.579 98.6264C274.941 98.7578 274.345 98.8797 273.789 98.9936C273.237 99.1048 272.725 99.208 272.254 99.3018C271.783 99.3715 271.349 99.3956 270.965 99.4371C270.22 99.5028 269.64 99.5551 269.214 99.5926C268.82 99.6234 268.618 99.6328 268.618 99.6207Z" fill="#263238"/>
<path d="M272.631 71.1885C271.603 72.2324 270.116 72.901 268.165 73.1945V76.0688H265.059V73.299C263.764 73.2132 262.538 72.9921 261.382 72.6384C260.225 72.2846 259.267 71.8491 258.509 71.3305L260.192 67.5517C261.003 68.0864 261.943 68.5192 263.013 68.8462C264.082 69.1745 265.135 69.338 266.171 69.338C268.138 69.338 269.122 68.8462 269.122 67.8626C269.122 67.3454 268.84 66.9608 268.28 66.7102C267.72 66.4596 266.818 66.197 265.576 65.921C264.212 65.6275 263.073 65.3126 262.159 64.9749C261.244 64.6386 260.458 64.0999 259.803 63.3575C259.147 62.6152 258.82 61.6142 258.82 60.3546C258.82 58.8712 259.354 57.5982 260.425 56.5369C261.494 55.4757 263.039 54.8244 265.059 54.5819V51.7344H268.165V54.5296C269.148 54.6167 270.093 54.7882 270.999 55.0482C271.905 55.3068 272.711 55.6432 273.42 56.0572L271.84 59.8628C270.115 58.9302 268.441 58.4638 266.818 58.4638C265.8 58.4638 265.057 58.6153 264.591 58.9168C264.125 59.2183 263.893 59.6122 263.893 60.0946C263.893 60.577 264.169 60.9402 264.721 61.1814C265.273 61.4239 266.162 61.6732 267.388 61.9331C268.768 62.2266 269.912 62.5415 270.818 62.8778C271.724 63.2141 272.509 63.7488 273.174 64.4831C273.838 65.2161 274.171 66.2131 274.171 67.4727C274.172 68.9065 273.659 70.1446 272.631 71.1885Z" fill="#263238"/>
<path d="M592.462 511.623C596.165 513.229 598.888 516.652 600.254 520.449C601.621 524.247 601.744 528.395 601.29 532.406C600.411 540.165 596.001 547.997 591.255 554.197C584.721 548.495 583.218 538.547 582.773 533.454C582.067 525.402 585.683 510.422 592.462 511.623Z" fill="#F89261"/>
<path d="M598.849 567.002C597.802 562.617 599.627 557.806 602.993 554.807C606.36 551.808 611.063 550.539 615.557 550.882C617.636 551.042 619.881 551.647 621.073 553.359C622.185 554.959 622.06 557.191 621.157 558.918C620.254 560.645 618.692 561.936 617.041 562.972C611.381 566.525 605.25 568.924 598.849 567.002Z" fill="#F89261"/>
<path d="M590.47 590.794C590.431 590.785 590.521 590.219 590.703 589.202C590.908 588.082 591.175 586.633 591.494 584.893C592.216 581.292 593.143 576.134 595.941 571.127C598.702 566.133 602.566 562.454 605.82 560.629C607.436 559.694 608.849 559.138 609.848 558.847C610.341 558.681 610.743 558.618 611.008 558.552C611.276 558.496 611.418 558.476 611.422 558.495C611.468 558.621 609.159 559.037 606.026 560.971C602.885 562.85 599.15 566.492 596.436 571.402C593.693 576.305 592.706 581.391 591.886 584.972C591.491 586.777 591.169 588.24 590.92 589.245C590.67 590.253 590.506 590.802 590.47 590.794Z" fill="#263238"/>
<path d="M590.716 523.272C590.736 523.271 590.763 523.511 590.797 523.968C590.827 524.485 590.866 525.147 590.916 525.967C591.008 527.705 591.112 530.219 591.211 533.328C591.412 539.544 591.57 548.139 591.53 557.63C591.487 567.125 591.255 575.717 590.999 581.932C590.872 585.04 590.748 587.554 590.64 589.29C590.584 590.11 590.539 590.772 590.505 591.288C590.467 591.745 590.438 591.984 590.419 591.984C590.4 591.982 590.391 591.742 590.391 591.284C590.399 590.767 590.408 590.102 590.42 589.282C590.464 587.473 590.525 584.975 590.6 581.92C590.752 575.704 590.921 567.117 590.964 557.629C591.003 548.144 590.909 539.556 590.81 533.339C590.762 530.283 590.723 527.786 590.695 525.975C590.689 525.154 590.685 524.489 590.683 523.972C590.685 523.514 590.696 523.274 590.716 523.272Z" fill="#263238"/>
<path d="M587.544 571.726C586.057 562.338 579.731 553.85 571.159 549.744C568.976 548.699 566.125 548.016 564.33 549.639C562.533 551.265 562.935 554.185 563.814 556.444C567.474 565.846 577.303 572.483 587.39 572.364" fill="#F89261"/>
<path d="M572.218 557.104C572.235 557.069 572.725 557.285 573.604 557.708C574.045 557.917 574.584 558.174 575.171 558.543C575.758 558.91 576.467 559.268 577.165 559.794C577.878 560.298 578.674 560.833 579.447 561.512C580.259 562.145 581.048 562.909 581.875 563.719C583.484 565.378 585.104 567.359 586.49 569.647C587.853 571.95 588.84 574.313 589.529 576.52C589.84 577.635 590.139 578.694 590.297 579.712C590.518 580.719 590.6 581.674 590.689 582.542C590.81 583.409 590.769 584.204 590.798 584.895C590.83 585.588 590.785 586.184 590.746 586.669C590.675 587.642 590.617 588.176 590.578 588.173C590.451 588.168 590.673 586.014 590.291 582.584C590.179 581.729 590.076 580.79 589.837 579.803C589.663 578.804 589.351 577.768 589.032 576.674C588.326 574.512 587.343 572.2 586.005 569.938C584.645 567.69 583.066 565.735 581.502 564.082C580.698 563.276 579.933 562.511 579.145 561.871C578.396 561.187 577.624 560.641 576.936 560.121C574.127 558.11 572.16 557.214 572.218 557.104Z" fill="#263238"/>
<path d="M159.046 511.402L123.392 544.014L163.739 588.581C167.76 584.466 155.435 553.671 155.435 553.671L177.71 532.128L159.046 511.402Z" fill="#455A64"/>
<path d="M144.89 538.143C143.873 537.495 142.364 537.776 141.674 538.765C140.984 539.754 141.257 541.291 142.262 541.958C143.267 542.624 145.089 542.341 145.664 541.282C146.239 540.222 145.82 538.434 144.683 538.028" fill="white"/>
<path d="M123.391 544.015L127.114 540.57L164.278 584.907C164.278 584.907 165.193 587.679 163.585 588.71L123.391 544.015Z" fill="#263238"/>
<path d="M156.314 554.19C156.091 554.38 155.006 553.382 153.337 552.944C151.679 552.463 150.237 552.764 150.142 552.487C150.003 552.248 151.598 551.395 153.609 551.96C155.626 552.505 156.557 554.056 156.314 554.19Z" fill="white"/>
<path d="M158.614 560.615C158.448 560.857 157.224 560.25 155.635 560.343C154.043 560.39 152.879 561.104 152.693 560.879C152.473 560.706 153.51 559.413 155.489 559.334C157.464 559.237 158.816 560.422 158.614 560.615Z" fill="white"/>
<path d="M155.422 568.335C155.146 568.145 155.79 566.959 157.708 566.372C159.403 565.84 160.802 566.44 160.704 566.696C160.636 566.982 159.399 566.9 158.011 567.347C156.613 567.763 155.639 568.532 155.422 568.335Z" fill="white"/>
<path d="M161.212 549.042C160.931 549.13 160.328 547.86 159.131 546.706C157.957 545.527 156.677 544.944 156.762 544.661C156.805 544.393 158.457 544.598 159.846 545.977C161.248 547.346 161.479 548.995 161.212 549.042Z" fill="white"/>
<path d="M165.539 543.194C165.452 543.278 164.538 542.54 163.529 540.952C163.028 540.161 162.523 539.152 162.133 537.968C161.938 537.374 161.774 536.739 161.653 536.07C161.599 535.746 161.512 535.381 161.567 534.92C161.575 534.474 162.03 533.815 162.634 533.772C163.183 533.69 163.697 533.96 163.995 534.275C164.304 534.594 164.478 534.919 164.637 535.217C164.967 535.821 165.223 536.436 165.417 537.035C165.8 538.237 165.937 539.372 165.929 540.317C165.908 542.217 165.414 543.306 165.305 543.27C165.144 543.237 165.369 542.116 165.207 540.349C165.125 539.468 164.925 538.43 164.526 537.343C164.324 536.8 164.072 536.248 163.761 535.704C163.457 535.12 163.098 534.715 162.777 534.784C162.657 534.812 162.621 534.836 162.572 535.059C162.537 535.276 162.586 535.58 162.638 535.901C162.737 536.528 162.874 537.127 163.032 537.69C163.35 538.817 163.76 539.798 164.159 540.597C164.959 542.197 165.66 543.09 165.539 543.194Z" fill="white"/>
<path d="M164.969 543.192C164.866 543.145 165.255 542.008 166.592 540.652C167.258 539.982 168.171 539.288 169.311 538.744C169.883 538.476 170.509 538.248 171.18 538.086C171.857 537.949 172.735 537.733 173.596 538.489C174.012 538.915 174 539.593 173.819 539.984C173.651 540.405 173.418 540.668 173.208 540.955C172.761 541.508 172.242 541.96 171.706 542.317C170.631 543.036 169.489 543.363 168.536 543.451C166.593 543.625 165.511 542.952 165.568 542.868C165.611 542.697 166.718 543.074 168.432 542.735C169.276 542.569 170.262 542.207 171.168 541.543C171.621 541.213 172.053 540.81 172.421 540.334C172.831 539.836 173.052 539.312 172.843 539.178C172.646 538.953 171.948 538.899 171.405 539.058C170.798 539.191 170.225 539.38 169.696 539.601C168.637 540.051 167.757 540.628 167.077 541.185C165.714 542.311 165.11 543.281 164.969 543.192Z" fill="white"/>
<path d="M150.437 542.832L150.89 591.15L211.008 590.895C210.631 585.153 179.482 573.755 179.482 573.755L180.461 542.785L150.437 542.832Z" fill="#455A64"/>
<path d="M160.88 571.229C159.718 571.552 158.919 572.864 159.194 574.038C159.469 575.212 160.795 576.036 161.964 575.733C163.131 575.43 164.137 573.885 163.733 572.749C163.328 571.613 161.717 570.731 160.656 571.306" fill="white"/>
<path d="M150.884 591.252L150.812 586.078L208.632 588.039C208.632 588.039 211.305 589.21 210.998 591.094L150.884 591.252Z" fill="#263238"/>
<path d="M180.454 573.446C180.445 573.739 178.979 573.879 177.539 574.829C176.074 575.741 175.334 577.016 175.064 576.9C174.793 576.844 175.223 575.087 176.988 573.968C178.739 572.833 180.516 573.176 180.454 573.446Z" fill="#263238"/>
<path d="M186.77 576.027C186.838 576.311 185.569 576.816 184.577 578.062C183.548 579.279 183.303 580.623 183.011 580.611C182.735 580.658 182.525 578.94 183.787 577.414C185.036 575.878 186.763 575.747 186.77 576.027Z" fill="#263238"/>
<path d="M190.384 583.559C190.117 583.623 189.703 582.157 190.45 580.546C191.185 578.929 192.567 578.29 192.693 578.534C192.859 578.775 191.972 579.641 191.38 580.972C190.754 582.29 190.675 583.528 190.384 583.559Z" fill="#263238"/>
<path d="M179.894 566.363C179.772 566.631 178.424 566.231 176.765 566.35C175.104 566.436 173.815 566.999 173.662 566.748C173.492 566.537 174.747 565.445 176.702 565.331C178.656 565.203 180.038 566.132 179.894 566.363Z" fill="#263238"/>
<path d="M149.033 267.146C149.033 267.146 145.199 280.632 144.76 281.603C140.815 290.337 130.399 311.931 130.399 311.931C130.399 311.931 122.48 340.058 124.247 353.316C126.014 366.574 137.863 457.245 137.863 457.245C137.863 457.245 135.532 529.127 145.67 561.107L147.542 569.589L181.433 563.573L188.941 385.637L209.621 267.992L149.033 267.146Z" fill="#263238"/>
<path d="M233.609 283.291C233.609 283.291 248.515 404.468 250.302 423.837C252.09 443.207 181.776 546.517 181.776 546.517L152.108 511.465L197.374 427.321L182.131 343.508L202.2 267.888L230.729 268.229L233.609 283.291Z" fill="#263238"/>
<path d="M140.482 533.95C140.482 533.95 140.499 534.803 140.725 536.417C140.931 538.035 141.329 540.411 141.892 543.481C143.02 549.62 144.848 558.522 147.302 569.644L147.353 569.876L147.587 569.834C157.167 568.155 168.665 566.14 181.49 563.893L181.748 563.849L181.758 563.587C182.7 540.326 183.827 512.524 185.035 482.708C186.286 450.627 187.445 420.879 188.397 396.475L188.394 396.503C190.935 376.897 193.036 360.684 194.507 349.34C195.216 343.705 195.774 339.281 196.157 336.231C196.334 334.745 196.47 333.595 196.567 332.786C196.654 332.006 196.675 331.601 196.675 331.601C196.675 331.601 196.591 331.998 196.472 332.772C196.354 333.579 196.186 334.725 195.97 336.205C195.547 339.25 194.932 343.668 194.149 349.293C192.615 360.629 190.422 376.829 187.77 396.42L187.767 396.433V396.448C186.777 420.85 185.569 450.596 184.268 482.675C183.104 512.492 182.018 540.297 181.11 563.559L181.378 563.252C168.562 565.557 157.072 567.622 147.501 569.344L147.787 569.533C145.268 558.431 143.366 549.547 142.156 543.428C141.553 540.369 141.112 538.001 140.862 536.395C140.722 535.592 140.645 534.98 140.588 534.568C140.529 534.16 140.482 533.95 140.482 533.95Z" fill="#455A64"/>
<path d="M169.729 57.538C169.779 55.0831 168.712 52.714 167.229 50.7576C165.586 48.5908 163.391 46.818 160.858 45.8304C156.193 44.0107 150.516 45.143 146.905 48.6136C143.295 52.0842 141.939 57.7122 143.574 62.4464C145.209 67.1806 151.188 72.0033 156.171 72.5058L163.706 66.7826C166.895 64.6668 169.65 61.3637 169.729 57.538Z" fill="#263238"/>
<path d="M149.478 47.2361C149.457 47.1999 149.75 46.9614 150.374 46.7027C150.994 46.4441 151.965 46.1989 153.184 46.2217C154.397 46.2512 155.856 46.5701 157.271 47.3674C158.689 48.1593 159.988 49.4457 160.956 51.0256C162.915 54.2349 163.073 57.739 162.919 60.0733C162.741 62.4504 162.323 63.8628 162.234 63.8454C162.108 63.8266 162.331 62.3794 162.363 60.0518C162.375 57.7551 162.122 54.4359 160.285 51.4356C159.377 49.9563 158.189 48.753 156.905 47.9932C155.623 47.2267 154.283 46.8729 153.153 46.7764C150.858 46.5942 149.524 47.3808 149.478 47.2361Z" fill="#455A64"/>
<path d="M145.163 65.0767C145.097 65.1062 144.668 63.8828 145.061 61.9049C145.426 59.9512 146.802 57.369 149.247 55.5158C151.691 53.6773 154.375 52.8921 156.273 52.4995C158.19 52.1149 159.396 52.0773 159.411 52.1725C159.43 52.2917 158.252 52.5236 156.406 53.0395C154.574 53.5607 152.025 54.4076 149.724 56.1416C147.437 57.8769 146.081 60.2326 145.602 62.0349C145.095 63.8533 145.306 65.066 145.163 65.0767Z" fill="#455A64"/>
<path d="M182.321 58.9032C174.864 57.775 168.382 60.7551 162.189 65.0592C155.996 69.3633 151.39 75.7738 148.792 82.8531C146.055 90.3102 145.507 98.6557 147.852 106.244C150.197 113.834 155.547 120.567 162.693 124.035C172.452 128.771 184.788 126.833 193.32 120.135C201.852 113.437 206.601 102.531 206.819 91.6863C206.969 84.2145 205.046 76.6087 200.761 70.4862C196.477 64.3637 189.734 59.8533 182.321 58.9032Z" fill="#263238"/>
<path d="M161.64 84.5644C162.676 81.7008 162.196 78.533 162.571 75.5113C163.398 68.8569 168.649 63.4379 174.787 60.7378C180.496 58.2266 187.534 58.6233 194.506 60.7378C199.285 62.1877 203.806 64.7846 207.043 68.5862C211.341 73.6326 212.953 80.8418 211.216 87.2376L177.168 82.9095C174.036 85.5975 170.83 88.3311 167 89.8681C165.876 90.3197 164.664 90.6654 163.466 90.4965C162.267 90.329 161.091 89.5371 160.785 88.3659C160.451 87.0876 161.191 85.8092 161.64 84.5644Z" fill="#263238"/>
<path d="M195.403 70.1004L165.869 76.9196C163.004 77.1622 160.802 79.5581 160.8 82.4324L162.322 146.588C162.425 150.969 163.972 155.196 166.72 158.61L169.614 162.205C176.212 170.402 189.255 169.327 194.01 159.942C194.343 159.285 194.57 158.712 194.662 158.25C194.751 157.671 194.896 157.287 194.915 156.796C195.669 151.811 195.253 147.071 195.253 147.071C195.437 141.354 195.484 139.007 195.487 139.061C195.487 139.061 207.593 137.307 210.416 121.618C211.82 113.815 211.692 100.973 211.248 90.4684C210.849 81.0147 204.832 69.3004 195.403 70.1004Z" fill="#B5675E"/>
<path d="M206.952 102.39C206.968 103.457 206.077 104.351 204.964 104.387C203.853 104.423 202.936 103.591 202.92 102.523C202.904 101.456 203.795 100.562 204.906 100.525C206.02 100.49 206.936 101.324 206.952 102.39Z" fill="#263238"/>
<path d="M208.328 97.0894C208.072 97.3481 206.566 96.1849 204.394 96.1447C202.225 96.0751 200.607 97.1591 200.378 96.8884C200.264 96.7678 200.529 96.2988 201.233 95.8071C201.927 95.318 203.102 94.853 204.456 94.8865C205.809 94.9213 206.936 95.4439 207.581 95.9665C208.237 96.4931 208.454 96.9742 208.328 97.0894Z" fill="#263238"/>
<path d="M187.543 102.414C187.56 103.481 186.668 104.375 185.555 104.411C184.444 104.447 183.528 103.615 183.511 102.548C183.495 101.482 184.386 100.587 185.497 100.551C186.612 100.513 187.529 101.348 187.543 102.414Z" fill="#263238"/>
<path d="M187.706 96.9354C187.45 97.1926 185.942 96.0309 183.77 95.9907C181.602 95.9197 179.983 97.0051 179.753 96.7344C179.64 96.6138 179.901 96.1448 180.609 95.653C181.303 95.1639 182.478 94.6989 183.83 94.7311C185.184 94.7672 186.311 95.2885 186.955 95.8124C187.612 96.3391 187.83 96.8201 187.706 96.9354Z" fill="#263238"/>
<path d="M194.518 113.326C194.51 113.203 195.865 112.998 198.06 112.762C198.616 112.715 199.143 112.617 199.244 112.241C199.384 111.842 199.164 111.24 198.908 110.589C198.415 109.235 197.898 107.818 197.354 106.331C195.2 100.271 193.654 95.2912 193.898 95.2081C194.143 95.1237 196.087 99.9678 198.241 106.027C198.758 107.521 199.254 108.946 199.724 110.309C199.921 110.942 200.268 111.666 199.967 112.491C199.809 112.903 199.395 113.195 199.038 113.283C198.68 113.385 198.368 113.384 198.093 113.395C195.89 113.468 194.524 113.45 194.518 113.326Z" fill="#263238"/>
<path d="M195.488 139.063C195.488 139.063 184.885 139.526 174.524 133.004C174.524 133.004 179.599 144.01 195.384 142.861L195.488 139.063Z" fill="#894943"/>
<path d="M193.492 118.543C192.732 117.494 191.375 116.899 190.013 117.017C189.068 117.098 188.106 117.534 187.518 118.29C186.93 119.045 186.786 120.132 187.293 120.875C187.862 121.711 189.083 121.926 190.126 121.653C191.168 121.38 192.075 120.715 192.936 120.053C193.174 119.87 193.418 119.678 193.569 119.423C193.721 119.169 193.76 118.832 193.583 118.615" fill="#894943"/>
<path d="M188.094 114.697C188.448 114.684 188.404 117.042 190.387 118.757C192.366 120.478 194.885 120.265 194.897 120.595C194.928 120.743 194.328 121.041 193.267 121.047C192.225 121.062 190.713 120.696 189.498 119.647C188.288 118.597 187.787 117.215 187.727 116.246C187.659 115.259 187.933 114.68 188.094 114.697Z" fill="#263238"/>
<path d="M187.467 90.4938C187.241 91.0794 185.078 90.7551 182.524 91.0097C179.963 91.2134 177.893 91.9169 177.566 91.3795C177.42 91.1236 177.79 90.5755 178.632 90.0208C179.467 89.4674 180.793 88.9515 182.327 88.8121C183.86 88.6768 185.256 88.9474 186.177 89.3454C187.103 89.7407 187.565 90.2151 187.467 90.4938Z" fill="#263238"/>
<path d="M207.894 87.5765C207.501 88.0616 206.015 87.5189 204.217 87.4572C202.42 87.3326 200.887 87.7199 200.547 87.1973C200.398 86.944 200.649 86.4549 201.324 86.0007C201.99 85.5491 203.095 85.1913 204.331 85.2543C205.566 85.3186 206.629 85.7889 207.244 86.3062C207.869 86.8274 208.067 87.3393 207.894 87.5765Z" fill="#263238"/>
<path d="M156.122 80.0847C159.031 71.0008 172.228 58.4557 181.741 59.1364L196.921 68.2766C195.992 73.453 191.987 77.9541 186.952 79.4776C184.264 80.291 181.028 80.5108 179.427 82.8183C177.791 85.174 178.74 88.6111 177.216 91.0418C175.105 94.4106 169.354 94.2404 167.769 97.8852C167.076 99.4771 167.433 101.383 166.712 102.962C165.751 105.068 160.414 107.729 158.209 107.025C156.005 106.322 156.005 102.567 155.287 100.597C154.061 97.2326 154.571 95.4906 154.98 93.6133C155.952 89.1672 154.735 84.4196 156.122 80.0847Z" fill="#263238"/>
<path d="M164.716 108.896C164.738 107.723 163.441 104.932 162.286 104.727C159.205 104.182 153.628 104.314 153.414 112.164C153.121 122.895 163.954 120.975 163.982 120.668C164.002 120.428 164.641 112.944 164.716 108.896Z" fill="#B5675E"/>
<path d="M160.814 116.514C160.767 116.479 160.624 116.64 160.304 116.776C159.991 116.909 159.459 116.992 158.906 116.767C157.783 116.321 156.879 114.494 156.879 112.559C156.877 111.583 157.108 110.658 157.475 109.897C157.823 109.121 158.346 108.586 158.919 108.501C159.49 108.384 159.886 108.736 160.009 109.042C160.144 109.346 160.07 109.559 160.127 109.578C160.155 109.606 160.361 109.405 160.288 108.96C160.249 108.746 160.131 108.489 159.884 108.275C159.632 108.06 159.257 107.942 158.858 107.974C158.028 108.009 157.263 108.75 156.86 109.585C156.411 110.422 156.13 111.461 156.131 112.558C156.14 114.722 157.192 116.775 158.732 117.267C159.481 117.484 160.117 117.274 160.45 117.03C160.787 116.774 160.85 116.534 160.814 116.514Z" fill="#894943"/>
<path d="M193.748 65.0912C194.814 69.4395 201.55 74.9161 204.524 78.2607C210.197 84.6445 211.332 86.7778 211.541 101.275C214.074 96.2207 215.994 91.2788 215.69 85.6334C215.386 79.988 213.202 74.3667 209.202 70.3735C205.201 66.3803 199.326 64.18 193.748 65.0912Z" fill="#263238"/>
<path d="M146.851 95.5055C146.863 95.4492 147.706 95.6583 149.223 96.0281C150.739 96.3685 152.951 96.95 155.69 96.8844C157.053 96.8415 158.54 96.5775 160.017 95.9155C161.481 95.2576 162.945 94.1802 163.968 92.5695C165.027 90.9816 165.334 88.7988 166.253 86.7137C167.182 84.6113 168.984 82.9282 171.137 82.3212C173.312 81.741 175.44 82.281 177.232 81.6003C179.045 80.9464 180.018 78.9685 180.823 77.1703C181.605 75.3237 182.585 73.5617 183.815 72.298C185.034 71.0183 186.396 70.1366 187.7 69.547C190.33 68.3557 192.705 68.3986 194.24 68.6881C195.015 68.8368 195.606 69.0204 195.989 69.1959C196.376 69.3607 196.573 69.4586 196.565 69.484C196.542 69.5658 195.733 69.1973 194.205 68.9922C192.694 68.8006 190.4 68.8502 187.89 70.0629C186.646 70.6632 185.356 71.5369 184.212 72.7764C183.051 74.0159 182.172 75.6306 181.392 77.5066C180.981 78.4285 180.543 79.3933 179.929 80.2858C179.321 81.1715 178.468 81.9567 177.451 82.3333C175.409 83.0877 173.26 82.537 171.309 83.0864C169.355 83.6371 167.707 85.1661 166.856 87.0742C165.988 88.9877 165.655 91.251 164.486 93.001C163.355 94.7417 161.775 95.8619 160.227 96.5266C158.669 97.1966 157.106 97.4351 155.701 97.4445C152.876 97.4378 150.662 96.7624 149.159 96.3296C148.406 96.1004 147.827 95.9035 147.434 95.7641C147.048 95.618 146.846 95.531 146.851 95.5055Z" fill="#455A64"/>
<path d="M153.39 75.683C153.319 75.6536 153.709 74.465 154.728 72.7284C155.738 70.9931 157.457 68.7553 159.818 66.7707C162.188 64.7942 164.695 63.4958 166.58 62.8057C168.469 62.1089 169.708 61.9333 169.724 62.0097C169.82 62.2321 164.892 63.3939 160.274 67.3148C155.604 71.1699 153.591 75.817 153.39 75.683Z" fill="#F89261"/>
<path d="M268.582 211.442L224.416 229.388L226.103 250.864L271.411 231.154L275.347 219.917L268.582 211.442Z" fill="#B5675E"/>
<path d="M257.336 214.034L260.642 241.305L232.894 258.426L230.414 222.814L257.336 214.034Z" fill="#455A64"/>
<path d="M206.334 158.843C207.265 160.706 228.338 190.092 230.51 203.806C231.974 213.044 234.34 244.78 235.477 265.56C235.624 268.271 237.954 271.093 237.496 273.218C235.842 280.876 231.875 280.138 226.713 279.699L169.039 278.059L143.476 280.895L156.311 242.64C156.311 242.64 145.233 192.373 143.476 190.82C141.719 189.268 150.842 147.995 150.842 147.995L161.234 147.043C161.234 147.043 180.516 156.501 190.34 154.982C195.487 154.186 196.009 149.299 196.009 149.299L206.334 158.843Z" fill="#455A64"/>
<path d="M293.33 213.393V211.442H319.986V213.393" fill="#263238"/>
<path d="M268.583 211.443L284.692 206.277L301.723 208.375C301.723 208.375 302.186 210.819 299.07 211.443C295.955 212.066 288.676 211.443 288.676 211.443C288.676 211.443 288.52 219.698 278.708 222.034L272.321 222.812L268.583 211.443Z" fill="#B5675E"/>
<path d="M294.304 211.713C294.308 211.713 295.018 211.611 295.508 213.661C295.999 215.712 294.905 218.654 294.905 218.654C294.905 218.654 295.728 221.713 294.302 222.814C292.878 223.914 292.878 223.914 292.878 223.914C292.878 223.914 292.79 228.55 291.362 229.798C289.937 231.045 278.167 235.147 278.167 235.147L269.252 231.491L272.64 221.596L286.726 212.859L288.674 211.442L294.304 211.713Z" fill="#B5675E"/>
<path d="M292.8 222.813C292.757 222.867 292.142 222.46 291.115 221.708C290.087 220.958 288.646 219.864 286.954 218.55L287.296 218.583C286.631 218.952 286.015 219.531 285.913 220.345C285.771 221.145 286.051 222.052 286.474 222.894C286.742 223.419 287.071 223.927 287.415 224.361L288.263 225.433L287.014 224.901C285.421 224.222 283.65 224.497 282.465 225.223L282.141 225.422L282.028 225.063C281.528 223.461 280.273 222.544 279.391 222.158C278.48 221.758 277.878 221.763 277.885 221.683C277.877 221.642 278.496 221.511 279.514 221.842C280.494 222.164 281.945 223.069 282.588 224.886L282.151 224.727C283.459 223.861 285.442 223.501 287.285 224.266L286.886 224.806C286.486 224.31 286.15 223.79 285.852 223.211C285.396 222.298 285.057 221.268 285.244 220.229C285.397 219.161 286.238 218.413 287.005 218.028L287.192 217.935L287.347 218.062C289.004 219.421 290.39 220.584 291.35 221.419C292.309 222.249 292.843 222.759 292.8 222.813Z" fill="#894943"/>
<path d="M287.149 218.303C287.115 218.334 286.449 217.757 285.965 216.403C285.736 215.743 285.659 214.758 286.194 213.872C286.734 213.001 287.672 212.393 288.768 212.08L288.941 212.031L289.084 212.159C289.188 212.252 289.297 212.35 289.409 212.449C292.686 215.39 295.238 217.889 295.109 218.033C294.98 218.176 292.22 215.909 288.942 212.967C288.831 212.868 288.721 212.769 288.619 212.677L288.934 212.756C288.015 213.01 287.165 213.545 286.73 214.207C286.288 214.878 286.282 215.661 286.431 216.28C286.746 217.534 287.266 218.238 287.149 218.303Z" fill="#894943"/>
<path d="M105.995 178.103C107.155 179.495 191.195 240.522 191.195 240.522L149.23 323.127C149.23 323.127 120.381 309.668 96.4809 296.211C72.5807 282.752 48.2168 249.107 48.2168 249.107L105.995 178.103Z" fill="#F89261"/>
<path d="M149.869 148.545C148.99 148.427 134.15 146.86 125.213 166.749C120.472 177.3 105.951 210.287 103.094 218.303C101.186 223.658 95.263 244.826 100.799 253.737C105.853 261.874 111.423 263.3 123.124 260.757C135.299 258.112 164.266 240.818 164.266 240.818L151.597 214.869L143.252 217.775L150.59 199.879C155.308 186.462 158.227 168.781 158.4 168.601C158.695 168.293 165.248 150.616 149.869 148.545Z" fill="#455A64"/>
<path d="M142.853 252.602C142.845 252.587 142.972 252.497 143.227 252.338C143.535 252.153 143.909 251.929 144.363 251.657C145.438 251.04 146.893 250.207 148.702 249.17C152.525 247.03 157.834 244.059 164.116 240.543L163.986 240.954C161.467 235.818 158.596 229.969 155.563 223.785C154.089 220.761 152.655 217.817 151.292 215.019L151.697 215.194C142.443 218.054 134.427 220.743 128.751 222.764C125.908 223.766 123.66 224.628 122.111 225.211C121.39 225.488 120.804 225.713 120.338 225.891C119.932 226.041 119.716 226.11 119.708 226.091C119.7 226.072 119.9 225.966 120.291 225.78C120.747 225.574 121.318 225.312 122.022 224.992C123.546 224.341 125.774 223.414 128.6 222.354C134.246 220.216 142.239 217.444 151.498 214.546L151.776 214.458L151.904 214.721C153.273 217.516 154.712 220.458 156.191 223.481C159.202 229.677 162.05 235.537 164.55 240.682L164.681 240.953L164.42 241.095C158.089 244.52 152.737 247.416 148.884 249.501C147.04 250.474 145.557 251.256 144.461 251.835C143.988 252.074 143.599 252.269 143.279 252.43C143.005 252.557 142.861 252.616 142.853 252.602Z" fill="#263238"/>
<path d="M204.785 199.311L212.788 185.752C214.104 183.523 216.919 182.692 219.233 183.85L239.147 194.976C241.76 196.284 243.446 199.339 241.063 202.782L215.761 242.461C214.356 244.665 211.473 245.387 209.194 244.105L189.795 233.193C187.351 231.818 186.547 228.684 188.025 226.303L204.785 199.311Z" fill="#263238"/>
<path d="M147.642 148.472L150.511 147.451C152.54 146.729 154.764 146.603 156.814 147.267C158.148 147.7 159.571 148.481 160.792 149.859C168.534 158.594 168.647 183.672 168.878 189.706C169.11 195.739 171.663 230.421 171.663 230.421H161.453C161.453 230.421 162.579 182.622 162.7 175.514C163.088 152.564 147.642 148.472 147.642 148.472Z" fill="#F89261"/>
<path d="M156.469 188.111C156.555 188.146 156 189.803 154.971 192.432C153.942 195.061 152.425 198.656 150.6 202.558C148.773 206.461 146.986 209.931 145.627 212.404C144.268 214.879 143.353 216.368 143.271 216.324C143.183 216.276 143.945 214.706 145.189 212.178C146.432 209.649 148.145 206.156 149.967 202.263C151.787 198.37 153.372 194.818 154.515 192.243C155.658 189.666 156.376 188.075 156.469 188.111Z" fill="#263238"/>
<path d="M289.121 212.831C289.058 212.876 288.554 212.264 288.384 211.036C288.307 210.429 288.33 209.68 288.591 208.888C288.666 208.685 288.757 208.45 288.992 208.245C289.226 208.025 289.636 207.989 289.896 208.092C290.424 208.305 290.696 208.587 291.08 208.845C293.991 210.999 295.754 213.38 295.609 213.487C295.455 213.623 293.5 211.5 290.663 209.406C290.317 209.16 289.934 208.839 289.677 208.741C289.544 208.699 289.49 208.707 289.414 208.76C289.336 208.817 289.253 208.955 289.193 209.109C288.937 209.777 288.863 210.445 288.874 210.999C288.906 212.118 289.224 212.786 289.121 212.831Z" fill="#894943"/>
<path d="M289.029 211.192C289.067 211.221 288.839 211.437 288.38 211.391C287.943 211.369 287.33 211.131 287.034 211.736C286.489 213.021 285.52 214.999 283.937 216.667C282.375 218.378 280.583 219.525 279.222 220.159C277.851 220.793 276.931 220.97 276.906 220.891C276.803 220.692 280.409 219.525 283.423 216.194C284.961 214.555 285.884 212.83 286.623 211.461C286.843 211.102 287.32 210.873 287.663 210.936C287.999 210.973 288.229 211.075 288.422 211.123C288.8 211.239 289.001 211.145 289.029 211.192Z" fill="#894943"/>
<path d="M234.96 267.391C234.912 267.395 234.805 266.749 234.651 265.576C234.495 264.402 234.301 262.7 234.085 260.595C233.651 256.385 233.146 250.558 232.732 244.112C232.321 237.663 232.081 231.82 231.975 227.588C231.921 225.472 231.897 223.76 231.903 222.575C231.905 221.39 231.931 220.737 231.979 220.734C232.027 220.733 232.094 221.385 232.175 222.566C232.252 223.882 232.351 225.561 232.469 227.568C232.723 231.927 233.059 237.692 233.43 244.067C233.874 250.435 234.274 256.196 234.579 260.552C234.717 262.558 234.833 264.236 234.923 265.55C234.993 266.731 235.009 267.387 234.96 267.391Z" fill="#263238"/>
<path d="M176.282 232.017C176.302 232.03 176.146 232.321 175.833 232.863C175.476 233.462 175.011 234.245 174.43 235.221C173.149 237.322 171.368 240.247 169.184 243.833C164.716 251.163 158.613 261.175 151.87 272.238C145.163 283.328 139.095 293.364 134.653 300.71C132.473 304.298 130.695 307.225 129.417 309.328C128.816 310.291 128.335 311.065 127.967 311.655C127.629 312.183 127.441 312.455 127.42 312.443C127.399 312.431 127.546 312.137 127.845 311.584C128.185 310.976 128.629 310.181 129.182 309.19C130.414 307.059 132.127 304.094 134.229 300.458C138.525 293.106 144.53 282.989 151.273 271.876C158.011 260.768 164.215 250.771 168.766 243.573C171.029 240.036 172.874 237.15 174.201 235.077C174.827 234.131 175.33 233.371 175.714 232.79C176.066 232.27 176.26 232.003 176.282 232.017Z" fill="#263238"/>
<path d="M189.23 228.947C189.209 228.935 189.338 228.673 189.6 228.187C189.906 227.64 190.296 226.942 190.777 226.079C191.869 224.187 193.374 221.581 195.215 218.393C199.061 211.868 204.296 202.986 210.081 193.17C210.811 191.941 211.533 190.727 212.245 189.531C212.942 188.361 213.636 187.046 214.784 186.165C215.352 185.732 216.012 185.375 216.742 185.269C217.457 185.141 218.243 185.295 218.843 185.62C220.025 186.203 221.128 186.822 222.217 187.421C226.551 189.836 230.4 192.095 233.612 194.03C235.218 194.999 236.661 195.892 237.91 196.71C238.528 197.12 239.129 197.498 239.582 197.999C240.032 198.493 240.294 199.071 240.396 199.606C240.579 200.69 240.317 201.517 240.129 202.033C239.924 202.553 239.754 202.795 239.735 202.785C239.712 202.773 239.839 202.511 239.996 201.989C240.138 201.471 240.341 200.657 240.13 199.664C240.015 199.175 239.76 198.661 239.337 198.226C238.922 197.79 238.328 197.434 237.698 197.04C236.437 196.259 234.979 195.396 233.359 194.456C230.119 192.579 226.245 190.365 221.905 187.987C220.819 187.4 219.702 186.782 218.555 186.225C217.487 185.631 216.187 185.909 215.206 186.706C214.189 187.494 213.561 188.669 212.847 189.879C212.135 191.077 211.414 192.292 210.685 193.521C204.829 203.299 199.531 212.148 195.638 218.647C193.718 221.788 192.149 224.357 191.009 226.222C190.481 227.057 190.053 227.734 189.719 228.263C189.419 228.722 189.252 228.959 189.23 228.947Z" fill="#E0E0E0"/>
<path d="M151.936 215.563C151.936 215.563 174.036 204.79 180.439 203.785C186.841 202.782 207.39 202.782 207.39 202.782C207.39 202.782 219.154 207.446 220.94 211.442C222.726 215.438 220.94 216.963 220.94 216.963C220.94 216.963 221.601 219.072 220.633 221.024C220.129 222.043 217.855 222.432 217.855 222.432L218.075 223.422C218.075 223.422 218.11 224.232 216.175 224.973C214.239 225.713 212.877 224.37 212.877 224.37L206.794 221.638L199.275 220.734L205.656 223.012C205.656 223.012 211.201 225.031 211.894 226.658C212.297 227.604 211.709 229.138 209.921 228.839C208.135 228.542 184.607 224.372 184.607 224.372L180.736 223.293C180.736 223.293 162.231 236.014 162.243 236.075C162.255 236.138 151.936 215.563 151.936 215.563Z" fill="#B5675E"/>
<path d="M199.275 214.461C199.252 214.397 200.41 213.967 202.376 213.933C204.331 213.88 207.058 214.335 209.792 215.547C212.54 216.737 214.693 218.459 216.024 219.878C217.357 221.311 217.915 222.397 217.856 222.432C217.755 222.503 217.058 221.531 215.675 220.227C214.29 218.936 212.17 217.337 209.51 216.186C206.865 215.015 204.257 214.5 202.368 214.427C200.472 214.333 199.301 214.583 199.275 214.461Z" fill="#894943"/>
<path d="M221.035 217.306C220.964 217.378 220.03 216.568 218.351 215.482C216.67 214.399 214.325 212.896 211.783 211.184C210.496 210.351 209.33 209.429 208.181 208.916C207.014 208.428 205.825 208.257 204.848 208.171C202.872 208.01 201.639 208.235 201.621 208.126C201.599 208.049 202.822 207.642 204.874 207.678C205.893 207.708 207.123 207.82 208.431 208.324C209.731 208.871 210.885 209.775 212.173 210.603C214.719 212.318 217.007 213.878 218.635 215.078C220.266 216.285 221.102 217.243 221.035 217.306Z" fill="#894943"/>
<ellipse cx="564.825" cy="43.2695" rx="16.225" ry="16.7793" fill="#D56F3E"/>
<ellipse cx="82.2925" cy="365.432" rx="16.225" ry="16.7793" transform="rotate(180 82.2925 365.432)" fill="#191046"/>
<ellipse cx="105.981" cy="32.5313" rx="10.384" ry="10.7387" transform="rotate(180 105.981 32.5313)" fill="#D56F3E"/>
<ellipse cx="581.051" cy="230.862" rx="10.384" ry="10.7387" transform="rotate(180 581.051 230.862)" fill="#191046"/>
<ellipse cx="587.216" cy="88.2378" rx="10.384" ry="10.7387" fill="#C6ABFF"/>
<ellipse cx="59.9021" cy="320.463" rx="10.384" ry="10.7387" transform="rotate(180 59.9021 320.463)" fill="#1F7CFF"/>
<ellipse cx="591.434" cy="581.885" rx="10.384" ry="10.7387" transform="rotate(180 591.434 581.885)" fill="#94B2FF"/>
</g>
<defs>
<clipPath id="clip0_478_5046">
<rect x="0.5" width="647" height="600" rx="16" fill="white"/>
</clipPath>
</defs>
</svg>
