<svg width="271" height="309" viewBox="0 0 271 309" fill="none" xmlns="http://www.w3.org/2000/svg">
<path d="M0 308V155.853H46.0052C51.1991 155.853 56.1416 153.617 59.5702 149.715L185.102 6.86816H270.882L153.5 155.853L252.823 304.838H153.5L90.2939 208.719C40.6323 228.088 22.5735 268.533 0 308Z" fill="#D56F3E"/>
<path d="M54.1763 5.51514V127.412C54.1763 132.399 50.1338 136.442 45.147 136.442H27.0882H0V5.51514H54.1763Z" fill="#D56F3E"/>
<path d="M77.691 308.368L77.6909 242C55.1175 245.162 46.4561 256.869 37.4561 272.369L19 308.368H77.691Z" fill="#D56F3E"/>
<path d="M81.2651 88.1321L144.5 6L81.2651 6L81.2651 88.1321Z" fill="#D56F3E"/>
</svg>
