<svg width="24" height="24" viewBox="0 0 24 24" fill="none" xmlns="http://www.w3.org/2000/svg">
<g clip-path="url(#clip0_1046_6848)">
<path d="M12 24C18.6274 24 24 18.6274 24 12C24 5.37258 18.6274 0 12 0C5.37258 0 0 5.37258 0 12C0 18.6274 5.37258 24 12 24Z" fill="#F0F0F0"/>
<path d="M11.4783 12.0001H24C24 10.9169 23.8556 9.86779 23.5866 8.86963H11.4783V12.0001Z" fill="#D80027"/>
<path d="M11.4783 5.73934H22.2387C21.5041 4.54065 20.565 3.48114 19.4698 2.60889H11.4783V5.73934Z" fill="#D80027"/>
<path d="M11.9999 24.0003C14.8241 24.0003 17.4199 23.0242 19.4697 21.3916H4.53003C6.57992 23.0242 9.17572 24.0003 11.9999 24.0003Z" fill="#D80027"/>
<path d="M1.76122 18.2608H22.2387C22.8284 17.2986 23.2857 16.2467 23.5865 15.1304H0.41333C0.714127 16.2467 1.17149 17.2986 1.76122 18.2608Z" fill="#D80027"/>
<path d="M12 12C12 5.37262 12 4.59131 12 0C5.37262 0 0 5.37262 0 12H12Z" fill="#0052B4"/>
<path d="M7.97976 10.2718C6.34092 10.2718 5.01239 8.94327 5.01239 7.30447C5.01239 5.66567 6.34097 4.33709 7.97976 4.33709C8.49075 4.33709 8.97154 4.46633 9.39131 4.69377C8.73281 4.04984 7.83225 3.65234 6.83845 3.65234C4.82147 3.65234 3.18628 5.28748 3.18628 7.30452C3.18628 9.32155 4.82147 10.9567 6.83845 10.9567C7.83225 10.9567 8.73281 10.5592 9.39131 9.91527C8.97154 10.1426 8.49079 10.2718 7.97976 10.2718Z" fill="#FFDA44"/>
<path d="M8.81598 5.21729L9.34281 6.31894L10.5325 6.04407L9.99976 7.14277L10.9566 7.90153L9.76529 8.17008L9.76862 9.39122L8.81598 8.62725L7.86329 9.39122L7.86657 8.17008L6.67529 7.90153L7.63211 7.14277L7.09928 6.04407L8.28911 6.31894L8.81598 5.21729Z" fill="#FFDA44"/>
</g>
<defs>
<clipPath id="clip0_1046_6848">
<rect width="24" height="24" fill="white"/>
</clipPath>
</defs>
</svg>
