<svg width="730" height="1024" viewBox="0 0 730 1024" fill="none" xmlns="http://www.w3.org/2000/svg">
<g clip-path="url(#clip0_88_1229)">
<rect width="730" height="1024" fill="#804325"/>
<circle cx="350" cy="448.003" r="307.049" fill="#974F2C"/>
<path d="M784.745 197C729.491 101.298 644.203 26.5018 542.107 -15.7876C440.011 -58.0769 326.815 -65.4962 220.073 -36.8947C113.331 -8.29331 19.0092 54.7304 -48.2634 142.402C-115.536 230.073 -152 337.493 -152 448C-152 558.507 -115.536 665.927 -48.2633 753.598C19.0093 841.27 113.331 904.293 220.073 932.895C326.815 961.496 440.012 954.077 542.107 911.787C644.203 869.498 729.491 794.702 784.745 699L684.435 641.086C641.93 714.707 576.32 772.245 497.782 804.776C419.243 837.308 332.164 843.016 250.051 821.014C167.938 799.011 95.3797 750.529 43.6291 683.087C-8.12152 615.644 -36.1721 533.01 -36.1721 448C-36.1721 362.99 -8.12157 280.356 43.629 212.913C95.3797 145.471 167.938 96.9886 250.051 74.9864C332.164 52.9843 419.243 58.6917 497.782 91.2235C576.32 123.755 641.93 181.293 684.435 254.914L784.745 197Z" fill="#D56F3E"/>
<circle cx="558" cy="842.002" r="179.825" fill="#974F2C"/>
<path d="M812.611 695C780.252 638.951 730.302 595.146 670.509 570.379C610.716 545.612 544.421 541.267 481.907 558.018C419.393 574.768 364.153 611.679 324.754 663.024C285.355 714.37 264 777.281 264 842C264 906.72 285.355 969.63 324.754 1020.98C364.153 1072.32 419.393 1109.23 481.907 1125.98C544.421 1142.73 610.716 1138.39 670.509 1113.62C730.302 1088.85 780.252 1045.05 812.612 989L753.864 955.082C728.971 998.199 690.546 1031.9 644.549 1050.95C598.553 1070 547.554 1073.34 499.464 1060.46C451.374 1047.57 408.88 1019.18 378.572 979.68C348.264 940.182 331.835 891.787 331.835 842C331.835 792.213 348.263 743.818 378.572 704.32C408.88 664.821 451.374 636.428 499.464 623.542C547.554 610.656 598.553 613.999 644.549 633.051C690.546 652.104 728.971 685.801 753.864 728.918L812.611 695Z" fill="#D56F3E"/>
</g>
<defs>
<clipPath id="clip0_88_1229">
<rect width="730" height="1024" fill="white"/>
</clipPath>
</defs>
</svg>
