<svg width="130" height="70" viewBox="0 0 130 70" fill="none" xmlns="http://www.w3.org/2000/svg">
<g opacity="0.6">
<g clip-path="url(#clip0_19_52)">
<path d="M18.3334 26.6292L8.04779 32.3867L10.3447 20.825L1.68945 12.8217L13.3955 11.4333L18.3334 0.729164L23.2713 11.4333L34.9774 12.8217L26.3222 20.825L28.619 32.3867L18.3334 26.6292ZM18.3334 23.2867L24.527 26.7531L23.143 19.7925L28.3536 14.9727L21.3055 14.1371L18.3334 7.69271L15.3613 14.1385L8.3132 14.9727L13.5238 19.7925L12.1399 26.7531L18.3334 23.2867Z" fill="#F87000"/>
</g>
<g clip-path="url(#clip1_19_52)">
<path d="M65 26.6292L54.7144 32.3867L57.0113 20.825L48.3561 12.8217L60.0621 11.4333L65 0.729164L69.938 11.4333L81.644 12.8217L72.9888 20.825L75.2857 32.3867L65 26.6292ZM65 23.2867L71.1936 26.7531L69.8096 19.7925L75.0202 14.9727L67.9721 14.1371L65 7.69271L62.028 14.1385L54.9798 14.9727L60.1905 19.7925L58.8065 26.7531L65 23.2867Z" fill="#F87000"/>
</g>
<g clip-path="url(#clip2_19_52)">
<path d="M111.667 26.6292L101.381 32.3867L103.678 20.825L95.0228 12.8217L106.729 11.4333L111.667 0.729164L116.605 11.4333L128.311 12.8217L119.656 20.825L121.952 32.3867L111.667 26.6292ZM111.667 23.2867L117.86 26.7531L116.476 19.7925L121.687 14.9727L114.639 14.1371L111.667 7.69271L108.695 14.1385L101.647 14.9727L106.857 19.7925L105.473 26.7531L111.667 23.2867Z" fill="#F87000"/>
</g>
<g clip-path="url(#clip3_19_52)">
<path d="M41.6668 61.6292L31.3812 67.3867L33.678 55.825L25.0228 47.8217L36.7289 46.4333L41.6668 35.7292L46.6047 46.4333L58.3107 47.8217L49.6555 55.825L51.9524 67.3867L41.6668 61.6292ZM41.6668 58.2867L47.8603 61.7531L46.4764 54.7925L51.687 49.9727L44.6389 49.1371L41.6668 42.6927L38.6947 49.1385L31.6466 49.9727L36.8572 54.7925L35.4732 61.7531L41.6668 58.2867Z" fill="#F87000"/>
</g>
<g clip-path="url(#clip4_19_52)">
<path d="M88.3334 61.6292L78.0478 67.3867L80.3447 55.825L71.6895 47.8217L83.3955 46.4333L88.3334 35.7292L93.2713 46.4333L104.977 47.8217L96.3222 55.825L98.619 67.3867L88.3334 61.6292ZM88.3334 58.2867L94.527 61.7531L93.143 54.7925L98.3536 49.9727L91.3055 49.1371L88.3334 42.6927L85.3613 49.1385L78.3132 49.9727L83.5238 54.7925L82.1399 61.7531L88.3334 58.2867Z" fill="#F87000"/>
</g>
</g>
<defs>
<clipPath id="clip0_19_52">
<rect width="35" height="35" fill="white" transform="translate(0.833374)"/>
</clipPath>
<clipPath id="clip1_19_52">
<rect width="35" height="35" fill="white" transform="translate(47.5)"/>
</clipPath>
<clipPath id="clip2_19_52">
<rect width="35" height="35" fill="white" transform="translate(94.1667)"/>
</clipPath>
<clipPath id="clip3_19_52">
<rect width="35" height="35" fill="white" transform="translate(24.1667 35)"/>
</clipPath>
<clipPath id="clip4_19_52">
<rect width="35" height="35" fill="white" transform="translate(70.8334 35)"/>
</clipPath>
</defs>
</svg>
