<svg width="10" height="16" viewBox="0 0 10 16" fill="none" xmlns="http://www.w3.org/2000/svg">
<path d="M6.13575 6.59717C7.19452 6.79768 8.06818 7.25811 8.74194 7.97846C9.4157 8.69882 9.75627 9.60483 9.75627 10.7113C9.75627 12.0704 9.28983 13.1398 8.36434 13.9195C7.43885 14.7067 6.31345 15.0929 4.98814 15.0929C3.92938 15.0929 2.98908 14.8478 2.16725 14.3651C1.34541 13.8824 0.760502 13.1769 0.419922 12.2634L1.96735 11.35C2.37457 12.6422 3.38889 13.2809 4.98814 13.2809C5.847 13.2809 6.55038 13.0581 7.09827 12.6051C7.63875 12.152 7.9127 11.5208 7.9127 10.7113C7.9127 9.90188 7.63875 9.26322 7.09827 8.81021C6.55778 8.34978 5.8544 8.11956 4.98814 8.11956H4.51429L3.78131 6.98333L7.00201 2.61666H0.81974V0.878906H9.17137L9.16396 2.50527L6.13575 6.59717Z" fill="white"/>
</svg>
