<svg width="10" height="15" viewBox="0 0 10 15" fill="none" xmlns="http://www.w3.org/2000/svg">
<path d="M0.810547 14.8405V13.3256L5.71935 8.29795C7.02985 6.9835 7.68879 5.8547 7.68879 4.91156C7.68879 4.12437 7.45186 3.51541 6.97061 3.07726C6.49676 2.6391 5.91185 2.41631 5.22328 2.41631C3.91279 2.41631 2.95768 3.04012 2.35796 4.28774L0.810547 3.3743C1.24738 2.46829 1.85449 1.78507 2.63191 1.31722C3.40932 0.849358 4.26818 0.619141 5.20848 0.619141C6.3709 0.619141 7.38524 1.00531 8.25149 1.77765C9.11035 2.54999 9.54718 3.58224 9.54718 4.88927C9.54718 6.30027 8.71794 7.83752 7.06686 9.50101L3.52039 13.0508H9.81372V14.848H0.810547V14.8405Z" fill="white"/>
</svg>
