<svg width="40" height="13" viewBox="0 0 40 13" fill="none" xmlns="http://www.w3.org/2000/svg">
<path d="M37.3208 0.618164H34.8257C34.0483 0.618164 33.4634 0.83353 33.1302 1.59844L28.3325 12.5077H31.7234C31.7234 12.5077 32.2861 11.0447 32.412 10.7254H36.5434C36.6471 11.1413 36.9358 12.5077 36.9358 12.5077H39.9344L37.3208 0.618164ZM33.3449 8.29698C33.604 7.60633 34.611 4.96256 34.611 4.96256C34.611 4.96256 34.8923 4.26449 35.0478 3.83376L35.2625 4.85859C35.2625 4.85859 35.8919 7.68802 36.0177 8.29698H33.3449Z" fill="white"/>
<path d="M24.0308 3.91538C24.0234 4.47235 24.7193 4.84367 25.8521 5.39321C27.7105 6.23981 28.5768 7.27207 28.562 8.62366C28.5397 11.0892 26.3334 12.6859 22.935 12.6859C21.4912 12.671 20.0919 12.374 19.3367 12.0546L19.7957 9.38857L20.2103 9.58166C21.2691 10.0198 21.9576 10.2055 23.2533 10.2055C24.1788 10.2055 25.171 9.84158 25.1784 9.04696C25.1858 8.5197 24.7637 8.14838 23.5051 7.5617C22.276 6.9973 20.6546 6.04673 20.6694 4.33868C20.6842 2.02909 22.935 0.410156 26.1261 0.410156C27.3773 0.410156 28.3843 0.670079 29.0284 0.907721L28.5916 3.48465L28.3028 3.35098C27.7031 3.10591 26.9405 2.87569 25.8817 2.89055C24.6231 2.89055 24.0308 3.42524 24.0308 3.91538Z" fill="white"/>
<path d="M19.3367 0.61084L17.308 12.5004H14.0873L16.1086 0.61084H19.3367Z" fill="white"/>
<path d="M7.73475 6.73019C6.66118 3.98246 4.08461 1.69515 0.182739 0.744582L0.227161 0.499512H5.23963C5.92079 0.521791 6.46128 0.744582 6.65379 1.46494L7.73475 6.73019Z" fill="white"/>
<path d="M14.7981 0.618164L9.70416 12.4854H6.29093L3.396 2.57871C5.4765 3.91545 7.24604 6.03195 7.86797 7.50236L8.20855 8.7277L11.3775 0.618164H14.7981Z" fill="white"/>
</svg>
