<svg width="49" height="48" viewBox="0 0 49 48" fill="none" xmlns="http://www.w3.org/2000/svg">
<path d="M5 24C5 13.2561 13.7561 4.5 24.5 4.5C35.2439 4.5 44 13.2561 44 24C44 34.7439 35.2439 43.5 24.5 43.5C13.7561 43.5 5 34.7439 5 24ZM31.5736 31.0736C32.3488 30.2983 32.3488 29.0217 31.5736 28.2464L27.3271 24L31.5736 19.7536C32.3488 18.9783 32.3488 17.7017 31.5736 16.9264C30.7983 16.1512 29.5217 16.1512 28.7464 16.9264L24.5 21.1729L20.2536 16.9264C19.4783 16.1512 18.2017 16.1512 17.4264 16.9264C16.6512 17.7017 16.6512 18.9783 17.4264 19.7536L21.6729 24L17.4264 28.2464C16.6512 29.0217 16.6512 30.2983 17.4264 31.0736C17.8252 31.4723 18.3345 31.66 18.84 31.66C19.3455 31.66 19.8548 31.4723 20.2536 31.0736L24.5 26.8271L28.7464 31.0736C29.1452 31.4723 29.6545 31.66 30.16 31.66C30.6655 31.66 31.1748 31.4723 31.5736 31.0736Z" fill="#FF5964" stroke="#FF5964"/>
</svg>
