<svg width="32" height="32" viewBox="0 0 32 32" fill="none" xmlns="http://www.w3.org/2000/svg">
<path d="M20 14.6665H17.3333V9.33317C17.3333 8.97955 17.1929 8.64041 16.9428 8.39036C16.6928 8.14031 16.3536 7.99984 16 7.99984C15.6464 7.99984 15.3072 8.14031 15.0572 8.39036C14.8071 8.64041 14.6667 8.97955 14.6667 9.33317V15.9998C14.6667 16.3535 14.8071 16.6926 15.0572 16.9426C15.3072 17.1927 15.6464 17.3332 16 17.3332H20C20.3536 17.3332 20.6928 17.1927 20.9428 16.9426C21.1929 16.6926 21.3333 16.3535 21.3333 15.9998C21.3333 15.6462 21.1929 15.3071 20.9428 15.057C20.6928 14.807 20.3536 14.6665 20 14.6665ZM16 2.6665C13.3629 2.6665 10.785 3.44849 8.59239 4.91358C6.39974 6.37866 4.69077 8.46104 3.6816 10.8974C2.67243 13.3337 2.40839 16.0146 2.92286 18.601C3.43733 21.1875 4.70721 23.5632 6.57191 25.4279C8.43661 27.2926 10.8124 28.5625 13.3988 29.077C15.9852 29.5914 18.6661 29.3274 21.1024 28.3182C23.5388 27.3091 25.6212 25.6001 27.0863 23.4074C28.5513 21.2148 29.3333 18.6369 29.3333 15.9998C29.3333 14.2489 28.9885 12.5151 28.3184 10.8974C27.6483 9.27972 26.6662 7.80986 25.4281 6.57175C24.19 5.33363 22.7201 4.35151 21.1024 3.68144C19.4848 3.01138 17.751 2.6665 16 2.6665ZM16 26.6665C13.8903 26.6665 11.828 26.0409 10.0739 24.8688C8.31979 23.6968 6.95262 22.0309 6.14528 20.0818C5.33795 18.1327 5.12671 15.988 5.53829 13.9189C5.94986 11.8497 6.96576 9.94913 8.45752 8.45737C9.94928 6.96561 11.8499 5.9497 13.919 5.53813C15.9882 5.12655 18.1329 5.33779 20.082 6.14512C22.031 6.95246 23.6969 8.31963 24.869 10.0738C26.0411 11.8279 26.6667 13.8902 26.6667 15.9998C26.6667 18.8288 25.5429 21.5419 23.5425 23.5423C21.5421 25.5427 18.829 26.6665 16 26.6665Z" fill="white"/>
</svg>
