<svg width="32" height="32" viewBox="0 0 32 32" fill="none" xmlns="http://www.w3.org/2000/svg">
<path d="M16 2.6665C13.171 2.6665 10.4579 3.79031 8.45752 5.7907C6.45713 7.79109 5.33333 10.5042 5.33333 13.3332C5.33333 20.5332 14.7333 28.6665 15.1333 29.0132C15.3748 29.2197 15.6822 29.3333 16 29.3333C16.3178 29.3333 16.6252 29.2197 16.8667 29.0132C17.3333 28.6665 26.6667 20.5332 26.6667 13.3332C26.6667 10.5042 25.5429 7.79109 23.5425 5.7907C21.5421 3.79031 18.829 2.6665 16 2.6665ZM16 26.1998C13.16 23.5332 7.99999 17.7865 7.99999 13.3332C7.99999 11.2114 8.84285 9.17661 10.3431 7.67632C11.8434 6.17603 13.8783 5.33317 16 5.33317C18.1217 5.33317 20.1566 6.17603 21.6568 7.67632C23.1571 9.17661 24 11.2114 24 13.3332C24 17.7865 18.84 23.5465 16 26.1998ZM16 7.99984C14.9452 7.99984 13.914 8.31263 13.037 8.89867C12.1599 9.4847 11.4763 10.3177 11.0726 11.2922C10.669 12.2667 10.5634 13.3391 10.7691 14.3737C10.9749 15.4082 11.4829 16.3585 12.2288 17.1044C12.9746 17.8503 13.9249 18.3582 14.9595 18.564C15.9941 18.7698 17.0664 18.6642 18.041 18.2605C19.0155 17.8569 19.8485 17.1733 20.4345 16.2962C21.0205 15.4191 21.3333 14.388 21.3333 13.3332C21.3333 11.9187 20.7714 10.5621 19.7712 9.56193C18.771 8.56174 17.4145 7.99984 16 7.99984ZM16 15.9998C15.4726 15.9998 14.957 15.8434 14.5185 15.5504C14.0799 15.2574 13.7381 14.8409 13.5363 14.3537C13.3345 13.8664 13.2817 13.3302 13.3846 12.8129C13.4875 12.2956 13.7414 11.8205 14.1144 11.4476C14.4873 11.0746 14.9625 10.8206 15.4798 10.7177C15.997 10.6148 16.5332 10.6677 17.0205 10.8695C17.5078 11.0713 17.9242 11.4131 18.2172 11.8517C18.5103 12.2902 18.6667 12.8058 18.6667 13.3332C18.6667 14.0404 18.3857 14.7187 17.8856 15.2188C17.3855 15.7189 16.7072 15.9998 16 15.9998Z" fill="white"/>
</svg>
