<svg width="32" height="32" viewBox="0 0 32 32" fill="none" xmlns="http://www.w3.org/2000/svg">
<path d="M27.3333 18.6667C26.9797 18.6667 26.6406 18.8072 26.3905 19.0572C26.1405 19.3073 26 19.6464 26 20V25.3334C26 25.687 25.8595 26.0261 25.6095 26.2762C25.3594 26.5262 25.0203 26.6667 24.6667 26.6667H6C5.64638 26.6667 5.30724 26.5262 5.05719 26.2762C4.80714 26.0261 4.66667 25.687 4.66667 25.3334V12.5467L12.5067 20.4C13.2567 21.1491 14.2733 21.5698 15.3333 21.5698C16.3933 21.5698 17.41 21.1491 18.16 20.4L20.3467 18.2134C20.5977 17.9623 20.7388 17.6218 20.7388 17.2667C20.7388 16.9116 20.5977 16.5711 20.3467 16.32C20.0956 16.069 19.7551 15.9279 19.4 15.9279C19.0449 15.9279 18.7044 16.069 18.4533 16.32L16.2667 18.5067C16.0174 18.751 15.6823 18.8878 15.3333 18.8878C14.9843 18.8878 14.6492 18.751 14.4 18.5067L6.54667 10.6667H15.3333C15.687 10.6667 16.0261 10.5262 16.2761 10.2762C16.5262 10.0261 16.6667 9.68698 16.6667 9.33336C16.6667 8.97974 16.5262 8.6406 16.2761 8.39055C16.0261 8.1405 15.687 8.00002 15.3333 8.00002H6C4.93913 8.00002 3.92172 8.42145 3.17157 9.1716C2.42143 9.92174 2 10.9392 2 12V25.3334C2 26.3942 2.42143 27.4116 3.17157 28.1618C3.92172 28.9119 4.93913 29.3334 6 29.3334H24.6667C25.7275 29.3334 26.7449 28.9119 27.4951 28.1618C28.2452 27.4116 28.6667 26.3942 28.6667 25.3334V20C28.6667 19.6464 28.5262 19.3073 28.2761 19.0572C28.0261 18.8072 27.687 18.6667 27.3333 18.6667ZM29.6133 7.05336L25.6133 3.05336C25.4865 2.93197 25.337 2.83682 25.1733 2.77336C24.8487 2.64 24.4846 2.64 24.16 2.77336C23.9963 2.83682 23.8468 2.93197 23.72 3.05336L19.72 7.05336C19.4689 7.30443 19.3279 7.64496 19.3279 8.00002C19.3279 8.35509 19.4689 8.69562 19.72 8.94669C19.9711 9.19776 20.3116 9.33881 20.6667 9.33881C21.0217 9.33881 21.3623 9.19776 21.6133 8.94669L23.3333 7.21336V14.6667C23.3333 15.0203 23.4738 15.3595 23.7239 15.6095C23.9739 15.8595 24.313 16 24.6667 16C25.0203 16 25.3594 15.8595 25.6095 15.6095C25.8595 15.3595 26 15.0203 26 14.6667V7.21336L27.72 8.94669C27.844 9.07166 27.9914 9.17086 28.1539 9.23855C28.3164 9.30624 28.4907 9.34109 28.6667 9.34109C28.8427 9.34109 29.017 9.30624 29.1794 9.23855C29.3419 9.17086 29.4894 9.07166 29.6133 8.94669C29.7383 8.82274 29.8375 8.67527 29.9052 8.51279C29.9729 8.35032 30.0077 8.17604 30.0077 8.00002C30.0077 7.82401 29.9729 7.64973 29.9052 7.48726C29.8375 7.32478 29.7383 7.17731 29.6133 7.05336Z" fill="white"/>
</svg>
